<svg width="80" height="80" viewBox="0 0 227 227" fill="none" xmlns="http://www.w3.org/2000/svg">
<path fill-rule="evenodd" clip-rule="evenodd" d="M52.14 126.535L35.6078 126.536C32.0966 126.536 29.2493 123.689 29.2493 120.177V6.35915C29.2493 2.84733 32.0966 0.000610352 35.6078 0.000610352H118.269C121.781 0.000610352 124.627 2.84733 124.627 6.35915V22.8856H101.737V53.4067H75.0181V76.2974H101.737V103.644H52.14V126.535Z" fill="#2C677B"/>
<path fill-rule="evenodd" clip-rule="evenodd" d="M52.1401 126.535V197.751C52.1401 201.26 54.9894 204.109 58.4987 204.109L101.737 204.104V126.535H52.1401Z" fill="#E0B73B"/>
<path fill-rule="evenodd" clip-rule="evenodd" d="M174.224 126.53H190.768C194.277 126.53 197.126 123.681 197.126 120.171V29.2442C197.126 25.7349 194.277 22.8856 190.768 22.8856H124.627V53.4066H151.321V76.2974H124.627V103.644H174.224V126.53Z" fill="#BA5D3F"/>
<path fill-rule="evenodd" clip-rule="evenodd" d="M101.737 204.104V220.641C101.737 224.151 104.586 227 108.095 227H167.865C171.375 227 174.224 224.151 174.224 220.641V126.535H124.627V204.104H101.737Z" fill="#2A77A0"/>
</svg>
