<svg version="1.2" xmlns="http://www.w3.org/2000/svg" viewBox="0 0 250 250" width="80" height="80">
	<title>CaV_bile_pozadi-svg</title>
	<defs>
		<clipPath clipPathUnits="userSpaceOnUse" id="cp1">
			<path d="m0 0h250v250h-250z"/>
		</clipPath>
	</defs>
	<style>
		.s0 { fill: #242424 } 
		.s1 { fill: #d39c0a } 
	</style>
	<path id="Shape 1" class="s0" d="m0 0h250v250h-250z"/>
	<g id="Artboard 1" clip-path="url(#cp1)">
		<path id="Layer" class="s1" d="m177.2 131.7c0 0-36.3-25.6-67-34.4-30.8-8.8-40-4.4-43.4-3-3.3 1.4-9.3 3.9-11.9 5.8-2.7 1.9-5.3 3.8-5.3 3.8 0 0 2.8-5.2 10-9.3 7.2-4.2 7-4.2 7-4.2 0 0-10.5 3.3-20 11-9.4 7.8-8.9 8-12.9 12.4-4 4.5-4.7 5.5-4.7 5.5 0 0 1.9-10.5 12.9-20.6 10.9-9.9 25.8-22.2 61.2-19.3 34 3 52.9 24.8 52.9 24.8l-4.7-1.4c0 0 27.4 18.2 34.1 23.4 4.9-0.5 19-8.9 24.7-12.4 5.8-3.4 6.8-4.8 8.3-5.5 1.5-0.7 3.1 0.4 0 2.8-3.1 2.4-24.7 20.6-24.7 20.6 0 0 1.6 3.2 3.9 5.1 6.8 5.7 0.8 3.2 0.8 3.2 0 0 14 11.5 17.6 16.5 0.8 0.8 0.9 3.1-4.7-1.4-5.6-4.5-21.3-16.2-23.5-17.9-2.5 0.5-20.4 15.1-40 23.4-19.6 8.2-28.1 11.3-45.9 11-17.8-0.4-29.4-1.7-40-6.9-10.6-5.1-16.4-11-16.4-11 0 0 3.1 1 7 2.8 4 1.7 19.4 5.9 5.9 0-9.6-4.3-11.6-6.6-20-13.8-8.4-7.3-9.4-9.6-9.4-9.6 0 0 10.5 6.8 22.5 13.3 11.9 6.6 26.9 13.8 51.6 10.1 24.7-3.8 37.6-10.8 37.6-10.8 0 0-6.6 5.6-8.2 6.6 6.6-2.7 23-10.4 23-10.4 0 0-3.1 3.4-4.2 4.9 9.3-3.9 23.7-12.7 25.9-15.1z"/>
	</g>
</svg>