<?xml version="1.0" standalone="no"?>
<!DOCTYPE svg PUBLIC "-//W3C//DTD SVG 20010904//EN"
 "http://www.w3.org/TR/2001/REC-SVG-20010904/DTD/svg10.dtd">
<svg version="1.0" xmlns="http://www.w3.org/2000/svg"
 width="349.000000pt" height="349.000000pt" viewBox="0 0 349.000000 349.000000"
 preserveAspectRatio="xMidYMid meet">
<metadata>
Created by potrace 1.14, written by Peter Selinger 2001-2017
</metadata>
<g transform="translate(0.000000,349.000000) scale(0.100000,-0.100000)"
fill="#000000" stroke="none">
<path d="M481 3459 l-31 -31 0 -899 c0 -977 -2 -941 55 -967 16 -7 77 -12 160
-12 l135 0 0 -555 c0 -603 0 -598 55 -623 18 -9 124 -12 365 -12 l340 0 1 -82
c0 -46 0 -105 -1 -132 -1 -26 4 -61 11 -77 24 -59 23 -59 543 -59 277 0 485 4
500 10 60 23 58 -11 58 795 l0 735 133 0 c147 0 176 6 201 45 15 24 17 87 17
750 0 666 -1 726 -17 750 -9 14 -28 30 -42 35 -15 6 -237 10 -540 10 l-514 0
0 144 c0 139 -1 146 -24 173 l-24 28 -675 3 -675 2 -31 -31z"/>
</g>
</svg>
