<svg width="771" height="227" viewBox="0 0 771 227" fill="none" xmlns="http://www.w3.org/2000/svg">
<path d="M241.662 113.889H227L246.925 61.256H261.963L281.889 113.889H267.227L263.843 104.49H245.046L241.662 113.889ZM248.429 94.7155H260.46L254.444 77.0458L248.429 94.7155Z" fill="#404040"/>
<path d="M311.589 86.0686C311.589 85.3167 311.363 84.7152 310.837 84.1889C310.31 83.6626 309.709 83.437 308.957 83.437H307.077C304.972 83.437 303.167 83.5122 301.664 83.7377C300.085 83.9633 298.882 84.1137 298.055 84.1889V103.738H308.581C310.611 103.738 311.589 102.761 311.589 100.731V86.0686ZM298.055 74.7902C302.942 73.8127 307.153 73.2864 310.837 73.2864H313.468C316.852 73.2864 319.634 74.339 321.664 76.3691C323.694 78.3993 324.747 81.1813 324.747 84.5648V101.858C324.747 105.618 323.694 108.55 321.589 110.656C319.408 112.836 316.476 113.889 312.717 113.889H284.896V61.256H298.055V74.7902Z" fill="#404040"/>
<path d="M330.01 103.362C340.161 104.114 348.206 104.49 354.071 104.49C354.823 104.49 355.425 104.264 355.951 103.738C356.477 103.212 356.703 102.61 356.703 101.858V99.2267H340.537C337.154 99.2267 334.371 98.174 332.341 96.1439C330.311 94.1138 329.259 91.3317 329.259 87.9482V85.3166C329.259 81.933 330.311 79.151 332.341 77.1209C334.371 75.0907 337.154 74.0381 340.537 74.0381H366.102V83.8128H345.048C344.297 83.8128 343.695 84.0383 343.169 84.5647C342.642 85.091 342.417 85.6925 342.417 86.4444C342.417 87.1963 342.642 87.7978 343.169 88.3242C343.695 88.8505 344.297 89.076 345.048 89.076H358.583C361.966 89.076 364.748 90.1287 366.778 92.1588C368.809 94.189 369.861 96.971 369.861 100.355V103.362C369.861 106.746 368.809 109.528 366.778 111.558C364.748 113.588 361.966 114.641 358.583 114.641C349.71 114.641 340.161 114.114 330.01 113.137V103.362Z" fill="#404040"/>
<path d="M415.727 102.61C415.727 106.37 414.674 109.302 412.569 111.408C410.388 113.588 407.456 114.641 403.696 114.641H386.403C382.643 114.641 379.711 113.588 377.605 111.408C375.425 109.302 374.372 106.37 374.372 102.61V85.3168C374.372 81.5573 375.425 78.6249 377.605 76.4444C379.711 74.339 382.643 73.2864 386.403 73.2864H403.696C407.456 73.2864 410.388 74.339 412.569 76.4444C414.674 78.6249 415.727 81.5573 415.727 85.3168V102.61ZM402.569 86.4446C402.569 84.4145 401.591 83.437 399.561 83.437H390.538C388.508 83.437 387.531 84.4145 387.531 86.4446V101.483C387.531 103.513 388.508 104.49 390.538 104.49H399.561C401.591 104.49 402.569 103.513 402.569 101.483V86.4446Z" fill="#404040"/>
<path d="M442.795 113.889C439.412 114.415 436.254 114.641 433.246 114.641C430.164 114.641 427.607 113.588 425.577 111.558C423.547 109.528 422.494 106.746 422.494 103.362V61.256H435.652V101.483C435.652 102.234 435.878 102.836 436.404 103.362C436.931 103.889 437.532 104.114 438.284 104.114H442.795V113.889Z" fill="#404040"/>
<path d="M471.743 74.0381H485.654L470.616 113.889H455.578L440.54 74.0381H454.45L463.097 101.106L471.743 74.0381Z" fill="#404040"/>
<path d="M503.323 82.6851C501.293 82.6851 500.316 83.6626 500.316 85.6927V89.8281H513.098V85.6927C513.098 83.6626 512.121 82.6851 510.09 82.6851H503.323ZM524.753 113.137C515.053 114.114 506.331 114.641 498.436 114.641C495.052 114.641 492.27 113.588 490.24 111.558C488.21 109.528 487.157 106.746 487.157 103.362V85.3168C487.157 81.5573 488.21 78.6249 490.391 76.4444C492.496 74.339 495.428 73.2864 499.188 73.2864H514.226C517.985 73.2864 520.918 74.339 523.098 76.4444C525.204 78.6249 526.256 81.5573 526.256 85.3168V99.2269H500.316V102.234C500.316 102.986 500.541 103.588 501.068 104.114C501.594 104.641 502.195 104.866 502.947 104.866C507.91 104.866 515.203 104.49 524.753 103.738V113.137Z" fill="#404040"/>
<path d="M555.205 84.1889C552.573 84.1889 549.565 84.7152 546.182 85.6927V113.889H533.024V74.0383H544.678L545.43 77.7978C547.761 76.2188 550.242 75.0909 552.723 74.339C555.13 73.6623 557.235 73.2864 558.964 73.2864H562.348C565.731 73.2864 568.513 74.339 570.544 76.3692C572.574 78.3993 573.626 81.1813 573.626 84.5649V113.889H560.468V86.8205C560.468 86.0686 560.242 85.4671 559.716 84.9408C559.19 84.4145 558.588 84.1889 557.836 84.1889H555.205Z" fill="#404040"/>
<path d="M608.213 113.888C603.326 114.415 598.589 114.64 593.927 114.64C590.544 114.64 587.762 113.588 585.731 111.558C583.701 109.527 582.649 106.745 582.649 103.362V84.1884H578.137V74.0378H582.649L584.152 65.015H595.807V74.0378H605.206V84.1884H595.807V101.482C595.807 102.234 596.032 102.836 596.559 103.362C597.085 103.888 597.687 104.114 598.439 104.114H608.213V113.888Z" fill="#404040"/>
<path d="M611.973 103.362C622.124 104.114 630.169 104.49 636.034 104.49C636.786 104.49 637.387 104.264 637.914 103.738C638.44 103.212 638.666 102.61 638.666 101.858V99.2267H622.5C619.116 99.2267 616.334 98.174 614.304 96.1439C612.274 94.1138 611.221 91.3317 611.221 87.9482V85.3166C611.221 81.933 612.274 79.151 614.304 77.1209C616.334 75.0907 619.116 74.0381 622.5 74.0381H648.064V83.8128H627.011C626.259 83.8128 625.658 84.0383 625.131 84.5647C624.605 85.091 624.379 85.6925 624.379 86.4444C624.379 87.1963 624.605 87.7978 625.131 88.3242C625.658 88.8505 626.259 89.076 627.011 89.076H640.545C643.929 89.076 646.711 90.1287 648.741 92.1588C650.771 94.189 651.824 96.971 651.824 100.355V103.362C651.824 106.746 650.771 109.528 648.741 111.558C646.711 113.588 643.929 114.641 640.545 114.641C631.673 114.641 622.124 114.114 611.973 113.137V103.362Z" fill="#404040"/>
<path d="M670.245 98.099V113.889H657.087V61.256H670.245V87.9484H676.261L684.532 74.0383H698.442L687.163 93.2117L698.442 113.889H684.532L675.885 98.099H670.245Z" fill="#404040"/>
<path d="M712.728 127.423C710.097 127.423 706.788 127.197 702.954 126.671V116.896H709.721C711.601 116.896 712.879 116.37 713.48 115.317C714.007 114.264 713.931 112.761 713.104 110.881L697.69 74.0378H711.601L720.999 99.6024L728.894 74.0378H742.804L727.766 115.392C726.338 119.377 724.458 122.31 722.127 124.34C719.796 126.37 716.714 127.423 712.728 127.423ZM714.608 71.7822L719.12 58.9999H732.654L724.383 71.7822H714.608Z" fill="#404040"/>
<path d="M254.444 177.711L267.227 140.868H281.889L261.963 193.5H246.925L227 140.868H241.662L254.444 177.711Z" fill="#404040"/>
<path d="M298.054 162.297C296.024 162.297 295.047 163.275 295.047 165.305V169.44H307.829V165.305C307.829 163.275 306.852 162.297 304.821 162.297H298.054ZM319.483 192.749C309.784 193.726 301.062 194.253 293.167 194.253C289.783 194.253 287.001 193.2 284.971 191.17C282.941 189.14 281.888 186.358 281.888 182.974V164.929C281.888 161.169 282.941 158.237 285.122 156.056C287.227 153.951 290.159 152.898 293.919 152.898H308.957C312.716 152.898 315.649 153.951 317.829 156.056C319.935 158.237 320.987 161.169 320.987 164.929V178.839H295.047V181.846C295.047 182.598 295.272 183.2 295.799 183.726C296.325 184.252 296.926 184.478 297.678 184.478C302.641 184.478 309.934 184.102 319.483 183.35V192.749Z" fill="#404040"/>
<path d="M348.056 193.5C344.672 194.027 341.514 194.252 338.507 194.252C335.424 194.252 332.868 193.2 330.837 191.17C328.807 189.139 327.755 186.357 327.755 182.974V140.868H340.913V181.094C340.913 181.846 341.138 182.448 341.665 182.974C342.191 183.5 342.793 183.726 343.545 183.726H348.056V193.5Z" fill="#404040"/>
<path d="M368.733 162.297C366.703 162.297 365.726 163.275 365.726 165.305V169.44H378.508V165.305C378.508 163.275 377.53 162.297 375.5 162.297H368.733ZM390.162 192.749C380.463 193.726 371.741 194.253 363.846 194.253C360.462 194.253 357.68 193.2 355.65 191.17C353.62 189.14 352.567 186.358 352.567 182.974V164.929C352.567 161.169 353.62 158.237 355.801 156.056C357.906 153.951 360.838 152.898 364.598 152.898H379.636C383.395 152.898 386.328 153.951 388.508 156.056C390.614 158.237 391.666 161.169 391.666 164.929V178.839H365.726V181.846C365.726 182.598 365.951 183.2 366.478 183.726C367.004 184.252 367.605 184.478 368.357 184.478C373.32 184.478 380.613 184.102 390.162 183.35V192.749Z" fill="#404040"/>
<path d="M411.592 154.402C416.479 153.424 420.69 152.898 424.374 152.898H427.757C431.141 152.898 433.923 153.951 435.953 155.981C437.983 158.011 439.036 160.793 439.036 164.176V193.5H425.878V165.68C425.878 164.928 425.652 164.327 425.126 163.8C424.599 163.274 423.998 163.049 423.246 163.049H420.614C418.735 163.049 417.005 163.124 415.426 163.349C413.847 163.575 412.569 163.725 411.592 163.8V193.5H398.433V140.868H411.592V154.402Z" fill="#404040"/>
<path d="M468.736 164.553C465.578 164.553 462.345 165.305 458.961 166.808V193.501H445.803V153.65H457.457L458.209 158.538C462.495 154.778 467.007 152.898 471.744 152.898H475.127V164.553H468.736Z" fill="#404040"/>
<path d="M493.173 183.726C495.804 183.726 498.812 183.2 502.196 182.222V177.711H491.293C490.541 177.711 489.94 177.937 489.413 178.463C488.887 178.989 488.661 179.591 488.661 180.343V181.095C488.661 181.846 488.887 182.448 489.413 182.974C489.94 183.501 490.541 183.726 491.293 183.726H493.173ZM479.263 154.402C488.436 153.425 496.707 152.898 504.075 152.898C507.459 152.898 510.241 153.951 512.271 155.981C514.301 158.011 515.354 160.793 515.354 164.177V193.501H503.699L502.948 189.741C500.617 191.32 498.211 192.448 495.729 193.125C493.248 193.877 491.143 194.253 489.413 194.253H486.782C483.398 194.253 480.616 193.2 478.586 191.17C476.556 189.14 475.503 186.358 475.503 182.974V179.591C475.503 176.207 476.556 173.425 478.586 171.395C480.616 169.365 483.398 168.312 486.782 168.312H502.196V165.305C502.196 164.553 501.97 163.951 501.444 163.425C500.917 162.899 500.316 162.673 499.564 162.673C496.331 162.673 492.722 162.823 488.812 163.124C484.827 163.425 481.669 163.65 479.263 163.801V154.402Z" fill="#404040"/>
<path d="M550.317 193.5L549.565 189.741C547.235 191.32 544.828 192.448 542.347 193.124C539.791 193.876 537.761 194.252 536.031 194.252H532.648C529.264 194.252 526.482 193.2 524.452 191.17C522.422 189.139 521.369 186.357 521.369 182.974V165.68C521.369 161.921 522.422 158.988 524.602 156.808C526.708 154.702 529.64 153.65 533.4 153.65H548.814V140.868H561.972V193.5H550.317ZM539.791 183.35C542.422 183.35 545.43 182.823 548.814 181.846V163.8H537.535C535.505 163.8 534.527 164.778 534.527 166.808V180.718C534.527 181.47 534.753 182.072 535.279 182.598C535.806 183.124 536.407 183.35 537.159 183.35H539.791Z" fill="#404040"/>
<path d="M630.395 157.409C630.395 161.695 628.59 165.379 624.981 168.462C623.853 169.44 622.65 170.342 621.372 171.319L605.206 182.974H630.395V193.5H589.792V179.214L616.861 159.665V155.906C616.861 152.898 615.357 151.394 612.349 151.394H591.296V140.868H615.357C620.62 140.868 624.455 142.071 626.861 144.401C629.192 146.808 630.395 150.642 630.395 155.906V157.409Z" fill="#404040"/>
<path d="M666.486 155.153C666.486 152.146 664.982 150.642 661.975 150.642H653.704C650.696 150.642 649.192 152.146 649.192 155.153V179.214C649.192 182.222 650.696 183.726 653.704 183.726H661.975C664.982 183.726 666.486 182.222 666.486 179.214V155.153ZM680.02 179.214C680.02 184.477 678.817 188.312 676.486 190.643C674.08 193.049 670.246 194.252 664.982 194.252H650.696C645.433 194.252 641.598 193.049 639.192 190.643C636.861 188.312 635.658 184.477 635.658 179.214V155.153C635.658 149.89 636.861 146.055 639.192 143.649C641.598 141.318 645.433 140.115 650.696 140.115H664.982C670.246 140.115 674.08 141.318 676.486 143.649C678.817 146.055 680.02 149.89 680.02 155.153V179.214Z" fill="#404040"/>
<path d="M725.134 157.409C725.134 161.695 723.33 165.379 719.72 168.462C718.593 169.44 717.39 170.342 716.111 171.319L699.945 182.974H725.134V193.5H684.531V179.214L711.6 159.665V155.906C711.6 152.898 710.096 151.394 707.089 151.394H686.035V140.868H710.096C715.359 140.868 719.194 142.071 721.6 144.401C723.931 146.808 725.134 150.642 725.134 155.906V157.409Z" fill="#404040"/>
<path d="M756.714 194.252C748.368 194.252 739.044 193.726 728.894 192.749V182.598C739.946 183.35 748.217 183.726 753.706 183.726C754.834 183.726 755.812 183.35 756.488 182.748C757.165 181.996 757.466 181.094 757.466 179.966V176.959C757.466 173.951 755.962 172.447 752.954 172.447H737.164V161.921H751.451C754.458 161.921 755.962 160.417 755.962 157.409V155.906C755.962 152.898 754.458 151.394 751.451 151.394H729.645V140.868H755.21C760.097 140.868 763.707 141.995 766.037 144.176C768.368 146.432 769.496 149.815 769.496 154.402C769.496 157.409 768.819 159.815 767.466 161.695C766.037 163.575 764.233 164.928 761.977 165.68C766.037 166.808 768.819 169.515 770.248 173.801C770.774 175.38 771 177.184 771 179.214V179.966C771 184.854 769.872 188.463 767.541 190.794C765.21 193.124 761.601 194.252 756.714 194.252Z" fill="#404040"/>
<path fill-rule="evenodd" clip-rule="evenodd" d="M52.14 126.535L35.6078 126.536C32.0966 126.536 29.2493 123.689 29.2493 120.177V6.35915C29.2493 2.84733 32.0966 0.000610352 35.6078 0.000610352H118.269C121.781 0.000610352 124.627 2.84733 124.627 6.35915V22.8856H101.737V53.4067H75.0181V76.2974H101.737V103.644H52.14V126.535Z" fill="#2C677B"/>
<path fill-rule="evenodd" clip-rule="evenodd" d="M52.1401 126.535V197.751C52.1401 201.26 54.9894 204.109 58.4987 204.109L101.737 204.104V126.535H52.1401Z" fill="#E0B73B"/>
<path fill-rule="evenodd" clip-rule="evenodd" d="M174.224 126.53H190.768C194.277 126.53 197.126 123.681 197.126 120.171V29.2442C197.126 25.7349 194.277 22.8856 190.768 22.8856H124.627V53.4066H151.321V76.2974H124.627V103.644H174.224V126.53Z" fill="#BA5D3F"/>
<path fill-rule="evenodd" clip-rule="evenodd" d="M101.737 204.104V220.641C101.737 224.151 104.586 227 108.095 227H167.865C171.375 227 174.224 224.151 174.224 220.641V126.535H124.627V204.104H101.737Z" fill="#2A77A0"/>
</svg>
