<svg width="771" height="227" viewBox="0 0 771 227" fill="none" xmlns="http://www.w3.org/2000/svg">
<path d="M241.662 99.8888H227L246.925 47.2559H261.963L281.889 99.8888H267.227L263.843 90.4901H245.046L241.662 99.8888ZM248.429 80.7154H260.46L254.444 63.0458L248.429 80.7154Z" fill="#404040"/>
<path d="M311.589 72.0686C311.589 71.3167 311.363 70.7152 310.837 70.1888C310.31 69.6625 309.709 69.4369 308.957 69.4369H307.077C304.972 69.4369 303.167 69.5121 301.664 69.7377C300.085 69.9633 298.882 70.1136 298.055 70.1888V89.7382H308.581C310.611 89.7382 311.589 88.7607 311.589 86.7306V72.0686ZM298.055 60.7901C302.942 59.8126 307.153 59.2863 310.837 59.2863H313.468C316.852 59.2863 319.634 60.339 321.664 62.3691C323.694 64.3992 324.747 67.1812 324.747 70.5648V87.8584C324.747 91.6179 323.694 94.5503 321.589 96.6557C319.408 98.8362 316.476 99.8888 312.717 99.8888H284.896V47.2559H298.055V60.7901Z" fill="#404040"/>
<path d="M330.01 89.3621C340.161 90.114 348.206 90.49 354.071 90.49C354.823 90.49 355.425 90.2644 355.951 89.7381C356.477 89.2117 356.703 88.6102 356.703 87.8583V85.2267H340.537C337.154 85.2267 334.371 84.174 332.341 82.1439C330.311 80.1138 329.259 77.3317 329.259 73.9482V71.3166C329.259 67.933 330.311 65.151 332.341 63.1209C334.371 61.0907 337.154 60.0381 340.537 60.0381H366.102V69.8128H345.048C344.297 69.8128 343.695 70.0383 343.169 70.5647C342.642 71.091 342.417 71.6925 342.417 72.4444C342.417 73.1963 342.642 73.7978 343.169 74.3242C343.695 74.8505 344.297 75.076 345.048 75.076H358.583C361.966 75.076 364.748 76.1287 366.778 78.1588C368.809 80.189 369.861 82.971 369.861 86.3545V89.3621C369.861 92.7457 368.809 95.5277 366.778 97.5578C364.748 99.5879 361.966 100.641 358.583 100.641C349.71 100.641 340.161 100.114 330.01 99.1368V89.3621Z" fill="#404040"/>
<path d="M415.727 88.6104C415.727 92.3698 414.674 95.3023 412.569 97.4076C410.388 99.5881 407.456 100.641 403.696 100.641H386.403C382.643 100.641 379.711 99.5881 377.605 97.4076C375.425 95.3023 374.372 92.3698 374.372 88.6104V71.3167C374.372 67.5572 375.425 64.6248 377.605 62.4443C379.711 60.339 382.643 59.2863 386.403 59.2863H403.696C407.456 59.2863 410.388 60.339 412.569 62.4443C414.674 64.6248 415.727 67.5572 415.727 71.3167V88.6104ZM402.569 72.4445C402.569 70.4144 401.591 69.4369 399.561 69.4369H390.538C388.508 69.4369 387.531 70.4144 387.531 72.4445V87.4825C387.531 89.5126 388.508 90.4901 390.538 90.4901H399.561C401.591 90.4901 402.569 89.5126 402.569 87.4825V72.4445Z" fill="#404040"/>
<path d="M442.795 99.8888C439.412 100.415 436.254 100.641 433.246 100.641C430.164 100.641 427.607 99.5881 425.577 97.5579C423.547 95.5278 422.494 92.7458 422.494 89.3622V47.2559H435.652V87.4825C435.652 88.2344 435.878 88.8359 436.404 89.3622C436.931 89.8886 437.532 90.1141 438.284 90.1141H442.795V99.8888Z" fill="#404040"/>
<path d="M471.743 60.0381H485.654L470.616 99.8887H455.578L440.54 60.0381H454.45L463.097 87.1064L471.743 60.0381Z" fill="#404040"/>
<path d="M503.323 68.685C501.293 68.685 500.316 69.6625 500.316 71.6926V75.8281H513.098V71.6926C513.098 69.6625 512.121 68.685 510.09 68.685H503.323ZM524.753 99.1369C515.053 100.114 506.331 100.641 498.436 100.641C495.052 100.641 492.27 99.5881 490.24 97.5579C488.21 95.5278 487.157 92.7458 487.157 89.3623V71.3167C487.157 67.5572 488.21 64.6248 490.391 62.4443C492.496 60.339 495.428 59.2863 499.188 59.2863H514.226C517.985 59.2863 520.918 60.339 523.098 62.4443C525.204 64.6248 526.256 67.5572 526.256 71.3167V85.2268H500.316V88.2344C500.316 88.9863 500.541 89.5878 501.068 90.1142C501.594 90.6405 502.195 90.8661 502.947 90.8661C507.91 90.8661 515.203 90.4901 524.753 89.7382V99.1369Z" fill="#404040"/>
<path d="M555.205 70.1888C552.573 70.1888 549.565 70.7152 546.182 71.6926V99.8888H533.024V60.0382H544.678L545.43 63.7977C547.761 62.2187 550.242 61.0909 552.723 60.339C555.13 59.6623 557.235 59.2863 558.964 59.2863H562.348C565.731 59.2863 568.513 60.339 570.544 62.3691C572.574 64.3992 573.626 67.1813 573.626 70.5648V99.8888H560.468V72.8205C560.468 72.0686 560.242 71.4671 559.716 70.9407C559.19 70.4144 558.588 70.1888 557.836 70.1888H555.205Z" fill="#404040"/>
<path d="M608.213 99.8885C603.326 100.415 598.589 100.64 593.927 100.64C590.544 100.64 587.762 99.5877 585.731 97.5576C583.701 95.5275 582.649 92.7454 582.649 89.3619V70.1885H578.137V60.0379H582.649L584.152 51.0151H595.807V60.0379H605.206V70.1885H595.807V87.4821C595.807 88.234 596.032 88.8356 596.559 89.3619C597.085 89.8882 597.687 90.1138 598.439 90.1138H608.213V99.8885Z" fill="#404040"/>
<path d="M611.973 89.3621C622.124 90.114 630.169 90.49 636.034 90.49C636.786 90.49 637.387 90.2644 637.914 89.7381C638.44 89.2117 638.666 88.6102 638.666 87.8583V85.2267H622.5C619.116 85.2267 616.334 84.174 614.304 82.1439C612.274 80.1138 611.221 77.3317 611.221 73.9482V71.3166C611.221 67.933 612.274 65.151 614.304 63.1209C616.334 61.0907 619.116 60.0381 622.5 60.0381H648.064V69.8128H627.011C626.259 69.8128 625.658 70.0383 625.131 70.5647C624.605 71.091 624.379 71.6925 624.379 72.4444C624.379 73.1963 624.605 73.7978 625.131 74.3242C625.658 74.8505 626.259 75.076 627.011 75.076H640.545C643.929 75.076 646.711 76.1287 648.741 78.1588C650.771 80.189 651.824 82.971 651.824 86.3545V89.3621C651.824 92.7457 650.771 95.5277 648.741 97.5578C646.711 99.5879 643.929 100.641 640.545 100.641C631.673 100.641 622.124 100.114 611.973 99.1368V89.3621Z" fill="#404040"/>
<path d="M670.245 84.099V99.8888H657.087V47.2559H670.245V73.9483H676.261L684.532 60.0382H698.442L687.163 79.2116L698.442 99.8888H684.532L675.885 84.099H670.245Z" fill="#404040"/>
<path d="M712.728 113.423C710.097 113.423 706.788 113.197 702.954 112.671V102.896H709.721C711.601 102.896 712.879 102.37 713.48 101.317C714.007 100.264 713.931 98.7606 713.104 96.8809L697.69 60.0378H711.601L720.999 85.6024L728.894 60.0378H742.804L727.766 101.392C726.338 105.377 724.458 108.31 722.127 110.34C719.796 112.37 716.714 113.423 712.728 113.423ZM714.608 57.7822L719.12 44.9999H732.654L724.383 57.7822H714.608Z" fill="#404040"/>
<path d="M254.444 163.711L267.227 126.868H281.889L261.963 179.5H246.925L227 126.868H241.662L254.444 163.711Z" fill="#404040"/>
<path d="M298.054 148.297C296.024 148.297 295.047 149.275 295.047 151.305V155.44H307.829V151.305C307.829 149.275 306.852 148.297 304.821 148.297H298.054ZM319.483 178.749C309.784 179.726 301.062 180.253 293.167 180.253C289.783 180.253 287.001 179.2 284.971 177.17C282.941 175.14 281.888 172.358 281.888 168.974V150.929C281.888 147.169 282.941 144.237 285.122 142.056C287.227 139.951 290.159 138.898 293.919 138.898H308.957C312.716 138.898 315.649 139.951 317.829 142.056C319.935 144.237 320.987 147.169 320.987 150.929V164.839H295.047V167.846C295.047 168.598 295.272 169.2 295.799 169.726C296.325 170.253 296.926 170.478 297.678 170.478C302.641 170.478 309.934 170.102 319.483 169.35V178.749Z" fill="#404040"/>
<path d="M348.056 179.5C344.672 180.027 341.514 180.252 338.507 180.252C335.424 180.252 332.868 179.2 330.837 177.17C328.807 175.139 327.755 172.357 327.755 168.974V126.868H340.913V167.094C340.913 167.846 341.138 168.448 341.665 168.974C342.191 169.5 342.793 169.726 343.545 169.726H348.056V179.5Z" fill="#404040"/>
<path d="M368.733 148.297C366.703 148.297 365.726 149.275 365.726 151.305V155.44H378.508V151.305C378.508 149.275 377.53 148.297 375.5 148.297H368.733ZM390.162 178.749C380.463 179.726 371.741 180.253 363.846 180.253C360.462 180.253 357.68 179.2 355.65 177.17C353.62 175.14 352.567 172.358 352.567 168.974V150.929C352.567 147.169 353.62 144.237 355.801 142.056C357.906 139.951 360.838 138.898 364.598 138.898H379.636C383.395 138.898 386.328 139.951 388.508 142.056C390.614 144.237 391.666 147.169 391.666 150.929V164.839H365.726V167.846C365.726 168.598 365.951 169.2 366.478 169.726C367.004 170.253 367.605 170.478 368.357 170.478C373.32 170.478 380.613 170.102 390.162 169.35V178.749Z" fill="#404040"/>
<path d="M411.592 140.402C416.479 139.424 420.69 138.898 424.374 138.898H427.757C431.141 138.898 433.923 139.951 435.953 141.981C437.983 144.011 439.036 146.793 439.036 150.176V179.5H425.878V151.68C425.878 150.928 425.652 150.327 425.126 149.8C424.599 149.274 423.998 149.049 423.246 149.049H420.614C418.735 149.049 417.005 149.124 415.426 149.349C413.847 149.575 412.569 149.725 411.592 149.8V179.5H398.433V126.868H411.592V140.402Z" fill="#404040"/>
<path d="M468.736 150.553C465.578 150.553 462.345 151.305 458.961 152.808V179.501H445.803V139.65H457.457L458.209 144.538C462.495 140.778 467.007 138.898 471.744 138.898H475.127V150.553H468.736Z" fill="#404040"/>
<path d="M493.173 169.726C495.804 169.726 498.812 169.2 502.196 168.222V163.711H491.293C490.541 163.711 489.94 163.937 489.413 164.463C488.887 164.989 488.661 165.591 488.661 166.343V167.095C488.661 167.846 488.887 168.448 489.413 168.974C489.94 169.501 490.541 169.726 491.293 169.726H493.173ZM479.263 140.402C488.436 139.425 496.707 138.898 504.075 138.898C507.459 138.898 510.241 139.951 512.271 141.981C514.301 144.011 515.354 146.793 515.354 150.177V179.501H503.699L502.948 175.741C500.617 177.32 498.211 178.448 495.729 179.125C493.248 179.877 491.143 180.253 489.413 180.253H486.782C483.398 180.253 480.616 179.2 478.586 177.17C476.556 175.14 475.503 172.358 475.503 168.974V165.591C475.503 162.207 476.556 159.425 478.586 157.395C480.616 155.365 483.398 154.312 486.782 154.312H502.196V151.305C502.196 150.553 501.97 149.951 501.444 149.425C500.917 148.899 500.316 148.673 499.564 148.673C496.331 148.673 492.722 148.823 488.812 149.124C484.827 149.425 481.669 149.651 479.263 149.801V140.402Z" fill="#404040"/>
<path d="M550.317 179.5L549.565 175.741C547.235 177.32 544.828 178.448 542.347 179.124C539.791 179.876 537.761 180.252 536.031 180.252H532.648C529.264 180.252 526.482 179.2 524.452 177.17C522.422 175.139 521.369 172.357 521.369 168.974V151.68C521.369 147.921 522.422 144.988 524.602 142.808C526.708 140.702 529.64 139.65 533.4 139.65H548.814V126.868H561.972V179.5H550.317ZM539.791 169.35C542.422 169.35 545.43 168.823 548.814 167.846V149.8H537.535C535.505 149.8 534.527 150.778 534.527 152.808V166.718C534.527 167.47 534.753 168.072 535.279 168.598C535.806 169.124 536.407 169.35 537.159 169.35H539.791Z" fill="#404040"/>
<path d="M630.395 143.409C630.395 147.695 628.59 151.379 624.981 154.462C623.853 155.44 622.65 156.342 621.372 157.319L605.206 168.974H630.395V179.5H589.792V165.214L616.861 145.665V141.906C616.861 138.898 615.357 137.394 612.349 137.394H591.296V126.868H615.357C620.62 126.868 624.455 128.071 626.861 130.401C629.192 132.808 630.395 136.642 630.395 141.906V143.409Z" fill="#404040"/>
<path d="M666.486 141.153C666.486 138.146 664.982 136.642 661.975 136.642H653.704C650.696 136.642 649.192 138.146 649.192 141.153V165.214C649.192 168.222 650.696 169.726 653.704 169.726H661.975C664.982 169.726 666.486 168.222 666.486 165.214V141.153ZM680.02 165.214C680.02 170.477 678.817 174.312 676.486 176.643C674.08 179.049 670.246 180.252 664.982 180.252H650.696C645.433 180.252 641.598 179.049 639.192 176.643C636.861 174.312 635.658 170.477 635.658 165.214V141.153C635.658 135.89 636.861 132.055 639.192 129.649C641.598 127.318 645.433 126.115 650.696 126.115H664.982C670.246 126.115 674.08 127.318 676.486 129.649C678.817 132.055 680.02 135.89 680.02 141.153V165.214Z" fill="#404040"/>
<path d="M725.134 143.409C725.134 147.695 723.33 151.379 719.72 154.462C718.593 155.44 717.39 156.342 716.111 157.319L699.945 168.974H725.134V179.5H684.531V165.214L711.6 145.665V141.906C711.6 138.898 710.096 137.394 707.089 137.394H686.035V126.868H710.096C715.359 126.868 719.194 128.071 721.6 130.401C723.931 132.808 725.134 136.642 725.134 141.906V143.409Z" fill="#404040"/>
<path d="M756.714 180.252C748.368 180.252 739.044 179.726 728.894 178.749V168.598C739.946 169.35 748.217 169.726 753.706 169.726C754.834 169.726 755.812 169.35 756.488 168.748C757.165 167.996 757.466 167.094 757.466 165.966V162.959C757.466 159.951 755.962 158.447 752.954 158.447H737.164V147.921H751.451C754.458 147.921 755.962 146.417 755.962 143.409V141.906C755.962 138.898 754.458 137.394 751.451 137.394H729.645V126.868H755.21C760.097 126.868 763.707 127.995 766.037 130.176C768.368 132.432 769.496 135.815 769.496 140.402C769.496 143.409 768.819 145.815 767.466 147.695C766.037 149.575 764.233 150.928 761.977 151.68C766.037 152.808 768.819 155.515 770.248 159.801C770.774 161.38 771 163.184 771 165.214V165.966C771 170.854 769.872 174.463 767.541 176.794C765.21 179.124 761.601 180.252 756.714 180.252Z" fill="#404040"/>
<path fill-rule="evenodd" clip-rule="evenodd" d="M52.14 126.535L35.6078 126.536C32.0966 126.536 29.2493 123.689 29.2493 120.177V6.3592C29.2493 2.84738 32.0966 0.000656128 35.6078 0.000656128H118.269C121.781 0.000656128 124.627 2.84738 124.627 6.3592V22.8857H101.737V53.4067H75.0181V76.2975H101.737V103.644H52.14V126.535Z" fill="#2C677B"/>
<path fill-rule="evenodd" clip-rule="evenodd" d="M52.1401 126.535V197.751C52.1401 201.26 54.9894 204.109 58.4987 204.109L101.737 204.104V126.535H52.1401Z" fill="#E0B73B"/>
<path fill-rule="evenodd" clip-rule="evenodd" d="M174.224 126.53H190.768C194.277 126.53 197.126 123.681 197.126 120.171V29.2442C197.126 25.7349 194.277 22.8857 190.768 22.8857H124.627V53.4067H151.321V76.2974H124.627V103.644H174.224V126.53Z" fill="#BA5D3F"/>
<path fill-rule="evenodd" clip-rule="evenodd" d="M101.737 204.104V220.641C101.737 224.151 104.586 227 108.095 227H167.865C171.375 227 174.224 224.151 174.224 220.641V126.535H124.627V204.104H101.737Z" fill="#2A77A0"/>
<path d="M174.224 126.529H124.627V126.529L174.224 126.529Z" fill="white"/>
</svg>
