<?xml version="1.0" encoding="UTF-8"?><svg id="a" xmlns="http://www.w3.org/2000/svg" viewBox="0 0 98.27 90.71"><defs><style>.b{fill:#1d1d1b;}</style></defs><path class="b" d="M88.93,66.28l9.31-42.86c.1-.45-.01-.93-.3-1.29-.29-.36-.73-.57-1.2-.57H18.21L14.28,4.3c-.13-.55-.54-.99-1.09-1.14L1.94,.06C1.13-.17,.28,.31,.06,1.13c-.23,.82,.25,1.66,1.07,1.89l10.36,2.86,15.85,69.68c-2.59,1.33-4.39,4.01-4.39,7.12,0,4.43,3.6,8.03,8.03,8.03s8.03-3.6,8.03-8.03c0-1.88-.68-3.59-1.76-4.96h36.84c-1.09,1.37-1.76,3.08-1.76,4.96,0,4.43,3.6,8.03,8.03,8.03s8.03-3.6,8.03-8.03c0-4.12-3.14-7.5-7.15-7.94-.14-.04-.29-.09-.45-.09H30.28l-1.63-7.15h58.77c.72,0,1.35-.5,1.5-1.21h0Zm-52.98,16.39c0,2.74-2.23,4.96-4.96,4.96s-4.96-2.23-4.96-4.96,2.23-4.96,4.96-4.96,4.96,2.23,4.96,4.96h0Zm49.37,0c0,2.74-2.23,4.96-4.96,4.96s-4.96-2.23-4.96-4.96,2.23-4.96,4.96-4.96,4.96,2.23,4.96,4.96h0Zm5.52-39.69h-19.55l1.93-18.36h21.61l-3.99,18.36h0Zm-44.65,0l-1.93-18.36h25.86l-1.93,18.36h-22.01Zm21.69,3.07l-1.93,18.36h-17.51l-1.93-18.36h21.37Zm-26.7-21.43l1.93,18.36H23.08l-4.18-18.36h22.28Zm-17.4,21.43h19.65l1.93,18.36H27.95l-4.18-18.36h0Zm45.27,18.36l1.93-18.36h19.2l-3.99,18.36h-17.14Z"/></svg>