<svg xmlns="http://www.w3.org/2000/svg" viewBox="0 0 92.72 119.06"><path d="M25.701.301c-.634.387-.821.753-.821 1.604 0 .776.199 1.034 1.784 2.317 1.95 1.578 3.422 3.785 3.799 5.696.304 1.541.09 2.39-1.254 4.986-.663 1.28-1.401 2.918-1.64 3.64-.402 1.217-.435 1.495-.438 3.786-.003 2.311.025 2.554.427 3.709a11.588 11.588 0 0 0 2.872 4.564c2.346 2.33 4.4 2.797 5.169 1.176.517-1.089.147-1.946-1.163-2.698-1.562-.897-2.833-2.545-3.4-4.408-.269-.882-.31-1.331-.248-2.705.091-2.018.485-3.223 1.82-5.571 1.48-2.602 1.944-4.662 1.554-6.902-.55-3.158-3.099-6.891-6.054-8.863-1.068-.714-1.648-.794-2.407-.331m14.905 5.813c-.49.266-.891.957-.891 1.535 0 .601.343 1.144 1.321 2.087 1.116 1.077 2.249 2.784 2.61 3.932.203.646.26 1.192.208 1.994-.082 1.24-.361 1.86-1.739 3.855-1.92 2.781-2.643 6.011-2.012 8.99.451 2.128 1.892 4.507 3.431 5.666 1.031.776 1.325.906 2.041.906 1.146 0 1.956-1.172 1.65-2.39-.059-.234-.479-.692-1.019-1.112-2.675-2.077-3.377-5.549-1.766-8.729.22-.434.837-1.429 1.371-2.212 1.345-1.97 1.666-2.865 1.749-4.874.078-1.91-.16-3.029-.999-4.699-.941-1.871-2.096-3.367-3.503-4.534-.646-.537-.904-.656-1.41-.651-.341.004-.81.11-1.042.236M1.441 43.495c-.745.324-.976.821-1.165 2.503-.23 2.051-.222 11.144.013 14.115 1.174 14.834 4.449 28.334 10.151 41.841 2.51 5.947 7.892 16.193 8.799 16.752.445.274 1.128.284 16.407.247l15.943-.04.412-.386c.893-.838 5.398-9.313 7.598-14.294.6-1.36 1.457-3.377 1.903-4.482l.811-2.009 2.602-1.373c10.95-5.781 19.784-12.843 24.108-19.274 1.675-2.491 2.866-5.214 3.408-7.787.27-1.281.229-4.526-.075-5.949-.136-.64-.568-1.809-.964-2.611-2.515-5.094-8.631-7.702-17.757-7.571l-2.627.037-.096-3.62c-.131-4.987-.258-5.59-1.273-6.072-.487-.232-3.345-.252-34.12-.247-28.218.005-33.666.041-34.078.22m65.698 9.278c-.007 6.734-.284 10.467-1.246 16.767a131.142 131.142 0 0 1-14.625 43.131l-1.431 2.604-14.299.003-14.299.004-1.261-2.28a130.197 130.197 0 0 1-15.971-53.97c-.196-2.766-.253-11.597-.078-11.88.079-.129 8.374-.164 31.662-.136l31.554.039-.006 5.718m12.486 4.471c4.178.783 7.181 2.586 8.434 5.066 1.417 2.801 1.18 6.489-.656 10.243-2.221 4.541-6.765 9.23-13.729 14.167-2.831 2.008-9.143 5.833-9.324 5.652-.047-.047.235-1.082.627-2.3 2.942-9.135 5.142-20.511 5.72-29.572.211-3.298.237-3.454.596-3.534.791-.176 7.019.032 8.332.278" fill-rule="evenodd"/></svg>