<svg xmlns="http://www.w3.org/2000/svg" viewBox="0 0 77.34 113.39"><path d="m29.745 9.249-.034 9.248-8.604.033-8.604.033v18.043l8.604.033 8.604.033.034 4.415.034 4.415H0V63.677h29.776v49.626h17.788V63.677H77.34V45.502H47.561l.034-4.415.034-4.415 8.604-.033 8.604-.033V18.563l-8.604-.033-8.604-.033-.034-9.248L47.562 0H29.778l-.033 9.249m14.983 2.931v9.216l8.604.033 8.604.033V33.707l-8.604.033-8.604.034v14.692h29.647v12.246H44.728V110.467H32.612V60.712H2.965V48.466h29.647V33.774l-8.604-.034-8.604-.033V21.462l8.604-.033 8.604-.033V2.965h12.116v9.215" fill-rule="evenodd"/></svg>