<svg xmlns="http://www.w3.org/2000/svg" viewBox="0 0 108.43 108.43"><path d="m50.872.105-2.711.269c-6.676.666-14.464 3.156-20.393 6.521C15.129 14.068 6.069 25.532 2.077 39.402 1.386 41.8.674 45.404.327 48.251c-.302 2.473-.296 9.481.009 12.018 1.942 16.125 10.54 30.192 23.88 39.068 7.071 4.705 14.738 7.542 23.403 8.662 2.985.385 9.852.438 12.65.098 16.162-1.97 30.177-10.537 39.07-23.883 4.681-7.024 7.53-14.722 8.663-23.403.42-3.217.42-9.973 0-13.192-2.066-15.851-10.354-29.386-23.428-38.26C77.42 4.503 69.758 1.608 60.992.448c-2.064-.273-8.583-.494-10.12-.343m9.126 3.246c8.547.937 16.89 4.126 23.855 9.116 12.125 8.688 19.844 21.963 21.317 36.662.395 3.935.198 9.756-.461 13.67-1.414 8.392-5.009 16.425-10.42 23.286-1.84 2.332-6.221 6.697-8.449 8.417-7.788 6.012-16.213 9.465-25.841 10.592-2.941.344-8.668.339-11.651-.01-9.214-1.078-17.557-4.432-25.126-10.102-2.813-2.107-7.617-6.908-9.716-9.709C7.779 77.634 4.44 69.358 3.343 60.087c-.36-3.044-.36-8.697 0-11.738 1.414-11.951 6.599-22.458 15.215-30.825 5.057-4.912 10.074-8.196 16.501-10.798 7.887-3.194 16.26-4.327 24.939-3.375m-7.274 23.793c-.948.252-2.389 1.598-2.765 2.583-.452 1.184-.297 2.717.386 3.822 1.847 2.987 6.611 2.631 7.959-.594.136-.328.248-1.095.248-1.706 0-2.966-2.77-4.917-5.828-4.105m.289 17.671c-2.216 1.04-3.949 1.586-6.464 2.036l-2.273.406v2.982h6.698l-.051 12.967-.051 12.966-.394.633c-.704 1.129-1.297 1.344-3.898 1.417l-2.304.065v3.216h19.878V78.25l-1.942-.001c-1.069 0-2.241-.084-2.606-.185-.804-.223-1.688-1.183-1.947-2.113-.125-.452-.189-5.95-.19-16.269l-.001-15.587-1.491.014c-1.336.012-1.644.085-2.964.706" fill-rule="evenodd"/></svg>