<?xml version="1.0" encoding="UTF-8"?><svg id="a" xmlns="http://www.w3.org/2000/svg" viewBox="0 0 110.4 110.69"><defs><style>.b{fill:none;stroke:#1d1d1b;stroke-linecap:square;stroke-miterlimit:10;stroke-width:3px;}</style></defs><path class="b" d="M84.49,12.79L1.5,95.56V1.5H95.81l-4.1,4.09M23.35,52.67l-6.9,6.88V16.41H59.72l-29.68,29.6m-1.65,16.14l3.31,3.3m5.03-11.61l3.31,3.3m-19.98,13.33l3.31,3.3m-11.65,5.02l3.31,3.3m30.05-36.56l3.31,3.3m5.03-11.61l3.31,3.3m5.03-11.61l3.31,3.3m5.03-11.61l3.31,3.3m5.03-11.61l3.31,3.3M26.65,107.69l-3.63,.92,4.73-18.49L90.64,27.4m13.81,13.77l-62.9,62.73-7.82,1.99M95.32,32.06l9.14,9.11m0,0l2.82-2.82c2.17-2.16,2.17-5.68,0-7.84l-5.95-5.94c-2.17-2.16-5.69-2.16-7.86,0l-2.82,2.82m6.91,6.89l-56.42,56.26m-11.54,.97l6.39,6.38"/></svg>