<?xml version="1.0" encoding="UTF-8"?><svg id="a" xmlns="http://www.w3.org/2000/svg" viewBox="0 0 52.15 112.39"><defs><style>.b{fill:none;stroke:#1d1d1b;stroke-linecap:round;stroke-linejoin:round;stroke-width:3px;}</style></defs><path class="b" d="M22.56,8.56H12.03c-1.94,0-3.51-1.58-3.51-3.53h0c0-1.95,1.57-3.53,3.51-3.53h10.53c1.94,0,3.51,1.58,3.51,3.53h0c0,1.95-1.57,3.53-3.51,3.53h0Zm0,63.51v-10.59H1.5v28.23H22.56v-9.66m27.97-14.3l-3.21-25.44H18.87l-3.21,25.44c-.23,1.84-.12,3.71,.34,5.51,1.69,6.69,8.39,11.39,15.35,11.39h3.51c6.96,0,13.66-4.7,15.35-11.39,.45-1.8,.57-3.67,.34-5.51h0Zm-17.44,16.9v24.7c0,1.95,1.57,3.53,3.51,3.53h-7.02m-2.74-70.56c-2.81-5.34-4.28-11.3-4.28-17.36V8.56H12.03v14.41c0,6.73-1.82,13.34-5.27,19.11h0c-3.45,5.77-5.27,12.38-5.27,19.11v46.17c0,1.95,1.57,3.53,3.51,3.53H29.59c1.94,0,3.51-1.58,3.51-3.53m-16.86-35.29H49.96"/></svg>