<?xml version="1.0" encoding="UTF-8"?><svg id="a" xmlns="http://www.w3.org/2000/svg" viewBox="0 0 102.56 90.71"><defs><style>.b{fill:#12110c;}</style></defs><path class="b" d="M100.96,0H1.6C.72,0,0,.72,0,1.6V40.14c0,.89,.72,1.6,1.6,1.6H27.86v47.37c0,.89,.72,1.6,1.6,1.6h43.64c.88,0,1.6-.72,1.6-1.6V41.74h26.25c.89,0,1.6-.72,1.6-1.6V1.6c0-.89-.72-1.6-1.6-1.6h0Zm-29.46,87.5H31.06V24.22h2.06v50s0,.03,.01,.05c0,.02-.01,.03-.01,.05,0,.89,.72,1.6,1.6,1.6,4.76,0,8.63,3.87,8.63,8.63,0,.89,.72,1.6,1.6,1.6,.03,0,.05-.01,.08-.02,.03,0,.05,.02,.08,.02h12.35s.04-.01,.07-.01c.02,0,.04,.01,.07,.01,.88,0,1.6-.72,1.6-1.6,0-4.76,3.87-8.63,8.63-8.63,.89,0,1.6-.72,1.6-1.6,0-.05-.02-.1-.03-.15,0-.05,.03-.09,.03-.15V24.22h2.06v63.28h0Zm-5.27-14.67c-5.24,.71-9.4,4.87-10.11,10.11h-9.68c-.71-5.24-4.87-9.39-10.11-10.11V24.22h29.9v48.61h0Zm33.12-34.3h-24.65v-14.31h12.84c.89,0,1.6-.72,1.6-1.6s-.72-1.6-1.6-1.6H15.02c-.89,0-1.6,.72-1.6,1.6s.72,1.6,1.6,1.6h12.84v14.31H3.2V3.2H99.35V38.53h0Z"/><path class="b" d="M42.67,48.47c0,.89,.72,1.6,1.6,1.6h.03c.04,.1,.06,.21,.11,.3,.55,1.14,1.58,1.94,2.83,2.21,.3,.06,.6,.09,.89,.09,.99,0,1.95-.35,2.72-1,.77-.65,1.41-1.5,1.88-2.54h0c.27-.6,.62-1.08,1.03-1.42,.25-.21,.57-.29,.88-.22,.19,.04,.46,.16,.61,.47,.08,.17,.13,.35,.13,.54,.01,.66-.5,1.26-1.18,1.36-.87,.14-1.47,.95-1.34,1.83,.12,.79,.81,1.36,1.58,1.36,.08,0,.17,0,.25-.02,1.7-.26,3.06-1.44,3.62-2.97,.87-.02,1.56-.72,1.56-1.59s-.72-1.6-1.6-1.6h-.03c-.04-.1-.06-.2-.11-.3-.55-1.14-1.58-1.94-2.82-2.21-1.29-.27-2.6,.05-3.62,.9-.77,.65-1.41,1.51-1.88,2.54h0c-.27,.6-.62,1.08-1.03,1.42-.25,.21-.57,.29-.88,.22-.19-.04-.46-.16-.61-.47-.08-.17-.13-.35-.13-.54-.01-.66,.5-1.26,1.18-1.37,.87-.14,1.47-.95,1.34-1.83-.14-.87-.97-1.48-1.83-1.34-1.7,.26-3.06,1.44-3.62,2.97-.87,.02-1.57,.72-1.57,1.6h0Z"/><path class="b" d="M51.28,61.02c6.92,0,12.55-5.63,12.55-12.55s-5.63-12.55-12.55-12.55-12.55,5.63-12.55,12.55,5.63,12.55,12.55,12.55h0Zm0-21.9c5.15,0,9.35,4.19,9.35,9.34s-4.19,9.35-9.35,9.35-9.34-4.19-9.34-9.35,4.19-9.34,9.34-9.34h0Z"/></svg>