<svg xmlns="http://www.w3.org/2000/svg" viewBox="0 0 102.56 90.71"><path d="M.873.239c-.898.498-.86-.41-.867 20.756L0 40.708l.5.5.499.5h26.863v23.853c0 25.418-.025 24.62.777 24.927.362.139 44.92.139 45.282 0 .802-.307.777.491.777-24.927V41.708h26.863l.499-.5.5-.5V21.029c0-21.384.045-20.378-.935-20.825C100.93-.112 1.445-.078.873.239m98.439 20.7v17.692H74.698V24.273h13.359l.5-.5c.689-.69.689-1.559 0-2.249l-.5-.499H14.556l-.526.442c-.732.616-.743 1.59-.027 2.306l.5.5h13.359v14.358H3.248V3.248h96.064v17.691M33.161 49.477c0 18.111.053 25.322.19 25.621.255.56.66.722 2.369.946 4.012.527 7.022 3.538 7.54 7.542.22 1.701.387 2.117.953 2.375.283.128 2.579.189 7.151.189h6.734l.454-.39c.389-.334.489-.627.691-2.009.629-4.292 3.451-7.112 7.757-7.752 1.379-.205 1.675-.308 2.008-.695l.391-.454V24.273h2.051V87.518H31.11V24.273h2.051v25.204m33.161-.935v24.269l-.47.104c-3.078.678-5.351 2.011-7.163 4.2-.994 1.201-2.062 3.372-2.343 4.762l-.224 1.111h-9.684l-.224-1.111c-.281-1.39-1.349-3.561-2.343-4.762-1.812-2.189-4.085-3.522-7.163-4.2l-.47-.104V24.273h30.084v24.269M49.88 36.076c-4.277.492-7.896 3.048-9.807 6.929-1.028 2.086-1.326 3.559-1.225 6.053.062 1.53.181 2.269.539 3.333.86 2.557 2.413 4.701 4.464 6.165 4.581 3.269 10.277 3.269 14.858 0 2.04-1.456 3.582-3.578 4.477-6.165.431-1.244.474-1.59.48-3.846.008-2.806-.256-3.93-1.42-6.045-2.433-4.425-7.383-6.996-12.366-6.424m4.542 3.638c3.044 1.11 5.339 3.746 6.008 6.902.31 1.466.309 2.226-.007 3.724a9.215 9.215 0 0 1-2.329 4.442c-1.924 2.057-4.056 2.993-6.814 2.993s-4.89-.936-6.814-2.993c-5.047-5.395-2.089-14.105 5.276-15.532 1.052-.203 3.519.041 4.68.464m-7.479 4.467c-.915.326-1.827 1.098-2.302 1.948-.252.451-.609.802-.969.953-1.091.456-1.309 1.805-.413 2.559.29.243.634.442.765.442s.351.218.489.483c.361.7 1.493 1.665 2.24 1.911.796.263 2.557.143 3.263-.222.84-.434 1.824-1.538 2.545-2.854.729-1.33 1.28-1.882 1.878-1.882.773 0 1.229 1.097.73 1.755-.118.155-.561.428-.986.607-.424.18-.884.462-1.021.628-.399.481-.316 1.536.16 2.043 1.026 1.092 3.679.047 4.644-1.828.181-.352.449-.641.595-.641.147 0 .491-.224.766-.499.856-.856.572-2.24-.519-2.532-.321-.085-.689-.425-1.061-.978-.789-1.174-1.877-1.72-3.399-1.708-.901.008-1.284.101-1.899.461-.992.582-1.836 1.523-2.529 2.823-.303.57-.733 1.206-.955 1.414-.779.733-1.787.34-1.787-.696 0-.529.354-.889 1.389-1.412 1.242-.626 1.481-1.709.577-2.614-.474-.474-1.179-.526-2.201-.161" fill-rule="evenodd"/></svg>