<svg xmlns="http://www.w3.org/2000/svg" viewBox="0 0 95.38 95.38"><path d="M44.749.092c-3.391.333-4.398.465-6.12.804C26.801 3.219 16.671 9.603 9.373 19.332c-4.908 6.544-8.036 14.5-9.086 23.112-.262 2.152-.262 8.34 0 10.492 1.05 8.612 4.175 16.561 9.086 23.113 8.083 10.782 19.572 17.398 33.071 19.044 2.175.265 8.34.26 10.571-.009 6.346-.764 12.769-2.83 17.939-5.771 12.29-6.99 20.804-18.69 23.467-32.244.692-3.524.874-5.473.874-9.379 0-3.906-.182-5.855-.874-9.379-2.446-12.45-9.926-23.49-20.712-30.566C67.773 3.851 60.861 1.316 53.651.391 51.82.155 46.07-.037 44.749.092m6.995 3.091c7.424.688 14.773 3.283 20.695 7.309 1.738 1.182 2.023 1.642 2.018 3.259-.003 1.152-.395 1.993-1.466 3.147-1.64 1.766-3.803 2.697-6.909 2.972-2.749.243-2.484.331-3.211-1.065-3.84-7.376-9.243-12.586-15.976-15.405l-.874-.366 1.987-.007a47.845 47.845 0 0 1 3.736.156M37.73 4.531c.314.131.993.238 1.509.238 2.269 0 5.949 1.009 8.569 2.348 2.232 1.142 4.22 2.618 6.251 4.643 2.395 2.387 3.356 3.656 5.711 7.541l.377.622-1.896-.105c-4.063-.223-8.004-1.125-15.166-3.469-3.969-1.3-6.144-1.786-9.182-2.052-6.557-.574-13.803 1.157-19.576 4.678-.82.5-1.515.885-1.544.856-.099-.1 2.891-3.37 4.238-4.636 5.133-4.821 10.838-8.133 17.713-10.282 2.215-.693 2.245-.696 2.996-.382m41.774 11.803c4.627 4.765 7.781 9.702 10.032 15.698.778 2.071 1.44 4.263 1.264 4.183-.06-.028-.682-.328-1.381-.667-4.527-2.198-10.825-3.525-18.599-3.92-1.836-.093-3.381-.219-3.433-.28-.052-.061-.329-1.041-.615-2.178a56.464 56.464 0 0 0-1.217-4.047c-.383-1.09-.697-2.038-.697-2.107 0-.068.34-.125.755-.125 1.078-.001 3.459-.411 4.532-.781 2.184-.752 4.429-2.267 5.562-3.753.776-1.018 1.531-2.518 1.654-3.287.053-.332.149-.604.213-.604s.933.841 1.93 1.868m-44.742 1c2.262.302 4.122.771 7.79 1.964 7.727 2.513 11.541 3.329 16.552 3.541l2.433.102.24.571c.766 1.822 2.446 7.204 2.446 7.838 0 .248-.152.284-1.183.284-2.025 0-9.048.637-13.283 1.204C30.036 35.48 15.278 41.797 4.75 52.103l-1.371 1.342-.095-.533c-.053-.293-.144-1.963-.202-3.712-.246-7.35 1.045-13.755 4.124-20.467.494-1.075.618-1.232.978-1.232.306 0 .852-.416 2.106-1.609 2.021-1.923 2.838-2.585 4.732-3.837 3.499-2.313 8.187-4.042 12.588-4.641 1.924-.262 5.488-.302 7.152-.08M65.126 35.75c.361 2.165.699 5.482.796 7.811l.096 2.31-1.474.282c-4.76.913-8.519 3.033-12.57 7.09-.835.837-3.207 3.496-5.272 5.91-4.424 5.172-5.901 6.75-8.289 8.854-2.838 2.5-4.805 3.897-7.851 5.575-3.961 2.183-9.243 4.033-14.109 4.942l-.954.178-.775-.841C9.76 72.471 6.115 65.665 4.298 58.395c-.265-1.063-.483-1.999-.483-2.08 0-.081.211-.147.469-.147.357 0 .746-.254 1.63-1.064 3.698-3.391 4.459-4.056 5.84-5.098 10.876-8.215 24.409-12.857 43.089-14.781 1.974-.203 3.467-.324 7.79-.63a19.922 19.922 0 0 1 1.506-.035l.791.015.196 1.175m9.747-.853c7.068.782 13.125 2.668 15.994 4.979 1.051.846 1.06.871 1.321 3.681.332 3.56.179 7.891-.404 11.445-.903 5.503-3.226 11.713-6.007 16.056l-.559.874.094-2.305c.113-2.746-.133-6.004-.656-8.676-1.758-8.992-6.914-14.393-14.403-15.089l-1.204-.112-.192-3.044c-.106-1.674-.298-3.831-.427-4.792-.129-.962-.281-2.136-.338-2.609l-.104-.86 2.37.107c1.303.059 3.335.215 4.515.345m-2.782 14.301c3.976 1.045 6.969 4.043 8.614 8.629 1.108 3.089 1.634 6.403 1.634 10.29-.001 3.844-.341 6.226-1.233 8.634-.397 1.073-.566 1.295-2.182 2.867-7.741 7.53-17.043 11.727-28.055 12.658l-1.033.088 1.272-.612c4.847-2.332 8.819-6.656 11.929-12.984 2.03-4.131 3.375-8.255 4.433-13.592.904-4.557 1.522-10.469 1.522-14.558v-1.861l1.073.095c.59.052 1.502.208 2.026.346m-6.04 1.791c-.391 8.44-1.346 14.509-3.183 20.228C60.1 79.841 55.54 86.182 50.154 88.9c-1.744.88-4.423 1.548-6.218 1.551-.954.001-1.651.439-1.651 1.036 0 .208-.071.421-.158.475-.21.13-3.527-.449-5.501-.96-6.124-1.585-11.867-4.443-16.732-8.327-.906-.722-1.586-1.365-1.511-1.428.075-.063.852-.282 1.726-.486 6.335-1.477 13.272-4.795 18.122-8.67 3.566-2.848 5.38-4.711 11.226-11.525 5.832-6.799 7.921-8.62 11.904-10.383 1.133-.501 3.636-1.201 4.34-1.213l.445-.008-.095 2.027" fill-rule="evenodd"/></svg>