<svg xmlns="http://www.w3.org/2000/svg" viewBox="0 0 107.23 50.77"><path d="M0 25.378v25.378h3.217V34.85h100.796v15.906h3.217V0h-3.217V31.633H3.217V0H0v25.378M17.782 5.974c-3.745.875-6.842 3.761-7.877 7.34-.441 1.53-.401 4.28.085 5.822.371 1.175 1.339 2.806 2.285 3.847 2.548 2.805 6.665 4.049 10.621 3.21 3.438-.728 6.831-3.776 7.859-7.057.512-1.635.512-4.468 0-6.103-.933-2.978-3.593-5.654-6.699-6.739-1.585-.554-4.61-.708-6.274-.32m25.337.002c-3.369.816-6.343 3.703-7.469 7.249-.263.829-.325 1.94-.398 7.104l-.086 6.121H97.793l-.083-6.121c-.09-6.599-.129-6.912-1.131-8.98-.788-1.629-3.016-3.803-4.719-4.606-.737-.348-1.766-.72-2.287-.828-1.453-.301-45.198-.244-46.454.061M22.803 9.227c1.101.307 2.249 1.016 3.169 1.958 3.221 3.298 2.547 8.403-1.445 10.944-1.819 1.158-4.649 1.474-6.735.752-1.27-.439-1.692-.703-2.835-1.772-2.93-2.741-3.02-7.055-.206-9.901 2.139-2.164 4.932-2.851 8.052-1.981m65.54-.297c2.826.462 5.105 2.459 5.911 5.176.228.771.287 1.83.287 5.138v4.168H38.424v-4.073c0-4.594.15-5.529 1.133-7.061 1.129-1.76 2.966-3.01 4.904-3.337 1.231-.207 42.621-.218 43.882-.011" fill-rule="evenodd"/></svg>