<?xml version="1.0" encoding="UTF-8"?><svg id="a" xmlns="http://www.w3.org/2000/svg" viewBox="0 0 107.23 50.77"><defs><style>.b{fill:#fff;}.c{fill:none;stroke:#1d1d1b;stroke-miterlimit:10;stroke-width:3.17px;}</style></defs><path class="c" d="M1.58,0V50.77m0-17.55H107.23M105.64,0V50.77M45.68,7.24c-4.88,0-8.83,3.96-8.83,8.83v8.83h59.29v-8.83c0-4.88-3.96-8.83-8.83-8.83H45.68Z"/><path class="b" d="M20.36,24.91c5.12,0,9.27-3.96,9.27-8.83s-4.15-8.83-9.27-8.83-9.27,3.96-9.27,8.83,4.15,8.83,9.27,8.83h0Z"/><path class="c" d="M20.36,24.91c5.12,0,9.27-3.96,9.27-8.83s-4.15-8.83-9.27-8.83-9.27,3.96-9.27,8.83,4.15,8.83,9.27,8.83h0Z"/></svg>