<svg xmlns="http://www.w3.org/2000/svg" viewBox="0 0 78.48 101.77"><path d="M20.969.123c-3.538.565-6.841 2.898-8.774 6.196l-.598 1.022-.861-.106c-2.148-.265-4.32.112-5.845 1.015-1.095.648-2.712 2.235-3.378 3.314-1.775 2.879-1.967 6.442-.517 9.611l.443.967.002 36.769c.002 31.433.03 36.898.19 37.655.521 2.458 2.546 4.483 5.005 5.004.751.159 4.725.188 26.269.19 17.676.002 25.619-.041 26.16-.139 2.147-.392 4.053-2.003 4.927-4.161.291-.721.297-.847.362-7.47l.065-6.736 4.578-.066c4.394-.063 4.606-.077 5.28-.363 1.417-.602 2.845-1.908 3.501-3.202.715-1.412.697-.865.7-21.033.001-12.838-.042-18.89-.14-19.424-.447-2.447-2.672-4.709-5.075-5.157-.388-.073-2.551-.132-4.807-.132h-4.102V22.269l.466-1.024c.761-1.67 1.014-2.978.933-4.83-.078-1.795-.296-2.721-.948-4.019-.929-1.852-2.286-3.264-4.079-4.246-1.374-.752-2.505-1.017-4.286-1.005-1.6.012-2.936.356-4.182 1.077l-.651.377-.51-.322c-1.292-.816-3.494-1.311-5.114-1.152-.96.095-2.581.567-3.331.97l-.446.24-.927-.422c-.51-.232-1.192-.486-1.516-.564-1.671-.403-3.66-.29-5.11.289l-.727.291-.575-1.096C31.753 3.781 28.869 1.38 25.696.459c-1.289-.374-3.503-.532-4.727-.336m3.672 3.143c1.455.372 2.689 1.072 3.9 2.211 1.671 1.572 2.434 2.867 3.245 5.51.232.756.467 1.423.522 1.483.055.059.589-.254 1.186-.697 1.847-1.369 2.962-1.782 4.497-1.664 1.412.108 2.116.417 3.951 1.736.266.191.323.172.981-.329 1.695-1.291 3.383-1.702 5.123-1.249 1.031.269 1.703.629 2.731 1.466l.877.713.791-.659c1.059-.881 1.743-1.263 2.706-1.51 3.214-.823 6.434 1.202 7.437 4.676.264.915.28 2.775.031 3.621l-.173.588-16.289.033-16.288.034.628 3.89c.989 6.125.982 6.057.709 6.923-.304.962-1.295 1.991-2.226 2.308-.831.283-2.324.283-3.155 0-1.289-.439-2.427-2.003-2.403-3.303.004-.257.345-2.557.757-5.111l.748-4.643-10.75-.033-10.751-.034-.155-.424c-.086-.234-.186-.925-.222-1.536-.127-2.102.552-3.893 2.037-5.372 1.875-1.867 4.13-2.28 6.67-1.222.62.258 1.216.496 1.324.529.145.044.316-.256.654-1.147.717-1.888 1.451-3.035 2.797-4.367.838-.829 1.473-1.326 2.136-1.673 1.891-.986 4.007-1.251 5.974-.748M21.41 22.53c-.038.162-.29 1.676-.559 3.364-.445 2.788-.477 3.159-.351 4.035.375 2.604 2.533 4.912 5.102 5.456a9.137 9.137 0 0 0 3.602 0c2.579-.546 4.725-2.843 5.102-5.46.127-.88.095-1.253-.344-4.035a182.2 182.2 0 0 0-.549-3.36l-.064-.294H61.476v67.493H4.447V22.236H21.48l-.07.294m-5.322 14.003c-1.189.344-2.383 1.389-2.925 2.56l-.279.605v37.67l.307.679c.429.948 1.574 2.011 2.571 2.385 2.139.803 4.623-.197 5.689-2.291l.327-.642V39.567l-.348-.66c-.469-.887-1.335-1.732-2.171-2.117-.84-.387-2.308-.506-3.171-.257m15.566 0c-1.192.344-2.287 1.299-2.886 2.516l-.319.649v37.67l.307.679c.428.947 1.574 2.01 2.571 2.386 1.094.413 2.572.341 3.578-.174.855-.438 1.674-1.26 2.111-2.118l.327-.642.034-18.826.034-18.826-.373-.794c-.461-.981-1.307-1.846-2.214-2.263-.84-.387-2.308-.506-3.17-.257m15.564.007c-1.203.35-2.285 1.291-2.885 2.509l-.319.649v37.67l.361.734c.487.992 1.533 1.96 2.52 2.332 1.091.412 2.571.339 3.575-.175.856-.438 1.724-1.308 2.133-2.139l.306-.621.034-18.826.034-18.826-.382-.815c-.46-.984-1.277-1.814-2.206-2.242-.838-.386-2.303-.502-3.171-.25m26.184.65c.641.319 1.351 1.023 1.711 1.698l.293.548.035 18.895c.038 20.959.093 19.57-.827 20.646-.252.293-.794.699-1.206.901l-.749.368h-8.24l-.033-21.685-.033-21.686 4.284.038c3.842.034 4.334.063 4.765.277M18.3 39.707c.22.186.462.553.539.818.096.333.127 5.993.1 18.378L18.901 76.8l-.489.447c-.409.375-.587.448-1.092.448-.512 0-.671-.067-1.048-.445l-.445-.444V40.322l.279-.356c.54-.686 1.545-.804 2.194-.259m15.565 0c.22.186.462.553.539.818.096.332.127 6.013.1 18.378L34.466 76.8l-.489.447c-.408.375-.587.448-1.092.448-.512 0-.671-.067-1.05-.446l-.446-.446.034-18.31c.034-18.101.037-18.313.296-18.601.558-.62 1.529-.703 2.146-.185m15.565 0c.22.186.463.553.539.818.096.332.127 6.013.101 18.378L50.031 76.8l-.489.447c-.408.375-.587.448-1.092.448-.512 0-.671-.067-1.048-.445l-.445-.444V58.685c0-11.454.047-18.243.128-18.455.312-.823 1.637-1.118 2.345-.523m12.007 54.567c-.042.845-.138 1.738-.212 1.983-.301.996-1.23 1.917-2.325 2.308-.412.147-4.871.179-25.966.183-25.115.006-25.478.002-26.164-.254-.884-.331-1.723-1.173-2.065-2.071-.202-.534-.258-1.003-.258-2.183v-1.503h57.067l-.077 1.537" fill-rule="evenodd"/></svg>