<?xml version="1.0" encoding="UTF-8"?><svg id="a" xmlns="http://www.w3.org/2000/svg" viewBox="0 0 78.48 101.77"><defs><style>.b{fill:#fff;}.c{fill:none;stroke:#1d1d1b;stroke-miterlimit:10;stroke-width:3px;}</style></defs><path class="b" d="M22.13,35.35c-2.82,0-5.1,2.28-5.1,5.1v36.21c0,2.82,2.28,5.1,5.1,5.1h49.75c2.82,0,5.1-2.28,5.1-5.1V40.45c0-2.82-2.29-5.1-5.1-5.1H22.13Z"/><path class="c" d="M22.13,35.35c-2.82,0-5.1,2.28-5.1,5.1v36.21c0,2.82,2.28,5.1,5.1,5.1h49.75c2.82,0,5.1-2.28,5.1-5.1V40.45c0-2.82-2.29-5.1-5.1-5.1H22.13Z"/><path class="b" d="M8.05,10.46c-2.82,0-5.1,2.28-5.1,5.1V95.16c0,2.82,2.28,5.1,5.1,5.1H57.8c2.82,0,5.1-2.28,5.1-5.1V15.57c0-2.82-2.28-5.1-5.1-5.1H8.05Z"/><path class="c" d="M8.05,10.46c-2.82,0-5.1,2.28-5.1,5.1V95.16c0,2.82,2.28,5.1,5.1,5.1H57.8c2.82,0,5.1-2.28,5.1-5.1V15.57c0-2.82-2.28-5.1-5.1-5.1H8.05ZM63.76,91.22H3.2"/><path class="b" d="M64.35,16.89c0-4.59-3.49-8.31-7.79-8.31-1.87,0-3.57,.73-4.91,1.91-1.34-1.17-3.04-1.91-4.91-1.91-1.7,0-3.26,.6-4.54,1.59-1.28-.99-2.84-1.59-4.54-1.59s-3.26,.6-4.54,1.58c-1.49-5.03-5.6-8.66-10.48-8.66-4.59,0-8.54,3.21-10.23,7.79-.96-.45-2.01-.7-3.12-.7-4.3,0-7.79,3.72-7.79,8.31,0,1.39,.35,2.68,.91,3.83H23.19l-1.3,8.14c0,2.87,2.32,5.2,5.19,5.2h.65c2.87,0,5.19-2.33,5.19-5.2l-1.3-8.14h31.81c.56-1.15,.91-2.44,.91-3.83h0Z"/><path class="c" d="M64.35,16.89c0-4.59-3.49-8.31-7.79-8.31-1.87,0-3.57,.73-4.91,1.91-1.34-1.17-3.04-1.91-4.91-1.91-1.7,0-3.26,.6-4.54,1.59-1.28-.99-2.84-1.59-4.54-1.59s-3.26,.6-4.54,1.58c-1.49-5.03-5.6-8.66-10.48-8.66-4.59,0-8.54,3.21-10.23,7.79-.96-.45-2.01-.7-3.12-.7-4.3,0-7.79,3.72-7.79,8.31,0,1.39,.35,2.68,.91,3.83H23.19l-1.3,8.14c0,2.87,2.32,5.2,5.19,5.2h.65c2.87,0,5.19-2.33,5.19-5.2l-1.3-8.14h31.81c.56-1.15,.91-2.44,.91-3.83h0Z"/><path class="b" d="M17.35,37.85c-1.69,0-3.06,1.37-3.06,3.06v35.28c0,1.69,1.37,3.06,3.06,3.06h0c1.69,0,3.06-1.37,3.06-3.06V40.91c0-1.69-1.37-3.06-3.06-3.06h0Z"/><path class="c" d="M17.35,37.85c-1.69,0-3.06,1.37-3.06,3.06v35.28c0,1.69,1.37,3.06,3.06,3.06h0c1.69,0,3.06-1.37,3.06-3.06V40.91c0-1.69-1.37-3.06-3.06-3.06h0Z"/><path class="b" d="M32.92,37.85c-1.69,0-3.06,1.37-3.06,3.06v35.28c0,1.69,1.37,3.06,3.06,3.06h0c1.69,0,3.06-1.37,3.06-3.06V40.91c0-1.69-1.37-3.06-3.06-3.06h0Z"/><path class="c" d="M32.92,37.85c-1.69,0-3.06,1.37-3.06,3.06v35.28c0,1.69,1.37,3.06,3.06,3.06h0c1.69,0,3.06-1.37,3.06-3.06V40.91c0-1.69-1.37-3.06-3.06-3.06h0Z"/><path class="b" d="M48.49,37.85c-1.69,0-3.06,1.37-3.06,3.06v35.28c0,1.69,1.37,3.06,3.06,3.06h0c1.69,0,3.06-1.37,3.06-3.06V40.91c0-1.69-1.37-3.06-3.06-3.06h0Z"/><path class="c" d="M48.49,37.85c-1.69,0-3.06,1.37-3.06,3.06v35.28c0,1.69,1.37,3.06,3.06,3.06h0c1.69,0,3.06-1.37,3.06-3.06V40.91c0-1.69-1.37-3.06-3.06-3.06h0Z"/></svg>