<?xml version="1.0" encoding="UTF-8"?><svg id="a" xmlns="http://www.w3.org/2000/svg" viewBox="0 0 88.23 90.71"><defs><style>.b{fill:#1d1d1b;}</style></defs><path class="b" d="M83.16,26.7h-28.14V5.43c0-2.99-2.43-5.43-5.42-5.43h-10.97c-2.99,0-5.43,2.43-5.43,5.43V26.7H5.07c-2.79,0-5.07,2.27-5.07,5.07v53.87c0,2.8,2.27,5.07,5.07,5.07H83.16c2.79,0,5.07-2.27,5.07-5.07V31.77c0-2.79-2.27-5.07-5.07-5.07h0ZM36.04,5.43c0-1.43,1.16-2.59,2.59-2.59h10.97c1.43,0,2.59,1.16,2.59,2.59V29.49c0,1.43-1.16,2.59-2.59,2.59h-10.97c-1.43,0-2.59-1.16-2.59-2.59V5.43h0Zm49.35,80.22c0,1.23-1,2.23-2.23,2.23H5.07c-1.23,0-2.23-1-2.23-2.23V31.77c0-1.23,1-2.23,2.23-2.23h28.14c.02,2.97,2.44,5.38,5.42,5.38h10.97c2.98,0,5.4-2.41,5.42-5.38h28.14c1.23,0,2.23,1,2.23,2.23v53.87h0Z"/><path class="b" d="M78.63,43.23h-30.48c-.78,0-1.42,.63-1.42,1.42s.63,1.42,1.42,1.42h30.48c.78,0,1.42-.63,1.42-1.42s-.63-1.42-1.42-1.42h0Z"/><path class="b" d="M78.63,57.29h-30.48c-.78,0-1.42,.63-1.42,1.42s.63,1.42,1.42,1.42h30.48c.78,0,1.42-.63,1.42-1.42s-.63-1.42-1.42-1.42h0Z"/><path class="b" d="M78.63,71.35h-30.48c-.78,0-1.42,.63-1.42,1.42s.63,1.42,1.42,1.42h30.48c.78,0,1.42-.63,1.42-1.42s-.63-1.42-1.42-1.42h0Z"/><path class="b" d="M30.44,55.15c-.46,0-.9,.23-1.17,.61l-3.94,5.69-3.94-5.69c-.27-.38-.7-.61-1.17-.61-6.64,0-12.05,5.41-12.05,12.05v12.6c0,.78,.63,1.42,1.42,1.42h31.47c.78,0,1.42-.63,1.42-1.42v-12.6c0-6.65-5.41-12.05-12.05-12.05h0Zm9.22,23.24h-3.22v-11.24c0-.78-.63-1.42-1.42-1.42s-1.42,.63-1.42,1.42v11.24H17.03v-11.29c0-.78-.63-1.42-1.42-1.42s-1.42,.63-1.42,1.42v11.29h-3.18v-11.19c0-4.84,3.75-8.82,8.49-9.19l4.66,6.73c.53,.76,1.8,.76,2.33,0l4.66-6.73c4.74,.37,8.49,4.35,8.49,9.19v11.19h0Z"/><path class="b" d="M25.33,54.16c4.96,0,8.99-4.03,8.99-8.99s-4.03-8.99-8.99-8.99-8.99,4.03-8.99,8.99,4.03,8.99,8.99,8.99h0Zm0-15.14c3.39,0,6.15,2.76,6.15,6.15s-2.76,6.15-6.15,6.15-6.15-2.76-6.15-6.15,2.76-6.15,6.15-6.15h0Z"/><path class="b" d="M44.12,17.06c2.64,0,4.78-2.15,4.78-4.78s-2.14-4.78-4.78-4.78-4.78,2.14-4.78,4.78,2.14,4.78,4.78,4.78h0Zm0-6.73c1.07,0,1.95,.87,1.95,1.95s-.87,1.95-1.95,1.95-1.95-.87-1.95-1.95,.87-1.95,1.95-1.95h0Z"/></svg>