<svg xmlns="http://www.w3.org/2000/svg" viewBox="0 0 88.23 90.71"><path d="M37.208.235C35.656.653 34.35 1.782 33.64 3.32l-.333.724-.04 11.357-.041 11.358-14.738.039-14.738.039-.809.381c-1.024.483-1.934 1.395-2.458 2.462l-.409.833v56.32l.424.919a5.128 5.128 0 0 0 2.488 2.472l.764.356 40.378.001 40.379.002.893-.447c1.059-.529 1.837-1.342 2.369-2.477l.387-.826v-56.32l-.409-.833c-.524-1.067-1.434-1.979-2.458-2.462l-.809-.381-14.742-.039-14.741-.039V15.813c0-7.366-.053-11.191-.161-11.696-.37-1.723-2.07-3.431-3.877-3.893-1.258-.322-12.546-.312-13.751.011m13.574 2.913c.311.154.741.546.956.871l.391.592V30.412l-.451.565c-.881 1.103-.719 1.079-7.563 1.079-6.844 0-6.682.024-7.563-1.079l-.451-.565-.04-12.727c-.04-12.683-.039-12.729.27-13.367.343-.709.844-1.129 1.613-1.355.315-.092 2.761-.139 6.392-.122 5.459.025 5.922.047 6.446.307m-7.854 4.544c-2.32.656-3.63 2.511-3.489 4.941.106 1.824 1.027 3.169 2.753 4.02.539.265.923.331 1.923.331 1.092 0 1.358-.054 2.104-.432.94-.477 1.675-1.204 2.191-2.171.287-.538.337-.851.337-2.102 0-1.353-.035-1.533-.433-2.253-.238-.43-.666-.986-.949-1.235-1.162-1.02-3.056-1.489-4.437-1.099m2.267 2.973c1.292.905 1.022 2.931-.46 3.447-.545.19-.695.19-1.24 0a1.896 1.896 0 0 1-1.292-1.801c0-.92.512-1.59 1.471-1.926.32-.113 1.189.048 1.521.28M33.294 30.302c.221 1.662 1.421 3.289 2.998 4.064l.838.411H51.1l.838-.411c1.575-.774 2.623-2.175 2.965-3.966l.162-.847 14.439.039c14.325.038 14.443.041 14.846.342.223.167.543.486.709.709l.304.406.037 27.454.038 27.454-.332.659c-.243.482-.508.747-.99.99l-.658.332-39.56-.038-39.56-.038-.495-.353c-.272-.194-.618-.624-.769-.956-.264-.58-.274-1.595-.277-27.834-.002-18.938.045-27.357.154-27.645a2.468 2.468 0 0 1 1.24-1.309c.357-.159 3.149-.198 14.723-.202l14.281-.006.099.745m-9.419 6.023c-3.361.604-6.064 2.973-7.127 6.246-.435 1.339-.47 3.68-.075 5 .641 2.139 1.893 3.85 3.705 5.062 1.372.918 2.672 1.341 4.433 1.443 2.705.156 4.91-.682 6.821-2.593 1.911-1.911 2.748-4.115 2.592-6.82-.102-1.761-.525-3.061-1.443-4.433a9.025 9.025 0 0 0-4.984-3.676c-1.005-.295-2.927-.407-3.922-.229m2.453 2.791c3.181.604 5.318 3.322 5.101 6.487-.269 3.923-4.115 6.583-7.868 5.444-2.894-.88-4.801-3.879-4.3-6.762.237-1.358.807-2.465 1.757-3.413.907-.905 1.876-1.438 3.098-1.703 1.04-.226 1.268-.232 2.212-.053m21.136 4.345c-.83.452-.957 1.451-.272 2.136l.43.43H79.22l.388-.388c.516-.517.53-1.341.032-1.92l-.355-.413-15.71-.032c-13.663-.028-15.762-.003-16.111.187M18.455 55.308c-3.825.556-7.348 3.148-9.038 6.648-1.122 2.323-1.094 2.058-1.147 10.697l-.047 7.731.393.394.394.394h32.589l.412-.355.413-.355.043-6.74c.047-7.205-.027-8.407-.635-10.324-1.083-3.413-4.088-6.417-7.584-7.581-1.408-.468-3.723-.766-4.276-.549-.437.172-.843.69-3.096 3.956l-1.546 2.241-2.066-2.985c-1.313-1.897-2.207-3.049-2.452-3.16-.433-.198-1.06-.201-2.357-.012m28.737 2.471c-.553.553-.583 1.288-.075 1.878l.355.413 15.83.039 15.83.038.431-.431c.696-.696.572-1.754-.257-2.195-.238-.127-4.362-.171-16.003-.171H47.622l-.43.429M21.943 61.54c1.288 1.861 2.485 3.463 2.661 3.561.434.242 1.147.234 1.504-.016.161-.113 1.349-1.734 2.639-3.603 2.671-3.867 2.396-3.669 4.287-3.087 1.292.399 1.983.753 3.022 1.551 1.462 1.123 2.55 2.682 3.167 4.535l.392 1.177.056 6.36.057 6.36h-3.25l-.042-5.895-.041-5.894-.498-.445c-.421-.375-.581-.431-1.03-.36-.311.05-.668.242-.862.465l-.331.381v11.748H17.058v-5.745c0-3.941-.052-5.845-.164-6.066-.386-.754-1.231-1.043-1.941-.665-.684.364-.68.324-.684 6.557l-.005 5.919H11.029v-6.153c0-6.868.064-7.436 1.057-9.334.676-1.294 2.69-3.268 3.966-3.888 1.182-.575 2.373-.917 3.05-.875.478.029.606.182 2.841 3.412m25.701 9.942c-.92.361-1.183 1.555-.494 2.244l.387.387h31.736l.361-.361c.394-.393.487-1.188.202-1.72-.389-.727-.074-.713-16.489-.703-9.654.005-15.471.062-15.703.153" fill-rule="evenodd"/></svg>