<svg xmlns="http://www.w3.org/2000/svg" viewBox="0 0 98.27 90.71"><path d="M.837.229C.402.47.015 1.072.006 1.523c-.009.434.43 1.203.766 1.344.161.067 2.612.767 5.446 1.554 2.931.814 5.207 1.529 5.277 1.658.068.125 3.626 15.652 7.907 34.504 4.28 18.853 7.824 34.441 7.874 34.641.072.289-.024.424-.477.667-.948.511-2.374 2.073-2.961 3.246-1.991 3.979-.361 8.754 3.669 10.749l1.219.604h4.44l1.287-.614a7.947 7.947 0 0 0 4.343-8.836c-.101-.477-.451-1.384-.777-2.015a96.166 96.166 0 0 1-.648-1.269c-.031-.067 8.205-.123 18.302-.123 10.096 0 18.357.035 18.357.077 0 .041-.224.428-.497.859-1.574 2.48-1.517 5.937.138 8.494.989 1.527 2.251 2.511 4.073 3.176.888.323 1.25.361 2.948.305 1.782-.059 2.024-.106 3.034-.595 2.856-1.384 4.569-4.068 4.578-7.173.01-3.537-1.961-6.345-5.361-7.64l-.969-.369-25.827-.044c-24.329-.041-25.832-.06-25.915-.327-.092-.3-1.57-6.752-1.57-6.856 0-.034 13.33-.061 29.623-.061h29.622l.428-.337c.235-.185.499-.608.587-.941.376-1.432 9.348-42.969 9.348-43.28 0-.189-.215-.56-.479-.823l-.479-.479H57.746c-21.761 0-39.566-.03-39.566-.067 0-.498-4.002-17.459-4.185-17.74-.14-.213-.416-.456-.614-.539C12.88 3.062 1.673-.001 1.428.006c-.11.003-.376.103-.591.223m41.288 33.183c.513 4.819.937 8.965.942 9.213l.008.45h-9.98c-9.363 0-9.985-.018-10.064-.287-.223-.762-4.032-17.723-4.032-17.955 0-.246.924-.264 11.096-.226l11.097.042.933 8.763m27.965-8.476c-.005.203-.431 4.348-.946 9.213l-.938 8.844-11.01.042c-6.055.023-11.012-.013-11.015-.082-.003-.068-.437-4.177-.964-9.132-.527-4.954-.926-9.063-.886-9.131.041-.067 5.855-.123 12.921-.123h12.847l-.009.369m24.685 0c-.051.203-.945 4.303-1.987 9.111-1.042 4.809-1.935 8.807-1.983 8.886-.108.173-19.346.192-19.449.019-.041-.067.358-4.176.885-9.131.527-4.954.961-9.063.964-9.131.004-.067 4.879-.123 10.834-.123h10.827l-.091.369M43.477 46.555c.05.293.46 4.107.912 8.476.451 4.369.865 8.257.919 8.64l.097.696h-17.48L25.893 55.4c-1.118-4.932-2.066-9.06-2.106-9.172-.058-.162 1.964-.205 9.764-.205h9.837l.089.532m24.329-.067c0 .255-.405 4.29-.899 8.967-.495 4.676-.9 8.595-.901 8.709-.001.163-1.816.197-8.8.163l-8.798-.042-.938-8.844c-.516-4.865-.942-8.974-.947-9.131-.008-.27.604-.287 10.637-.287h10.646v.465m22.265-.096c-.006.202-.873 4.311-1.927 9.131l-1.916 8.762-8.556.042-8.555.043v-.384c0-.212.404-4.211.899-8.887.495-4.677.9-8.632.901-8.789.001-.27.567-.287 9.583-.287h9.581l-.01.369M33.017 78.203c2.057.915 3.281 3.239 2.828 5.374-.261 1.233-.669 1.937-1.611 2.785-1.08.97-2.136 1.329-3.604 1.224-4.071-.291-6.045-5.13-3.327-8.154 1.499-1.666 3.676-2.135 5.714-1.229m49.066-.138c1.613.508 3.004 2.332 3.196 4.188.357 3.457-3.153 6.237-6.479 5.132-1.695-.563-3.098-2.307-3.378-4.201-.252-1.703.871-3.86 2.479-4.762 1.411-.791 2.507-.884 4.182-.357" fill-rule="evenodd"/></svg>