<?xml version="1.0" encoding="UTF-8"?><svg id="a" xmlns="http://www.w3.org/2000/svg" viewBox="0 0 81.81 113.39"><defs><style>.b{fill:#1d1d1b;}</style></defs><path class="b" d="M61.09,59.66v-20.92l3.42,2.53h.16l2.3-2.3-7.38-5.46h-.08l-16.94-12.54V9.16h6.57v-3.32h-6.57V0h-3.32V5.84h-6.57v3.32h6.57v12.26l-16.32,12.08h-.07l-7.29,5.4,2.37,2.37h0l3.41-2.52v20.89l-14.73,11.52v.08l-6.63,5.26,2.37,2.37,4.26-3.37v37.88H75.81v-37.51l3.63,2.91,2.36-2.36-6.3-5.03-14.42-11.74h0Zm-29.58,50.4v-14.01c0-5.36,4.36-9.72,9.72-9.72s9.72,4.36,9.72,9.72v14.01H31.5Zm35.21-41.54h-.07l4.66,3.74,1.19,.97v36.84h-18.23v-14.01c0-7.19-5.85-13.04-13.04-13.04s-13.04,5.85-13.04,13.04v14.01H9.95v-37.19l5.5-4.35h-.05l9.28-7.26v-24.91l16.55-12.25,16.54,12.25v24.9l8.94,7.28h0Zm-16.86-20.47c0-4.76-3.87-8.62-8.63-8.62s-8.63,3.87-8.63,8.62,3.87,8.63,8.63,8.63,8.63-3.87,8.63-8.63h0Zm-3.32,0c0,2.93-2.38,5.31-5.31,5.31s-5.31-2.38-5.31-5.31,2.38-5.3,5.31-5.3,5.31,2.38,5.31,5.3h0Z"/></svg>