<svg xmlns="http://www.w3.org/2000/svg" viewBox="0 0 81.81 113.39"><path d="M39.269 2.932v2.931h-6.545v3.268l3.238.036 3.239.037.03 6.135.03 6.136-7.38 5.454c-4.058 3-8.275 6.103-9.37 6.896-1.095.792-3.107 2.27-4.471 3.282l-2.481 1.841 1.185 1.175 1.186 1.174 1.636-1.213c.9-.668 1.682-1.216 1.739-1.219.132-.007.13 20.606-.002 20.795-.055.079-3.353 2.682-7.327 5.783-3.975 3.102-7.323 5.737-7.44 5.857-.117.12-1.64 1.347-3.383 2.728l-3.17 2.51 1.13 1.136c.622.625 1.18 1.136 1.24 1.136.06 0 1.002-.705 2.093-1.568 1.091-.862 2.04-1.568 2.109-1.568.077 0 .126 7.395.126 18.817v18.816H75.81l.034-18.679.035-18.68 1.772 1.423 1.773 1.422 1.182-1.171 1.182-1.17-4.183-3.355c-2.3-1.845-6.958-5.616-10.351-8.381l-6.169-5.026V49.275c0-5.728.03-10.415.067-10.415.037 0 .776.524 1.642 1.165.867.641 1.65 1.195 1.741 1.229.091.035.678-.452 1.306-1.082l1.14-1.147-2.641-1.958a630.888 630.888 0 0 0-3.732-2.749c-.6-.435-4.895-3.601-9.545-7.036l-8.454-6.244V9.204l3.239-.037 3.238-.036V5.863h-6.545V0h-3.272v2.932M50.05 30.665l7.694 5.703.035 12.476.035 12.476 5.351 4.357c2.943 2.396 6.256 5.088 7.363 5.981l2.011 1.624-.034 18.41-.035 18.411-9.101.035-9.102.035v-7.422c0-4.463-.057-7.848-.144-8.489-.704-5.195-4.683-9.55-9.908-10.843-1.491-.369-4.227-.406-5.698-.078-3.985.889-7.355 3.581-9.073 7.246-1.156 2.468-1.133 2.254-1.215 11.403l-.073 8.113-9.101.035-9.101.035.002-18.647.003-18.647 2.554-2.02c1.404-1.111 4.717-3.718 7.36-5.794l4.806-3.773.008-12.477.007-12.478 8.261-6.096 8.261-6.096.57.409c.313.225 4.032 2.975 8.264 6.111m-11.122 9.132c-2.833.819-4.895 2.793-5.898 5.644-.449 1.28-.507 3.653-.119 4.94.866 2.873 3.164 5.167 6.017 6.004 1.015.298 3.248.339 4.295.078a8.76 8.76 0 0 0 6.342-6.228c.288-1.085.289-3.165.002-4.273-.476-1.833-1.619-3.57-3.072-4.668-.911-.689-2.405-1.396-3.381-1.601-1.078-.226-3.227-.173-4.186.104m4.596 3.532a5.69 5.69 0 0 1 2.538 2.591c.32.683.365.949.365 2.143 0 1.247-.036 1.44-.425 2.25-2.275 4.74-9.104 3.739-10.021-1.468-.358-2.032.838-4.444 2.667-5.38 1.103-.564 1.483-.648 2.748-.61 1.077.033 1.358.096 2.128.474m.04 43.321c.45.113 1.372.479 2.05.811 2.11 1.035 3.751 2.824 4.63 5.051.71 1.796.757 2.476.718 10.364l-.035 7.227-9.722.035-9.722.035.043-7.944.043-7.943.355-1.045c1.7-5.005 6.705-7.84 11.64-6.591" fill-rule="evenodd"/></svg>