<?xml version="1.0" encoding="UTF-8"?><svg id="a" xmlns="http://www.w3.org/2000/svg" viewBox="0 0 92.72 119.06"><defs><style>.b{fill:#1d1d1b;}</style></defs><path class="b" d="M89.02,57.5c-5.2-4.76-14.36-4.52-17.99-4.21,.03-4.94-.3-7.94-.35-8.34-.11-.93-.91-1.64-1.85-1.64H2.2c-.94,0-1.73,.7-1.85,1.64-.17,1.44-4.01,35.67,18.23,73.2,.34,.56,.94,.91,1.6,.91h30.67c.66,0,1.27-.35,1.6-.91,4.13-6.98,7.37-13.84,9.89-20.4,1.7-.8,29.37-14.1,30.35-30.22,.25-4.19-.98-7.56-3.67-10.02h0Zm-39.23,57.84H21.25C2.92,83.82,3.46,54.2,3.92,47.03h63.21c.45,7.17,1,36.79-17.33,68.3h0Zm14.4-22.73c4.86-14.36,6.39-26.94,6.75-35.56,2.73-.27,11.28-.74,15.57,3.21,1.84,1.69,2.65,4,2.46,7.05-.67,11-17.37,21.28-24.79,25.31h0Z"/><path class="b" d="M29.52,14.36c-3.07,4.81-2.83,8.86-2.07,11.4,.9,3.08,3.06,5.65,5.76,6.89,.25,.11,.51,.17,.77,.17,.7,0,1.38-.4,1.69-1.09,.43-.93,.02-2.04-.92-2.47-1.71-.78-3.14-2.53-3.74-4.56-.53-1.81-.68-4.72,1.64-8.35,4.53-7.08-1.27-13.6-4.97-16.06-.86-.57-2.01-.33-2.58,.52-.57,.86-.34,2.01,.52,2.58,.31,.21,7.61,5.15,3.89,10.95h0Z"/><path class="b" d="M42.81,18.49c-3.1,3.96-3.22,7.54-2.78,9.85,.54,2.79,2.22,5.25,4.51,6.57,.29,.17,.61,.25,.93,.25,.64,0,1.27-.33,1.61-.93,.52-.89,.21-2.03-.68-2.54-1.05-.61-2.32-2-2.72-4.06-.3-1.55-.18-3.99,2.05-6.84,4.6-5.87,.06-12.1-2.99-14.58-.8-.64-1.96-.52-2.61,.27-.65,.79-.53,1.97,.26,2.62,.24,.2,5.9,4.94,2.41,9.4h0Z"/></svg>