<?xml version="1.0" encoding="UTF-8"?><svg id="a" xmlns="http://www.w3.org/2000/svg" viewBox="0 0 80.37 98.69"><defs><style>.b{fill:none;stroke:#1d1d1b;stroke-linecap:round;stroke-linejoin:round;stroke-width:3px;}</style></defs><path class="b" d="M26.26,21.56C26.26,12.19,20.72,1.5,13.88,1.5S1.5,12.19,1.5,21.56c0,7.83,3.89,12.23,9.15,13.48l-1.31,57.52c-.06,2.54,1.99,4.63,4.54,4.63h0c2.55,0,4.59-2.09,4.54-4.63l-1.31-57.52c5.26-1.25,9.15-5.64,9.15-13.48h0ZM51.02,1.5l1.55,27.78h-18.57l1.55-27.78m7.74,0V29.28m9.28,0h-18.57l5.03,7.52c.71,1.06,1.07,2.31,1.04,3.58l-1.31,52.18c-.06,2.54,1.98,4.63,4.53,4.63h0c2.55,0,4.59-2.09,4.53-4.63l-1.31-52.18c-.03-1.27,.33-2.52,1.04-3.58l5.03-7.52h0Zm10.83,4.33v20.36h6.19v38.58c0,2.56,2.08,4.63,4.64,4.63h0c2.56,0,4.64-2.07,4.64-4.63V1.5c-9.78,7.8-15.47,19.62-15.47,32.11h0Z"/></svg>