<svg xmlns="http://www.w3.org/2000/svg" viewBox="0 0 80.37 98.69"><path d="M12.527.134c-2.323.419-4.635 1.884-6.553 4.152C2.719 8.137.576 13.759.11 19.668c-.492 6.248 1.313 11.38 5.05 14.349.92.731 2.932 1.86 3.647 2.046.269.07.302.162.302.861 0 .431-.275 12.688-.611 27.238-.336 14.55-.592 27.269-.57 28.264.04 1.715.064 1.854.473 2.717.576 1.217 1.703 2.386 2.838 2.945.853.42.927.432 2.625.432 1.708 0 1.767-.01 2.652-.445a6.174 6.174 0 0 0 3.137-3.679c.279-.915.288-.297-.433-31.774-.33-14.44-.601-26.291-.601-26.336 0-.046.467-.277 1.038-.516 2.04-.851 4.147-2.55 5.374-4.333.549-.798 1.536-2.789 1.821-3.673.742-2.303 1.056-5.974.752-8.81C26.646 9.981 21.955 2.216 16.436.466c-1.17-.372-2.881-.517-3.909-.332M35.028.096c-.428.103-.839.561-.917 1.02-.039.234-.419 6.773-.845 14.532-.687 12.531-.752 14.142-.578 14.417.108.169 1.354 2.028 2.769 4.131 1.414 2.102 2.67 4.053 2.79 4.336.121.283.247.967.282 1.519.034.553-.235 12.668-.599 26.924-.394 15.43-.618 26.232-.554 26.693.244 1.755 1.538 3.525 3.218 4.402.856.446.88.45 2.672.45 1.728 0 1.844-.017 2.612-.392 1.022-.5 2.314-1.782 2.799-2.777a7.054 7.054 0 0 0 .509-1.608c.105-.636-.015-6.976-.48-25.362-.772-30.534-.745-28.761-.45-29.606.13-.372 1.499-2.56 3.058-4.889l2.823-4.216-.071-.737c-.04-.405-.411-6.822-.825-14.261-.531-9.538-.806-13.651-.934-13.956-.352-.844-2.019-.895-2.556-.079-.234.356-.22.758.46 13.227.385 7.072.714 13.1.729 13.395l.028.536h-6.162l-.067-13.542C44.684 3.064 44.64.672 44.489.49c-.315-.38-1.146-.556-1.758-.372-1 .3-.939-.644-.939 14.342v13.402h-6.161v-.57c0-.313.301-5.964.669-12.557.369-6.594.67-12.413.67-12.93 0-1.115-.191-1.466-.908-1.665-.523-.145-.601-.149-1.034-.044m43.266.093c-.878.391-4.045 3.322-5.861 5.425-5.52 6.389-9.027 14.109-10.139 22.315-.321 2.374-.404 5.561-.406 15.71-.003 11.347-.005 11.323.647 11.672.167.089 1.27.144 2.891.144h2.621l.002 18.519c.002 11.714.052 18.863.138 19.456a6.048 6.048 0 0 0 3.315 4.587l1.019.503h1.748c1.653 0 1.79-.021 2.53-.384 1.709-.839 3.112-2.617 3.436-4.356.089-.474.135-16.461.135-46.722 0-50.632.07-46.599-.82-46.91-.54-.188-.757-.181-1.256.041M15.76 3.382c1.025.358 1.845.937 3.067 2.164 1.965 1.973 3.43 4.507 4.526 7.828 1.657 5.021 1.863 9.811.583 13.549-.616 1.799-1.16 2.674-2.504 4.027-1.333 1.342-1.977 1.743-3.884 2.414-1.005.354-1.48.595-1.667.845-.26.348-.257.555.397 29.59.527 23.353.627 29.347.498 29.776-.22.736-.981 1.585-1.67 1.864-1.716.694-3.617-.202-4.141-1.952-.115-.384-.003-7.04.471-28.075.343-15.164.636-28.336.653-29.27.029-1.634.018-1.712-.295-2.045-.2-.213-.687-.452-1.27-.625-2.964-.875-5.295-2.997-6.458-5.875-.874-2.164-1.221-4.817-.997-7.615.546-6.809 3.573-13.222 7.471-15.829 1.711-1.145 3.426-1.398 5.22-.771m61.66 45.409c-.002 29.495-.048 44.033-.141 44.438-.176.77-.67 1.486-1.354 1.96-.633.438-1.907.586-2.726.316-.659-.218-1.518-1.006-1.822-1.673-.232-.51-.244-1.468-.247-20.226-.003-13.188-.05-19.856-.143-20.192-.077-.275-.272-.577-.435-.67-.198-.113-1.176-.191-2.974-.236l-2.679-.067.004-10.582c.005-12.434.057-13.201 1.215-17.877 1.629-6.579 5.084-12.834 9.749-17.653.731-.755 1.381-1.373 1.443-1.373.062 0 .112 19.726.11 43.835M49.695 30.887c0 .043-.742 1.174-1.649 2.512-2.408 3.551-2.639 3.999-2.903 5.63-.097.594.052 8.176.536 27.394.471 18.729.629 26.72.534 27.074-.342 1.27-1.562 2.17-2.941 2.17-1.242 0-2.271-.683-2.768-1.835-.286-.664-.329 2.16.438-28.807.604-24.391.623-25.634.41-26.501-.313-1.267-.815-2.193-2.694-4.97a321.048 321.048 0 0 1-1.735-2.578c-.081-.133 1.219-.167 6.335-.167 3.541 0 6.437.035 6.437.078" fill-rule="evenodd"/></svg>