<svg xmlns="http://www.w3.org/2000/svg" viewBox="0 0 97.38 97.38"><path d="M.42.499c-.458.545-.558 1.375-.217 1.805.111.14.933.727 1.826 1.304 5.492 3.547 12.633 10.405 17.705 17.004C32.206 36.838 39.686 57.187 41.947 81.04c.246 2.598.502 7.38.677 12.651.081 2.445.141 2.94.389 3.246.292.361.305.362 5.677.362 5.276 0 5.39-.007 5.661-.341.243-.3.3-1.175.476-7.223.199-6.865.455-11.292.927-16.051 1.526-15.387 4.546-27.516 9.468-38.026l.82-1.753.466.241c.934.483 4.379 1.542 6.087 1.871 6.665 1.284 12.434-.253 16.459-4.386 1.435-1.474 2.025-2.25 3.111-4.095 3.166-5.38 4.777-12.585 5.149-23.022.169-4.765.255-4.674-4.118-4.371-16.18 1.119-27.072 6.136-30.789 14.181-1.036 2.243-1.301 3.593-1.299 6.613.004 3.521.513 5.932 1.981 9.374l.572 1.34-.385.471C56.85 39.99 52.653 47.488 48.927 57.755l-.61 1.681-.932-2.979C40.684 35.021 30.182 18.53 16.79 8.417c-4.192-3.165-9-5.936-13.586-7.83C1.43-.145.975-.16.42.499m93.874 4.329c-.011 7.381-1.656 15.345-4.18 20.233-3.644 7.057-9.876 9.771-17.958 7.818-1.587-.383-4.275-1.293-4.513-1.528-.152-.15 1.718-3.133 3.299-5.262 2.446-3.294 4.862-5.749 7.918-8.043 1.484-1.114 4.089-2.576 5.251-2.946 1.148-.365 1.455-1.503.661-2.446-.394-.469-.501-.51-1.141-.437-.827.093-3.291 1.248-4.961 2.325-4.486 2.893-9.212 7.868-12.374 13.027l-.633 1.033-.288-.678c-.462-1.087-1.075-3.54-1.281-5.121-.608-4.685 1.088-8.93 4.847-12.127 4.255-3.619 11.925-6.249 21.379-7.332 1.071-.122 2.404-.231 2.962-.242l1.014-.018-.002 1.744m-76.686 8.071C29.929 23.236 39.94 40.538 45.822 61.665l.86 3.087-.592 2.316a112.366 112.366 0 0 0-1.141 5.114c-.301 1.54-.596 2.709-.656 2.597-.059-.111-.157-.64-.218-1.176-.185-1.643-1.194-7.323-1.789-10.063-4.259-19.638-12.829-37.03-24.754-50.231-1.587-1.757-1.579-1.799.076-.41m40.43 33.005c-.745 2.306-2.062 7.415-2.684 10.414-2.02 9.742-3.044 19.243-3.451 32.014l-.194 6.127h-2.975c-2.529 0-2.99-.038-3.071-.25-.129-.336.215-7 .523-10.138 1.211-12.324 4.272-23.649 9.246-34.201.952-2.019 3.04-5.891 3.13-5.804.03.028-.206.855-.524 1.838" fill-rule="evenodd"/></svg>