<?xml version="1.0" encoding="UTF-8"?><svg id="a" xmlns="http://www.w3.org/2000/svg" viewBox="0 0 108.43 108.43"><defs><style>.b{fill:none;stroke:#1d1d1b;stroke-miterlimit:10;stroke-width:3px;}.c{fill:#1d1d1b;}</style></defs><path class="b" d="M54.21,106.93c29.11,0,52.71-23.6,52.71-52.71S83.33,1.5,54.21,1.5,1.5,25.1,1.5,54.21s23.6,52.71,52.71,52.71h0Z"/><path class="c" d="M50.96,28.19c-.88,.85-1.32,1.88-1.32,3.09s.44,2.25,1.32,3.11c.88,.86,1.94,1.29,3.18,1.29s2.3-.43,3.18-1.29c.88-.86,1.32-1.9,1.32-3.11s-.44-2.24-1.32-3.09c-.88-.85-1.94-1.27-3.18-1.27s-2.3,.42-3.18,1.27h0Zm.04,22.15v22.33c0,2.05-.12,3.35-.37,3.9-.25,.56-.67,.99-1.26,1.29-.59,.3-1.76,.45-3.49,.45h-1.59v3.18h19.84v-3.18h-1.82c-1.47,0-2.49-.12-3.04-.36-.56-.24-.99-.63-1.3-1.16-.31-.53-.47-1.33-.47-2.39v-30.4h-2.83c-1.86,.97-3.52,1.69-4.98,2.14-1.46,.45-3.26,.8-5.41,1.05v3.15h6.7Z"/></svg>