<svg xmlns="http://www.w3.org/2000/svg" viewBox="0 0 79.37 98.9"><path d="M38.238.138c-2.205.301-4.037 1.219-5.642 2.825-1.189 1.191-1.884 2.312-2.413 3.894-.299.892-.339 1.228-.335 2.8.003 1.569.046 1.914.353 2.844.508 1.537 1.2 2.629 2.473 3.902 1.934 1.934 4.034 2.799 6.813 2.806 1.658.004 2.802-.223 4.11-.817 2.106-.954 3.689-2.498 4.686-4.568.814-1.689.986-2.438.977-4.233-.01-1.769-.25-2.748-1.058-4.315-1.855-3.595-5.919-5.691-9.964-5.138m3.299 3.305c3.076.893 5.11 4.018 4.628 7.107-.717 4.586-5.751 6.994-9.957 4.762-.982-.521-2.211-1.834-2.726-2.913-1.155-2.421-.707-5.14 1.181-7.158 1.767-1.889 4.288-2.548 6.874-1.798m18.362 16.242-1.165 1.166v1.414l2.928 2.947c1.611 1.621 3.099 3.018 3.307 3.104l.379.157V39.95h-7.122l-.057-4.465c-.066-5.141-.134-5.559-1.288-7.904-2.002-4.066-5.799-6.692-10.426-7.209-1.57-.175-2.112-.045-2.639.631-.211.271-1.231 1.697-2.266 3.169-1.036 1.472-1.923 2.701-1.973 2.731-.05.03-1.073-1.341-2.273-3.046-1.2-1.706-2.302-3.178-2.447-3.272-.471-.305-.962-.352-2.213-.212-2.491.278-4.74 1.163-6.673 2.624-2.229 1.687-3.775 3.932-4.63 6.729-.348 1.137-.358 1.26-.431 5.66l-.075 4.497-5.887.067c-4.737.053-5.941.102-6.165.251-.686.456-.645-.969-.682 23.791l-.035 23.05H4.622c-2.82 0-3.515.037-3.833.201-.772.4-.789.519-.789 5.671 0 2.605.055 4.839.124 5.02.068.18.258.452.422.604l.298.278 38.833-.003c36.594-.003 38.849-.016 39.115-.232.561-.454.578-.615.578-5.584 0-5.243-.015-5.354-.789-5.754-.318-.164-1.013-.201-3.833-.201h-3.444l-.035-23.05c-.037-25.093.019-23.362-.772-23.829-.235-.138-.668-.213-1.236-.213h-.875l.054-6.912c.029-3.802.096-7.232.148-7.623l.095-.71-3.093-3.093-3.092-3.092H61.065l-1.166 1.165M35.672 26.92c1.334 1.891 2.633 3.632 2.887 3.869.537.501 1.105.563 1.721.186.238-.145 1.429-1.706 2.976-3.901 2.906-4.123 2.555-3.842 4.246-3.409 3.924 1.006 6.772 4.035 7.473 7.951.12.668.179 2.19.183 4.663l.004 3.671h-3.56l-.039-3.768-.039-3.767-.366-.367c-.313-.312-.475-.366-1.103-.366-.663 0-.773.042-1.121.432l-.386.432V39.951l-9.028-.034-9.029-.034-.035-3.728-.035-3.729-.387-.387c-.676-.676-1.666-.633-2.321.101-.249.28-.266.514-.303 4.053l-.039 3.757h-3.428v-3.842c0-4.41.108-5.216.932-6.981 1.324-2.834 3.823-4.822 6.939-5.52 1.388-.311 1.173-.495 3.858 3.313m32.454 38.097v22.025H11.244v-44.05h56.882v22.025m8.171 27.945-.036 2.877H3.109l-.036-2.877-.036-2.877h73.296l-.036 2.877" fill-rule="evenodd"/></svg>