<?xml version="1.0" encoding="UTF-8"?><svg id="a" xmlns="http://www.w3.org/2000/svg" viewBox="0 0 79.37 98.9"><defs><style>.b{fill:#1d1d1b;}</style></defs><path class="b" d="M77.83,86.99h-6.57V41.43c0-.85-.69-1.55-1.54-1.55h-1.29v-13.65c.42-.6,.39-1.43-.15-1.96l-5.41-5.41c-.6-.6-1.58-.6-2.19,0l-1.57,1.57c-.6,.6-.6,1.58,0,2.19l5.41,5.41c.23,.23,.51,.34,.81,.4v11.46h-7.1v-6.73c0-7.12-5.89-12.91-13.13-12.91-.5,0-.97,.24-1.26,.65l-4.3,6.09-4.3-6.09c-.29-.41-.76-.65-1.26-.65-7.24,0-13.13,5.79-13.13,12.91v6.73H9.66c-.85,0-1.55,.69-1.55,1.55v45.56H1.55c-.85,0-1.55,.69-1.55,1.55v8.82c0,.85,.69,1.55,1.55,1.55H77.83c.85,0,1.55-.69,1.55-1.55v-8.82c0-.85-.69-1.55-1.55-1.55h0ZM23.93,33.16c0-5.15,4.09-9.39,9.26-9.78l5.08,7.19c.05,.08,.13,.12,.2,.19,.06,.06,.1,.13,.17,.18,.01,0,.03,0,.04,.02,.1,.07,.21,.1,.32,.14,.08,.03,.15,.07,.23,.09,.1,.02,.2,0,.31,0,.09,0,.19,.01,.28,0,.09-.02,.17-.06,.25-.1,.1-.04,.21-.07,.3-.13,.01,0,.03,0,.04-.02,.08-.05,.12-.13,.18-.2,.06-.06,.13-.1,.19-.18l5.08-7.19c5.18,.39,9.26,4.63,9.26,9.78v6.73h-3.5v-6.78c0-.85-.69-1.55-1.55-1.55s-1.55,.69-1.55,1.55v6.78H30.49v-6.84c0-.85-.69-1.55-1.55-1.55s-1.55,.69-1.55,1.55v6.84h-3.46v-6.73h0Zm-12.73,9.82h56.97v44.01H11.2V42.97h0Zm65.08,52.84H3.09v-5.73H76.28v5.73h0Z"/><path class="b" d="M39.54,19.26c5.4,0,9.79-4.32,9.79-9.63S44.94,0,39.54,0s-9.79,4.32-9.79,9.63,4.39,9.63,9.79,9.63h0Zm0-16.17c3.7,0,6.7,2.93,6.7,6.54s-3.01,6.54-6.7,6.54-6.7-2.93-6.7-6.54,3.01-6.54,6.7-6.54h0Z"/></svg>