<svg xmlns="http://www.w3.org/2000/svg" viewBox="0 0 110.4 110.69"><path d="M0 49.627v49.628l25.07-25.034a48291.133 48291.133 0 0 1 43.286-43.168l18.216-18.134-.92-1.012c-.506-.556-1.001-1.02-1.1-1.031-.098-.011-.782.578-1.518 1.31l-1.339 1.33-1.656-1.649-1.657-1.649-1.054 1.054-1.054 1.054 1.651 1.659 1.65 1.658-3.078 3.078-3.078 3.078-1.658-1.65-1.659-1.651-1.054 1.054-1.054 1.054 1.65 1.658 1.65 1.658-3.031 3.035c-1.667 1.669-3.116 3.035-3.221 3.035-.105 0-.89-.704-1.745-1.563l-1.556-1.564-1.063 1.053-1.064 1.053 1.665 1.672 1.665 1.672-3.039 2.979c-1.672 1.638-3.106 2.978-3.187 2.978-.08 0-.846-.704-1.701-1.563l-1.556-1.564-1.063 1.053-1.064 1.053 1.608 1.615 1.608 1.616-3.122 3.126-3.122 3.126-1.614-1.606-1.614-1.606-1.054 1.054-1.054 1.054 1.606 1.614 1.606 1.614-3.084 3.08-3.084 3.08-1.557-1.565c-.856-.861-1.639-1.565-1.739-1.565-.1 0-.62.433-1.156.961l-.973.961 1.657 1.664 1.657 1.663-3.127 3.123-3.126 3.122-1.658-1.65-1.658-1.65-1.054 1.054-1.054 1.054 1.651 1.659 1.65 1.658-3.078 3.078-3.078 3.078-1.658-1.65-1.659-1.651L19 69.416l-1.054 1.054 1.65 1.658 1.65 1.658-3.122 3.126-3.123 3.127-1.663-1.657-1.663-1.656-1.053 1.063-1.053 1.064 1.657 1.649 1.657 1.649-4.83 4.832c-2.657 2.658-4.893 4.833-4.97 4.833-.077 0-.119-19.976-.093-44.39l.046-44.39 44.482-.046C71.983 2.964 92 3.003 92 3.077s-.538.676-1.197 1.34l-1.196 1.205 1.062 1.051 1.062 1.051 3.859-3.862L99.449 0H0v49.627m14.904-10.574v24.149l5.242-5.24 5.242-5.239-1.052-1.064-1.052-1.063-2.719 2.715-2.719 2.714.047-19.042.047-19.043 18.998-.047c10.449-.026 18.998.02 18.998.101 0 .082-6.297 6.433-13.993 14.113L27.951 46.071l1.068 1.068 1.067 1.068 16.651-16.652 16.65-16.651H14.904v24.149M95.455 21.8a8.268 8.268 0 0 0-1.656.702c-.44.258-15.491 15.121-34.091 33.665L26.404 89.369l-2.7 10.56c-1.485 5.808-2.662 10.599-2.615 10.646.185.185 7.247-1.742 7.247-1.977 0-.553-.611-2.614-.776-2.614-.099 0-.633.132-1.187.293-.555.161-1.056.246-1.113.188-.058-.058.673-3.169 1.623-6.914l1.729-6.808 3.59 3.584c1.974 1.972 3.669 3.585 3.766 3.585.097 0 .615-.433 1.151-.962l.974-.962-4.005-4.022-4.004-4.022L62.56 57.563C80.422 39.754 95.268 25.06 95.552 24.909c.87-.46 2.224-.529 3.209-.162.702.262 1.562 1.005 4.34 3.752 1.905 1.884 3.64 3.756 3.855 4.161.498.937.534 2.678.073 3.542-.175.329-.809 1.116-1.408 1.748l-1.089 1.15-4.61-4.598-4.609-4.599-1.055 1.055-1.054 1.054 1.054 1.065c.58.586 1.054 1.134 1.054 1.216 0 .083-12.673 12.783-28.162 28.223L38.988 90.588l.97.982c.533.54 1.042.982 1.13.982.088 0 12.84-12.629 28.336-28.065l28.175-28.066 2.366 2.366 2.366 2.366-30.755 30.713-30.754 30.714-4.298 1.106c-2.363.608-4.354 1.163-4.425 1.233-.209.21.481 2.721.749 2.721.132 0 2.328-.534 4.88-1.187l4.641-1.188L71.37 76.341c15.951-15.908 30.967-30.887 33.369-33.285 3.788-3.783 4.439-4.517 4.915-5.539 1.031-2.216.893-4.843-.356-6.783-.675-1.049-7.195-7.527-8.208-8.156-1.597-.99-3.773-1.29-5.635-.778" fill-rule="evenodd"/></svg>