<svg xmlns="http://www.w3.org/2000/svg" viewBox="0 0 52.15 112.39"><path d="M11.04.099c-.803.133-1.854.704-2.512 1.364-2.481 2.49-1.765 6.63 1.405 8.124l.589.278-.033 8.083c-.034 8.361-.035 8.389-.406 10.691-.436 2.711-1.345 5.84-2.437 8.393-.67 1.567-.994 2.206-2.087 4.123-3.068 5.38-4.536 9.712-5.318 15.688l-.187 1.435-.031 24.727c-.022 18.303-.004 24.883.07 25.323.321 1.921 2.103 3.672 4.036 3.967.418.064 5.661.085 16.818.069 16.121-.024 16.212-.025 16.514-.201.408-.237.608-.659.608-1.283.001-.968-.387-1.371-1.434-1.493a3.695 3.695 0 0 1-.869-.213c-.443-.195-.961-.768-1.08-1.196-.063-.226-.092-4.068-.093-12.087V84.135h.469c1.51 0 3.668-.371 5.304-.912 4.436-1.467 8.084-4.523 10.071-8.437.769-1.516 1.196-2.804 1.494-4.514.185-1.058.26-3.208.147-4.172-.711-6.014-3.348-26.36-3.441-26.538a2.045 2.045 0 0 0-.354-.449l-.232-.218-10.141-.043-10.14-.044-.252-.521c-1.429-2.954-2.524-6.499-3.046-9.865-.359-2.308-.396-3.345-.394-11.082l.001-7.475.585-.277c1.368-.649 2.465-1.997 2.761-3.393.378-1.786-.107-3.473-1.36-4.732C25.384.781 24.367.246 23.46.095c-.702-.117-11.711-.113-12.42.004M23.381 3.18c.836.387 1.338 1.378 1.137 2.247a2.152 2.152 0 0 1-.905 1.324l-.363.246H11.337l-.428-.308c-.583-.419-.873-.985-.863-1.689.013-1.009.634-1.754 1.629-1.956.2-.04 2.827-.067 5.839-.059 5.35.013 5.484.018 5.867.195M21.06 17.709c.048 8.003.079 8.709.487 11.346a38.026 38.026 0 0 0 2.432 8.644c.244.585.445 1.083.445 1.108 0 .025-1.383.045-3.073.045-3.052 0-3.075.001-3.366.197a1.307 1.307 0 0 0-.446.587c-.102.262-.55 3.577-1.373 10.167-.672 5.378-1.241 9.866-1.264 9.974l-.043.196H3.042v-.568c0-.312.06-1.139.133-1.837.545-5.188 2.142-10.039 4.817-14.63 2.956-5.075 4.613-9.955 5.269-15.514.221-1.874.292-4.553.295-11.105l.003-6.237h7.455l.046 7.627m24.959 24.293c.024.108.736 5.652 1.582 12.321 1.766 13.91 1.747 13.666 1.28 16.014l-.048.239h-24.75l-.025-4.845c-.024-4.569-.035-4.861-.189-5.117-.353-.583-.42-.595-3.335-.624-1.446-.015-2.629-.049-2.629-.075 0-.027.508-4.07 1.13-8.985.621-4.915 1.13-8.978 1.13-9.028 0-.064 3.923-.092 12.905-.094l12.905-.002.044.196M14.461 62.998c.024.038-.039.635-.14 1.325-.224 1.539-.269 4.764-.081 5.819.627 3.516 2.11 6.359 4.593 8.801.818.805 1.999 1.801 2.136 1.802.035 0 .065 1.683.065 3.738v3.738l-9.018-.022-9.017-.022-.023-12.516c-.012-6.884-.003-12.565.019-12.625.033-.085 1.26-.108 5.732-.108 3.13 0 5.71.031 5.734.07m6.573 3.754v3.824h-1.82c-1.657 0-1.823-.013-1.864-.152-.334-1.113-.361-3.527-.066-5.758.111-.837.216-1.57.235-1.63.025-.082.457-.108 1.774-.108h1.741v3.824m26.596 6.89c0 .142-.713 1.292-1.117 1.802a14.981 14.981 0 0 1-7.115 4.948c-1.889.618-3.232.785-6.326.786-2.948.001-4.539-.199-6.345-.796-.994-.329-2.457-1.021-2.997-1.417-.229-.168-.456-.305-.505-.305-.166 0-1.524-1.083-2.234-1.782-.389-.382-.92-.967-1.179-1.299-.49-.625-1.299-1.858-1.299-1.979 0-.038 6.552-.068 14.559-.068 11.746 0 14.558.021 14.558.11m-22.598 9.294c1.868.729 4.257 1.199 6.093 1.199h.513v11.599c0 8.057-.029 11.735-.095 12.042a2.104 2.104 0 0 1-1.077 1.387l-.432.222-12.473.023c-8.809.017-12.608-.004-12.933-.071a2.086 2.086 0 0 1-1.407-1.081l-.222-.431V91.219l10.129-.043c9.479-.041 10.145-.054 10.363-.197.541-.354.539-.339.567-4.568.015-2.118.054-3.839.087-3.824.034.015.433.172.887.349" fill-rule="evenodd"/></svg>