<svg width="751" height="232" viewBox="0 0 751 232" fill="none" xmlns="http://www.w3.org/2000/svg">
<path d="M221.662 108.889H207L226.925 56.2559H241.963L261.889 108.889H247.227L243.843 99.4901H225.046L221.662 108.889ZM228.429 89.7154H240.46L234.444 72.0458L228.429 89.7154Z" fill="#404040"/>
<path d="M291.589 81.0686C291.589 80.3167 291.363 79.7152 290.837 79.1888C290.31 78.6625 289.709 78.4369 288.957 78.4369H287.077C284.972 78.4369 283.167 78.5121 281.664 78.7377C280.085 78.9633 278.882 79.1136 278.055 79.1888V98.7382H288.581C290.611 98.7382 291.589 97.7607 291.589 95.7306V81.0686ZM278.055 69.7901C282.942 68.8126 287.153 68.2863 290.837 68.2863H293.468C296.852 68.2863 299.634 69.339 301.664 71.3691C303.694 73.3992 304.747 76.1812 304.747 79.5648V96.8584C304.747 100.618 303.694 103.55 301.589 105.656C299.408 107.836 296.476 108.889 292.717 108.889H264.896V56.2559H278.055V69.7901Z" fill="#404040"/>
<path d="M310.01 98.3621C320.161 99.114 328.206 99.49 334.071 99.49C334.823 99.49 335.425 99.2644 335.951 98.7381C336.477 98.2117 336.703 97.6102 336.703 96.8583V94.2267H320.537C317.154 94.2267 314.371 93.174 312.341 91.1439C310.311 89.1138 309.259 86.3317 309.259 82.9482V80.3166C309.259 76.933 310.311 74.151 312.341 72.1209C314.371 70.0907 317.154 69.0381 320.537 69.0381H346.102V78.8128H325.048C324.297 78.8128 323.695 79.0383 323.169 79.5647C322.642 80.091 322.417 80.6925 322.417 81.4444C322.417 82.1963 322.642 82.7978 323.169 83.3242C323.695 83.8505 324.297 84.076 325.048 84.076H338.583C341.966 84.076 344.748 85.1287 346.778 87.1588C348.809 89.189 349.861 91.971 349.861 95.3545V98.3621C349.861 101.746 348.809 104.528 346.778 106.558C344.748 108.588 341.966 109.641 338.583 109.641C329.71 109.641 320.161 109.114 310.01 108.137V98.3621Z" fill="#404040"/>
<path d="M395.727 97.6104C395.727 101.37 394.674 104.302 392.569 106.408C390.388 108.588 387.456 109.641 383.696 109.641H366.403C362.643 109.641 359.711 108.588 357.605 106.408C355.425 104.302 354.372 101.37 354.372 97.6104V80.3167C354.372 76.5572 355.425 73.6248 357.605 71.4443C359.711 69.339 362.643 68.2863 366.403 68.2863H383.696C387.456 68.2863 390.388 69.339 392.569 71.4443C394.674 73.6248 395.727 76.5572 395.727 80.3167V97.6104ZM382.569 81.4445C382.569 79.4144 381.591 78.4369 379.561 78.4369H370.538C368.508 78.4369 367.531 79.4144 367.531 81.4445V96.4825C367.531 98.5126 368.508 99.4901 370.538 99.4901H379.561C381.591 99.4901 382.569 98.5126 382.569 96.4825V81.4445Z" fill="#404040"/>
<path d="M422.795 108.889C419.412 109.415 416.254 109.641 413.246 109.641C410.164 109.641 407.607 108.588 405.577 106.558C403.547 104.528 402.494 101.746 402.494 98.3622V56.2559H415.652V96.4825C415.652 97.2344 415.878 97.8359 416.404 98.3622C416.931 98.8886 417.532 99.1141 418.284 99.1141H422.795V108.889Z" fill="#404040"/>
<path d="M451.743 69.0381H465.654L450.616 108.889H435.578L420.54 69.0381H434.45L443.097 96.1064L451.743 69.0381Z" fill="#404040"/>
<path d="M483.323 77.685C481.293 77.685 480.316 78.6625 480.316 80.6926V84.8281H493.098V80.6926C493.098 78.6625 492.121 77.685 490.09 77.685H483.323ZM504.753 108.137C495.053 109.114 486.331 109.641 478.436 109.641C475.052 109.641 472.27 108.588 470.24 106.558C468.21 104.528 467.157 101.746 467.157 98.3623V80.3167C467.157 76.5572 468.21 73.6248 470.391 71.4443C472.496 69.339 475.428 68.2863 479.188 68.2863H494.226C497.985 68.2863 500.918 69.339 503.098 71.4443C505.204 73.6248 506.256 76.5572 506.256 80.3167V94.2268H480.316V97.2344C480.316 97.9863 480.541 98.5878 481.068 99.1142C481.594 99.6405 482.195 99.8661 482.947 99.8661C487.91 99.8661 495.203 99.4901 504.753 98.7382V108.137Z" fill="#404040"/>
<path d="M535.205 79.1888C532.573 79.1888 529.565 79.7152 526.182 80.6926V108.889H513.024V69.0382H524.678L525.43 72.7977C527.761 71.2187 530.242 70.0909 532.723 69.339C535.13 68.6623 537.235 68.2863 538.964 68.2863H542.348C545.731 68.2863 548.513 69.339 550.544 71.3691C552.574 73.3992 553.626 76.1813 553.626 79.5648V108.889H540.468V81.8205C540.468 81.0686 540.242 80.4671 539.716 79.9407C539.19 79.4144 538.588 79.1888 537.836 79.1888H535.205Z" fill="#404040"/>
<path d="M588.213 108.888C583.326 109.415 578.589 109.64 573.927 109.64C570.544 109.64 567.762 108.588 565.731 106.558C563.701 104.527 562.649 101.745 562.649 98.3619V79.1885H558.137V69.0379H562.649L564.152 60.0151H575.807V69.0379H585.206V79.1885H575.807V96.4821C575.807 97.234 576.032 97.8356 576.559 98.3619C577.085 98.8882 577.687 99.1138 578.439 99.1138H588.213V108.888Z" fill="#404040"/>
<path d="M591.973 98.3621C602.124 99.114 610.169 99.49 616.034 99.49C616.786 99.49 617.387 99.2644 617.914 98.7381C618.44 98.2117 618.666 97.6102 618.666 96.8583V94.2267H602.5C599.116 94.2267 596.334 93.174 594.304 91.1439C592.274 89.1138 591.221 86.3317 591.221 82.9482V80.3166C591.221 76.933 592.274 74.151 594.304 72.1209C596.334 70.0907 599.116 69.0381 602.5 69.0381H628.064V78.8128H607.011C606.259 78.8128 605.658 79.0383 605.131 79.5647C604.605 80.091 604.379 80.6925 604.379 81.4444C604.379 82.1963 604.605 82.7978 605.131 83.3242C605.658 83.8505 606.259 84.076 607.011 84.076H620.545C623.929 84.076 626.711 85.1287 628.741 87.1588C630.771 89.189 631.824 91.971 631.824 95.3545V98.3621C631.824 101.746 630.771 104.528 628.741 106.558C626.711 108.588 623.929 109.641 620.545 109.641C611.673 109.641 602.124 109.114 591.973 108.137V98.3621Z" fill="#404040"/>
<path d="M650.245 93.099V108.889H637.087V56.2559H650.245V82.9483H656.261L664.532 69.0382H678.442L667.163 88.2116L678.442 108.889H664.532L655.885 93.099H650.245Z" fill="#404040"/>
<path d="M692.728 122.423C690.097 122.423 686.788 122.197 682.954 121.671V111.896H689.721C691.601 111.896 692.879 111.37 693.48 110.317C694.007 109.264 693.931 107.761 693.104 105.881L677.69 69.0378H691.601L700.999 94.6024L708.894 69.0378H722.804L707.766 110.392C706.338 114.377 704.458 117.31 702.127 119.34C699.796 121.37 696.714 122.423 692.728 122.423ZM694.608 66.7822L699.12 53.9999H712.654L704.383 66.7822H694.608Z" fill="#404040"/>
<path d="M234.444 172.711L247.227 135.868H261.889L241.963 188.5H226.925L207 135.868H221.662L234.444 172.711Z" fill="#404040"/>
<path d="M278.054 157.297C276.024 157.297 275.047 158.275 275.047 160.305V164.44H287.829V160.305C287.829 158.275 286.852 157.297 284.821 157.297H278.054ZM299.483 187.749C289.784 188.726 281.062 189.253 273.167 189.253C269.783 189.253 267.001 188.2 264.971 186.17C262.941 184.14 261.888 181.358 261.888 177.974V159.929C261.888 156.169 262.941 153.237 265.122 151.056C267.227 148.951 270.159 147.898 273.919 147.898H288.957C292.716 147.898 295.649 148.951 297.829 151.056C299.935 153.237 300.987 156.169 300.987 159.929V173.839H275.047V176.846C275.047 177.598 275.272 178.2 275.799 178.726C276.325 179.253 276.926 179.478 277.678 179.478C282.641 179.478 289.934 179.102 299.483 178.35V187.749Z" fill="#404040"/>
<path d="M328.056 188.5C324.672 189.027 321.514 189.252 318.507 189.252C315.424 189.252 312.868 188.2 310.837 186.17C308.807 184.139 307.755 181.357 307.755 177.974V135.868H320.913V176.094C320.913 176.846 321.138 177.448 321.665 177.974C322.191 178.5 322.793 178.726 323.545 178.726H328.056V188.5Z" fill="#404040"/>
<path d="M348.733 157.297C346.703 157.297 345.726 158.275 345.726 160.305V164.44H358.508V160.305C358.508 158.275 357.53 157.297 355.5 157.297H348.733ZM370.162 187.749C360.463 188.726 351.741 189.253 343.846 189.253C340.462 189.253 337.68 188.2 335.65 186.17C333.62 184.14 332.567 181.358 332.567 177.974V159.929C332.567 156.169 333.62 153.237 335.801 151.056C337.906 148.951 340.838 147.898 344.598 147.898H359.636C363.395 147.898 366.328 148.951 368.508 151.056C370.614 153.237 371.666 156.169 371.666 159.929V173.839H345.726V176.846C345.726 177.598 345.951 178.2 346.478 178.726C347.004 179.253 347.605 179.478 348.357 179.478C353.32 179.478 360.613 179.102 370.162 178.35V187.749Z" fill="#404040"/>
<path d="M391.592 149.402C396.479 148.424 400.69 147.898 404.374 147.898H407.757C411.141 147.898 413.923 148.951 415.953 150.981C417.983 153.011 419.036 155.793 419.036 159.176V188.5H405.878V160.68C405.878 159.928 405.652 159.327 405.126 158.8C404.599 158.274 403.998 158.049 403.246 158.049H400.614C398.735 158.049 397.005 158.124 395.426 158.349C393.847 158.575 392.569 158.725 391.592 158.8V188.5H378.433V135.868H391.592V149.402Z" fill="#404040"/>
<path d="M448.736 159.553C445.578 159.553 442.345 160.305 438.961 161.808V188.501H425.803V148.65H437.457L438.209 153.538C442.495 149.778 447.007 147.898 451.744 147.898H455.127V159.553H448.736Z" fill="#404040"/>
<path d="M473.173 178.726C475.804 178.726 478.812 178.2 482.196 177.222V172.711H471.293C470.541 172.711 469.94 172.937 469.413 173.463C468.887 173.989 468.661 174.591 468.661 175.343V176.095C468.661 176.846 468.887 177.448 469.413 177.974C469.94 178.501 470.541 178.726 471.293 178.726H473.173ZM459.263 149.402C468.436 148.425 476.707 147.898 484.075 147.898C487.459 147.898 490.241 148.951 492.271 150.981C494.301 153.011 495.354 155.793 495.354 159.177V188.501H483.699L482.948 184.741C480.617 186.32 478.211 187.448 475.729 188.125C473.248 188.877 471.143 189.253 469.413 189.253H466.782C463.398 189.253 460.616 188.2 458.586 186.17C456.556 184.14 455.503 181.358 455.503 177.974V174.591C455.503 171.207 456.556 168.425 458.586 166.395C460.616 164.365 463.398 163.312 466.782 163.312H482.196V160.305C482.196 159.553 481.97 158.951 481.444 158.425C480.917 157.899 480.316 157.673 479.564 157.673C476.331 157.673 472.722 157.823 468.812 158.124C464.827 158.425 461.669 158.651 459.263 158.801V149.402Z" fill="#404040"/>
<path d="M530.317 188.5L529.565 184.741C527.235 186.32 524.828 187.448 522.347 188.124C519.791 188.876 517.761 189.252 516.031 189.252H512.648C509.264 189.252 506.482 188.2 504.452 186.17C502.422 184.139 501.369 181.357 501.369 177.974V160.68C501.369 156.921 502.422 153.988 504.602 151.808C506.708 149.702 509.64 148.65 513.4 148.65H528.814V135.868H541.972V188.5H530.317ZM519.791 178.35C522.422 178.35 525.43 177.823 528.814 176.846V158.8H517.535C515.505 158.8 514.527 159.778 514.527 161.808V175.718C514.527 176.47 514.753 177.072 515.279 177.598C515.806 178.124 516.407 178.35 517.159 178.35H519.791Z" fill="#404040"/>
<path d="M610.395 152.409C610.395 156.695 608.59 160.379 604.981 163.462C603.853 164.44 602.65 165.342 601.372 166.319L585.206 177.974H610.395V188.5H569.792V174.214L596.861 154.665V150.906C596.861 147.898 595.357 146.394 592.349 146.394H571.296V135.868H595.357C600.62 135.868 604.455 137.071 606.861 139.401C609.192 141.808 610.395 145.642 610.395 150.906V152.409Z" fill="#404040"/>
<path d="M646.486 150.153C646.486 147.146 644.982 145.642 641.975 145.642H633.704C630.696 145.642 629.192 147.146 629.192 150.153V174.214C629.192 177.222 630.696 178.726 633.704 178.726H641.975C644.982 178.726 646.486 177.222 646.486 174.214V150.153ZM660.02 174.214C660.02 179.477 658.817 183.312 656.486 185.643C654.08 188.049 650.246 189.252 644.982 189.252H630.696C625.433 189.252 621.598 188.049 619.192 185.643C616.861 183.312 615.658 179.477 615.658 174.214V150.153C615.658 144.89 616.861 141.055 619.192 138.649C621.598 136.318 625.433 135.115 630.696 135.115H644.982C650.246 135.115 654.08 136.318 656.486 138.649C658.817 141.055 660.02 144.89 660.02 150.153V174.214Z" fill="#404040"/>
<path d="M705.134 152.409C705.134 156.695 703.33 160.379 699.72 163.462C698.593 164.44 697.39 165.342 696.111 166.319L679.945 177.974H705.134V188.5H664.531V174.214L691.6 154.665V150.906C691.6 147.898 690.096 146.394 687.089 146.394H666.035V135.868H690.096C695.359 135.868 699.194 137.071 701.6 139.401C703.931 141.808 705.134 145.642 705.134 150.906V152.409Z" fill="#404040"/>
<path d="M736.714 189.252C728.368 189.252 719.044 188.726 708.894 187.749V177.598C719.946 178.35 728.217 178.726 733.706 178.726C734.834 178.726 735.812 178.35 736.488 177.748C737.165 176.996 737.466 176.094 737.466 174.966V171.959C737.466 168.951 735.962 167.447 732.954 167.447H717.164V156.921H731.451C734.458 156.921 735.962 155.417 735.962 152.409V150.906C735.962 147.898 734.458 146.394 731.451 146.394H709.645V135.868H735.21C740.097 135.868 743.707 136.995 746.037 139.176C748.368 141.432 749.496 144.815 749.496 149.402C749.496 152.409 748.819 154.815 747.466 156.695C746.037 158.575 744.233 159.928 741.977 160.68C746.037 161.808 748.819 164.515 750.248 168.801C750.774 170.38 751 172.184 751 174.214V174.966C751 179.854 749.872 183.463 747.541 185.794C745.21 188.124 741.601 189.252 736.714 189.252Z" fill="#404040"/>
<path d="M0 6.48138C0 2.90171 2.90171 0 6.48137 0H90.7391C94.3188 0 97.2205 2.90171 97.2205 6.48138V122.498C97.2205 126.078 94.3188 128.979 90.7391 128.979H6.48137C2.90171 128.979 0 126.078 0 122.498V6.48138Z" fill="#2C677B"/>
<path fill-rule="evenodd" clip-rule="evenodd" d="M97.2206 117.114C97.2206 110.784 92.0822 105.646 85.7531 105.646H34.8005C28.4714 105.646 23.333 110.784 23.333 117.114V196.584C23.333 202.913 28.4714 208.052 34.8005 208.052H85.7531C92.0822 208.052 97.2206 202.913 97.2206 196.584V117.114Z" fill="#E0B73B"/>
<path fill-rule="evenodd" clip-rule="evenodd" d="M171.119 34.8006C171.119 28.4715 165.981 23.3331 159.652 23.3331H85.3662C79.0371 23.3331 73.8987 28.4715 73.8987 34.8006V117.512C73.8987 123.841 79.0371 128.98 85.3662 128.98H159.652C165.981 128.98 171.119 123.841 171.119 117.512V34.8006Z" fill="#BA5D3F"/>
<path fill-rule="evenodd" clip-rule="evenodd" d="M147.776 117.114C147.776 110.784 142.637 105.646 136.309 105.646H85.3663C79.0375 105.646 73.8992 110.784 73.8992 117.114V219.917C73.8992 226.246 79.0375 231.385 85.3663 231.385H136.309C142.637 231.385 147.776 226.246 147.776 219.917V117.114Z" fill="#2A77A0"/>
<path d="M97.2204 23.3331H73.8875V208.052H97.2204V23.3331Z" fill="white"/>
<path d="M124.442 54.4438H46.6658V77.7768H124.442V54.4438Z" fill="white"/>
<path d="M147.775 105.646H23.333V128.979H147.775V105.646Z" fill="white"/>
</svg>
