<svg xmlns="http://www.w3.org/2000/svg" xmlns:xlink="http://www.w3.org/1999/xlink" width="1366" zoomAndPan="magnify" viewBox="0 0 1024.5 576" height="768" preserveAspectRatio="xMidYMid meet" version="1.0"><defs><g/></defs><g fill="#1c6758" fill-opacity="1"><g transform="translate(25.607649, 368.296221)"><g><path d="M 150.765625 -89.4375 C 160.867188 -85.6875 168.6875 -80.226562 174.21875 -73.0625 C 179.757812 -65.894531 182.53125 -57.257812 182.53125 -47.15625 C 182.53125 -32.175781 176.335938 -20.570312 163.953125 -12.34375 C 151.578125 -4.113281 133.660156 0 110.203125 0 L 13.921875 0 L 13.921875 -171.046875 L 105.3125 -171.046875 C 128.125 -171.046875 145.351562 -166.972656 157 -158.828125 C 168.644531 -150.679688 174.46875 -139.847656 174.46875 -126.328125 C 174.46875 -118.347656 172.472656 -111.179688 168.484375 -104.828125 C 164.492188 -98.472656 158.585938 -93.34375 150.765625 -89.4375 Z M 70.625 -130.734375 L 70.625 -105.3125 L 97.5 -105.3125 C 110.039062 -105.3125 116.3125 -109.550781 116.3125 -118.03125 C 116.3125 -126.5 110.039062 -130.734375 97.5 -130.734375 Z M 105.3125 -40.3125 C 118.019531 -40.3125 124.375 -44.796875 124.375 -53.765625 C 124.375 -62.722656 118.019531 -67.203125 105.3125 -67.203125 L 70.625 -67.203125 L 70.625 -40.3125 Z M 105.3125 -40.3125 "/></g></g></g><g fill="#1c6758" fill-opacity="1"><g transform="translate(211.07194, 368.296221)"><g><path d="M 13.921875 -171.046875 L 71.59375 -171.046875 L 71.59375 0 L 13.921875 0 Z M 13.921875 -171.046875 "/></g></g></g><g fill="#1c6758" fill-opacity="1"><g transform="translate(293.174676, 368.296221)"><g><path d="M 77.703125 3.90625 C 63.535156 3.90625 49.726562 2.316406 36.28125 -0.859375 C 22.84375 -4.035156 11.804688 -8.3125 3.171875 -13.6875 L 21.75 -55.71875 C 29.894531 -50.988281 39.015625 -47.195312 49.109375 -44.34375 C 59.210938 -41.5 68.90625 -40.078125 78.1875 -40.078125 C 86.175781 -40.078125 91.878906 -40.847656 95.296875 -42.390625 C 98.722656 -43.941406 100.4375 -46.265625 100.4375 -49.359375 C 100.4375 -52.941406 98.191406 -55.628906 93.703125 -57.421875 C 89.222656 -59.210938 81.851562 -61.171875 71.59375 -63.296875 C 58.394531 -66.054688 47.394531 -69.023438 38.59375 -72.203125 C 29.800781 -75.378906 22.144531 -80.59375 15.625 -87.84375 C 9.113281 -95.09375 5.859375 -104.910156 5.859375 -117.296875 C 5.859375 -128.046875 8.875 -137.816406 14.90625 -146.609375 C 20.9375 -155.410156 29.9375 -162.335938 41.90625 -167.390625 C 53.882812 -172.441406 68.425781 -174.96875 85.53125 -174.96875 C 97.257812 -174.96875 108.78125 -173.703125 120.09375 -171.171875 C 131.414062 -168.648438 141.394531 -164.945312 150.03125 -160.0625 L 132.6875 -118.265625 C 115.90625 -126.742188 100.019531 -130.984375 85.03125 -130.984375 C 70.207031 -130.984375 62.796875 -127.394531 62.796875 -120.21875 C 62.796875 -116.800781 64.992188 -114.238281 69.390625 -112.53125 C 73.796875 -110.820312 81.046875 -108.988281 91.140625 -107.03125 C 104.171875 -104.582031 115.164062 -101.769531 124.125 -98.59375 C 133.09375 -95.414062 140.875 -90.242188 147.46875 -83.078125 C 154.070312 -75.910156 157.375 -66.140625 157.375 -53.765625 C 157.375 -43.003906 154.359375 -33.265625 148.328125 -24.546875 C 142.296875 -15.835938 133.289062 -8.914062 121.3125 -3.78125 C 109.34375 1.34375 94.804688 3.90625 77.703125 3.90625 Z M 77.703125 3.90625 "/></g></g></g><g fill="#1c6758" fill-opacity="1"><g transform="translate(450.293977, 368.296221)"><g><path d="M 102.390625 3.90625 C 84.304688 3.90625 68.015625 0.117188 53.515625 -7.453125 C 39.015625 -15.023438 27.648438 -25.613281 19.421875 -39.21875 C 11.203125 -52.820312 7.09375 -68.257812 7.09375 -85.53125 C 7.09375 -102.789062 11.203125 -118.222656 19.421875 -131.828125 C 27.648438 -145.429688 39.015625 -156.019531 53.515625 -163.59375 C 68.015625 -171.175781 84.304688 -174.96875 102.390625 -174.96875 C 119.003906 -174.96875 133.828125 -172.035156 146.859375 -166.171875 C 159.890625 -160.304688 170.640625 -151.832031 179.109375 -140.75 L 142.703125 -108.25 C 132.117188 -121.601562 119.65625 -128.28125 105.3125 -128.28125 C 93.257812 -128.28125 83.566406 -124.410156 76.234375 -116.671875 C 68.910156 -108.941406 65.25 -98.5625 65.25 -85.53125 C 65.25 -72.5 68.910156 -62.113281 76.234375 -54.375 C 83.566406 -46.632812 93.257812 -42.765625 105.3125 -42.765625 C 119.65625 -42.765625 132.117188 -49.441406 142.703125 -62.796875 L 179.109375 -30.296875 C 170.640625 -19.222656 159.890625 -10.753906 146.859375 -4.890625 C 133.828125 0.972656 119.003906 3.90625 102.390625 3.90625 Z M 102.390625 3.90625 "/></g></g></g><g fill="#1c6758" fill-opacity="1"><g transform="translate(628.672009, 368.296221)"><g><path d="M 95.78125 3.90625 C 69.5625 3.90625 49.117188 -3.175781 34.453125 -17.34375 C 19.796875 -31.519531 12.46875 -51.394531 12.46875 -76.96875 L 12.46875 -171.046875 L 70.125 -171.046875 L 70.125 -78.6875 C 70.125 -66.144531 72.363281 -57.019531 76.84375 -51.3125 C 81.332031 -45.613281 87.8125 -42.765625 96.28125 -42.765625 C 104.75 -42.765625 111.222656 -45.613281 115.703125 -51.3125 C 120.179688 -57.019531 122.421875 -66.144531 122.421875 -78.6875 L 122.421875 -171.046875 L 179.109375 -171.046875 L 179.109375 -76.96875 C 179.109375 -51.394531 171.773438 -31.519531 157.109375 -17.34375 C 142.453125 -3.175781 122.007812 3.90625 95.78125 3.90625 Z M 95.78125 3.90625 "/></g></g></g><g fill="#1c6758" fill-opacity="1"><g transform="translate(816.824221, 368.296221)"><g><path d="M 96.28125 -171.046875 C 112.082031 -171.046875 125.847656 -168.4375 137.578125 -163.21875 C 149.304688 -158.007812 158.347656 -150.519531 164.703125 -140.75 C 171.054688 -130.976562 174.234375 -119.578125 174.234375 -106.546875 C 174.234375 -93.503906 171.054688 -82.097656 164.703125 -72.328125 C 158.347656 -62.554688 149.304688 -55.0625 137.578125 -49.84375 C 125.847656 -44.632812 112.082031 -42.03125 96.28125 -42.03125 L 71.59375 -42.03125 L 71.59375 0 L 13.921875 0 L 13.921875 -171.046875 Z M 92.609375 -86.5 C 100.429688 -86.5 106.296875 -88.25 110.203125 -91.75 C 114.117188 -95.257812 116.078125 -100.191406 116.078125 -106.546875 C 116.078125 -112.898438 114.117188 -117.828125 110.203125 -121.328125 C 106.296875 -124.828125 100.429688 -126.578125 92.609375 -126.578125 L 71.59375 -126.578125 L 71.59375 -86.5 Z M 92.609375 -86.5 "/></g></g></g><g fill="#1c6758" fill-opacity="1"><g transform="translate(41.515946, 431.824984)"><g><path d="M 3.234375 -27.21875 L 15.59375 -27.21875 C 18.539062 -27.21875 21.148438 -26.648438 23.421875 -25.515625 C 25.691406 -24.390625 27.453125 -22.800781 28.703125 -20.75 C 29.960938 -18.707031 30.59375 -16.328125 30.59375 -13.609375 C 30.59375 -10.890625 29.960938 -8.503906 28.703125 -6.453125 C 27.453125 -4.398438 25.691406 -2.8125 23.421875 -1.6875 C 21.148438 -0.5625 18.539062 0 15.59375 0 L 3.234375 0 Z M 15.28125 -5.171875 C 18 -5.171875 20.164062 -5.925781 21.78125 -7.4375 C 23.40625 -8.957031 24.21875 -11.015625 24.21875 -13.609375 C 24.21875 -16.203125 23.40625 -18.253906 21.78125 -19.765625 C 20.164062 -21.285156 18 -22.046875 15.28125 -22.046875 L 9.53125 -22.046875 L 9.53125 -5.171875 Z M 15.28125 -5.171875 "/></g></g></g><g fill="#1c6758" fill-opacity="1"><g transform="translate(81.325681, 431.824984)"><g><path d="M 3.234375 -27.21875 L 9.53125 -27.21875 L 9.53125 0 L 3.234375 0 Z M 3.234375 -27.21875 "/></g></g></g><g fill="#1c6758" fill-opacity="1"><g transform="translate(101.775384, 431.824984)"><g><path d="M 24.296875 -5.046875 L 24.296875 0 L 3.234375 0 L 3.234375 -27.21875 L 23.796875 -27.21875 L 23.796875 -22.15625 L 9.484375 -22.15625 L 9.484375 -16.25 L 22.125 -16.25 L 22.125 -11.34375 L 9.484375 -11.34375 L 9.484375 -5.046875 Z M 24.296875 -5.046875 "/></g></g></g><g fill="#1c6758" fill-opacity="1"><g transform="translate(135.559403, 431.824984)"><g><path d="M 16.25 0.46875 C 13.476562 0.46875 10.96875 -0.132812 8.71875 -1.34375 C 6.476562 -2.550781 4.71875 -4.222656 3.4375 -6.359375 C 2.15625 -8.492188 1.515625 -10.910156 1.515625 -13.609375 C 1.515625 -16.304688 2.15625 -18.722656 3.4375 -20.859375 C 4.71875 -22.992188 6.476562 -24.660156 8.71875 -25.859375 C 10.96875 -27.066406 13.488281 -27.671875 16.28125 -27.671875 C 18.644531 -27.671875 20.78125 -27.253906 22.6875 -26.421875 C 24.59375 -25.597656 26.191406 -24.410156 27.484375 -22.859375 L 23.4375 -19.125 C 21.601562 -21.25 19.320312 -22.3125 16.59375 -22.3125 C 14.914062 -22.3125 13.414062 -21.941406 12.09375 -21.203125 C 10.769531 -20.460938 9.738281 -19.429688 9 -18.109375 C 8.257812 -16.796875 7.890625 -15.296875 7.890625 -13.609375 C 7.890625 -11.921875 8.257812 -10.414062 9 -9.09375 C 9.738281 -7.769531 10.769531 -6.738281 12.09375 -6 C 13.414062 -5.257812 14.914062 -4.890625 16.59375 -4.890625 C 19.320312 -4.890625 21.601562 -5.96875 23.4375 -8.125 L 27.484375 -4.390625 C 26.191406 -2.804688 24.582031 -1.597656 22.65625 -0.765625 C 20.738281 0.0546875 18.601562 0.46875 16.25 0.46875 Z M 16.25 0.46875 "/></g></g></g><g fill="#1c6758" fill-opacity="1"><g transform="translate(171.75371, 431.824984)"><g><path d="M 24.296875 -5.046875 L 24.296875 0 L 3.234375 0 L 3.234375 -27.21875 L 23.796875 -27.21875 L 23.796875 -22.15625 L 9.484375 -22.15625 L 9.484375 -16.25 L 22.125 -16.25 L 22.125 -11.34375 L 9.484375 -11.34375 L 9.484375 -5.046875 Z M 15.234375 -35.03125 L 21.765625 -35.03125 L 14.734375 -29.421875 L 9.984375 -29.421875 Z M 15.234375 -35.03125 "/></g></g></g><g fill="#1c6758" fill-opacity="1"><g transform="translate(205.537735, 431.824984)"><g><path d="M 25.265625 -5.125 L 25.265625 0 L 1.484375 0 L 1.484375 -4.078125 L 16.40625 -22.078125 L 1.78125 -22.078125 L 1.78125 -27.21875 L 24.6875 -27.21875 L 24.6875 -23.125 L 9.796875 -5.125 Z M 25.265625 -5.125 "/></g></g></g><g fill="#1c6758" fill-opacity="1"><g transform="translate(239.321759, 431.824984)"><g><path d="M 28.1875 -27.21875 L 28.1875 0 L 23.015625 0 L 9.453125 -16.515625 L 9.453125 0 L 3.234375 0 L 3.234375 -27.21875 L 8.4375 -27.21875 L 21.96875 -10.6875 L 21.96875 -27.21875 Z M 28.1875 -27.21875 "/></g></g></g><g fill="#1c6758" fill-opacity="1"><g transform="translate(278.431737, 431.824984)"><g><path d="M 3.234375 -27.21875 L 9.53125 -27.21875 L 9.53125 0 L 3.234375 0 Z M 8.078125 -35.03125 L 14.609375 -35.03125 L 7.578125 -29.421875 L 2.828125 -29.421875 Z M 8.078125 -35.03125 "/></g></g></g><g fill="#1c6758" fill-opacity="1"><g transform="translate(298.881435, 431.824984)"><g/></g></g><g fill="#1c6758" fill-opacity="1"><g transform="translate(317.58175, 431.824984)"><g><path d="M 12.171875 0.46875 C 10.015625 0.46875 7.929688 0.175781 5.921875 -0.40625 C 3.921875 -0.988281 2.3125 -1.75 1.09375 -2.6875 L 3.234375 -7.421875 C 4.390625 -6.566406 5.769531 -5.878906 7.375 -5.359375 C 8.988281 -4.847656 10.597656 -4.59375 12.203125 -4.59375 C 13.992188 -4.59375 15.316406 -4.859375 16.171875 -5.390625 C 17.023438 -5.921875 17.453125 -6.625 17.453125 -7.5 C 17.453125 -8.144531 17.195312 -8.679688 16.6875 -9.109375 C 16.1875 -9.535156 15.539062 -9.878906 14.75 -10.140625 C 13.957031 -10.398438 12.890625 -10.6875 11.546875 -11 C 9.472656 -11.488281 7.773438 -11.976562 6.453125 -12.46875 C 5.128906 -12.96875 3.992188 -13.757812 3.046875 -14.84375 C 2.097656 -15.9375 1.625 -17.390625 1.625 -19.203125 C 1.625 -20.785156 2.050781 -22.21875 2.90625 -23.5 C 3.769531 -24.78125 5.0625 -25.796875 6.78125 -26.546875 C 8.507812 -27.296875 10.613281 -27.671875 13.09375 -27.671875 C 14.832031 -27.671875 16.53125 -27.460938 18.1875 -27.046875 C 19.851562 -26.640625 21.304688 -26.046875 22.546875 -25.265625 L 20.609375 -20.484375 C 18.085938 -21.910156 15.570312 -22.625 13.0625 -22.625 C 11.300781 -22.625 10 -22.335938 9.15625 -21.765625 C 8.3125 -21.203125 7.890625 -20.453125 7.890625 -19.515625 C 7.890625 -18.578125 8.375 -17.878906 9.34375 -17.421875 C 10.320312 -16.972656 11.804688 -16.53125 13.796875 -16.09375 C 15.867188 -15.601562 17.566406 -15.109375 18.890625 -14.609375 C 20.210938 -14.117188 21.347656 -13.34375 22.296875 -12.28125 C 23.242188 -11.21875 23.71875 -9.78125 23.71875 -7.96875 C 23.71875 -6.414062 23.28125 -4.992188 22.40625 -3.703125 C 21.539062 -2.421875 20.238281 -1.40625 18.5 -0.65625 C 16.769531 0.09375 14.660156 0.46875 12.171875 0.46875 Z M 12.171875 0.46875 "/></g></g></g><g fill="#1c6758" fill-opacity="1"><g transform="translate(350.082878, 431.824984)"><g><path d="M 24.296875 -5.046875 L 24.296875 0 L 3.234375 0 L 3.234375 -27.21875 L 23.796875 -27.21875 L 23.796875 -22.15625 L 9.484375 -22.15625 L 9.484375 -16.25 L 22.125 -16.25 L 22.125 -11.34375 L 9.484375 -11.34375 L 9.484375 -5.046875 Z M 24.296875 -5.046875 "/></g></g></g><g fill="#1c6758" fill-opacity="1"><g transform="translate(383.866902, 431.824984)"><g><path d="M 8.859375 -22.078125 L 0.15625 -22.078125 L 0.15625 -27.21875 L 23.875 -27.21875 L 23.875 -22.078125 L 15.15625 -22.078125 L 15.15625 0 L 8.859375 0 Z M 8.859375 -22.078125 "/></g></g></g><g fill="#1c6758" fill-opacity="1"><g transform="translate(415.590531, 431.824984)"><g><path d="M 13.140625 -10.6875 L 9.484375 -6.875 L 9.484375 0 L 3.234375 0 L 3.234375 -27.21875 L 9.484375 -27.21875 L 9.484375 -14.5 L 21.53125 -27.21875 L 28.53125 -27.21875 L 17.265625 -15.078125 L 29.1875 0 L 21.84375 0 Z M 13.140625 -10.6875 "/></g></g></g><g fill="#1c6758" fill-opacity="1"><g transform="translate(452.056977, 431.824984)"><g><path d="M 21.140625 -5.828125 L 8.515625 -5.828125 L 6.109375 0 L -0.34375 0 L 11.78125 -27.21875 L 18 -27.21875 L 30.171875 0 L 23.5625 0 Z M 19.171875 -10.609375 L 14.84375 -21.03125 L 10.53125 -10.609375 Z M 16.59375 -35.03125 L 23.125 -35.03125 L 16.09375 -29.421875 L 11.34375 -29.421875 Z M 16.59375 -35.03125 "/></g></g></g><g fill="#1c6758" fill-opacity="1"><g transform="translate(489.534199, 431.824984)"><g><path d="M 28.1875 -27.21875 L 28.1875 0 L 23.015625 0 L 9.453125 -16.515625 L 9.453125 0 L 3.234375 0 L 3.234375 -27.21875 L 8.4375 -27.21875 L 21.96875 -10.6875 L 21.96875 -27.21875 Z M 28.1875 -27.21875 "/></g></g></g><g fill="#1c6758" fill-opacity="1"><g transform="translate(528.644154, 431.824984)"><g><path d="M 3.234375 -27.21875 L 9.53125 -27.21875 L 9.53125 0 L 3.234375 0 Z M 8.078125 -35.03125 L 14.609375 -35.03125 L 7.578125 -29.421875 L 2.828125 -29.421875 Z M 8.078125 -35.03125 "/></g></g></g><g fill="#1c6758" fill-opacity="1"><g transform="translate(549.093874, 431.824984)"><g/></g></g><g fill="#1c6758" fill-opacity="1"><g transform="translate(567.794189, 431.824984)"><g><path d="M 27.984375 0 L 27.953125 -16.328125 L 19.9375 -2.875 L 17.109375 -2.875 L 9.140625 -15.984375 L 9.140625 0 L 3.234375 0 L 3.234375 -27.21875 L 8.4375 -27.21875 L 18.625 -10.296875 L 28.65625 -27.21875 L 33.828125 -27.21875 L 33.90625 0 Z M 27.984375 0 "/></g></g></g><g fill="#1c6758" fill-opacity="1"><g transform="translate(612.618868, 431.824984)"><g><path d="M 3.234375 -27.21875 L 9.53125 -27.21875 L 9.53125 -5.125 L 23.171875 -5.125 L 23.171875 0 L 3.234375 0 Z M 3.234375 -27.21875 "/></g></g></g><g fill="#1c6758" fill-opacity="1"><g transform="translate(643.79823, 431.824984)"><g><path d="M 21.140625 -5.828125 L 8.515625 -5.828125 L 6.109375 0 L -0.34375 0 L 11.78125 -27.21875 L 18 -27.21875 L 30.171875 0 L 23.5625 0 Z M 19.171875 -10.609375 L 14.84375 -21.03125 L 10.53125 -10.609375 Z M 16.59375 -35.03125 L 23.125 -35.03125 L 16.09375 -29.421875 L 11.34375 -29.421875 Z M 16.59375 -35.03125 "/></g></g></g><g fill="#1c6758" fill-opacity="1"><g transform="translate(681.275452, 431.824984)"><g><path d="M 3.234375 -27.21875 L 15.59375 -27.21875 C 18.539062 -27.21875 21.148438 -26.648438 23.421875 -25.515625 C 25.691406 -24.390625 27.453125 -22.800781 28.703125 -20.75 C 29.960938 -18.707031 30.59375 -16.328125 30.59375 -13.609375 C 30.59375 -10.890625 29.960938 -8.503906 28.703125 -6.453125 C 27.453125 -4.398438 25.691406 -2.8125 23.421875 -1.6875 C 21.148438 -0.5625 18.539062 0 15.59375 0 L 3.234375 0 Z M 15.28125 -5.171875 C 18 -5.171875 20.164062 -5.925781 21.78125 -7.4375 C 23.40625 -8.957031 24.21875 -11.015625 24.21875 -13.609375 C 24.21875 -16.203125 23.40625 -18.253906 21.78125 -19.765625 C 20.164062 -21.285156 18 -22.046875 15.28125 -22.046875 L 9.53125 -22.046875 L 9.53125 -5.171875 Z M 15.28125 -5.171875 "/></g></g></g><g fill="#1c6758" fill-opacity="1"><g transform="translate(721.085169, 431.824984)"><g><path d="M 24.296875 -5.046875 L 24.296875 0 L 3.234375 0 L 3.234375 -27.21875 L 23.796875 -27.21875 L 23.796875 -22.15625 L 9.484375 -22.15625 L 9.484375 -16.25 L 22.125 -16.25 L 22.125 -11.34375 L 9.484375 -11.34375 L 9.484375 -5.046875 Z M 24.296875 -5.046875 "/></g></g></g><g fill="#1c6758" fill-opacity="1"><g transform="translate(754.869171, 431.824984)"><g><path d="M 25.265625 -5.125 L 25.265625 0 L 1.484375 0 L 1.484375 -4.078125 L 16.40625 -22.078125 L 1.78125 -22.078125 L 1.78125 -27.21875 L 24.6875 -27.21875 L 24.6875 -23.125 L 9.796875 -5.125 Z M 21.1875 -35.03125 L 16.046875 -29.421875 L 10.6875 -29.421875 L 5.5625 -35.03125 L 9.984375 -35.03125 L 13.375 -32.109375 L 16.75 -35.03125 Z M 21.1875 -35.03125 "/></g></g></g><g fill="#1c6758" fill-opacity="1"><g transform="translate(788.653173, 431.824984)"><g><path d="M 24.296875 -5.046875 L 24.296875 0 L 3.234375 0 L 3.234375 -27.21875 L 23.796875 -27.21875 L 23.796875 -22.15625 L 9.484375 -22.15625 L 9.484375 -16.25 L 22.125 -16.25 L 22.125 -11.34375 L 9.484375 -11.34375 L 9.484375 -5.046875 Z M 24.296875 -5.046875 "/></g></g></g><g fill="#1c6758" fill-opacity="1"><g transform="translate(822.437221, 431.824984)"><g/></g></g><g fill="#d4cba3" fill-opacity="1"><g transform="translate(841.141286, 431.824984)"><g><path d="M 20.84375 -10.453125 L 25.890625 -10.453125 L 25.890625 -6.21875 L 20.328125 -6.21875 L 19.546875 0 L 15.15625 0 L 15.9375 -6.21875 L 10.21875 -6.21875 L 9.453125 0 L 5.09375 0 L 5.875 -6.21875 L 0.78125 -6.21875 L 0.78125 -10.453125 L 6.375 -10.453125 L 7.1875 -16.75 L 2.09375 -16.75 L 2.09375 -21 L 7.703125 -21 L 8.46875 -27.21875 L 12.828125 -27.21875 L 12.046875 -21 L 17.765625 -21 L 18.546875 -27.21875 L 22.890625 -27.21875 L 22.125 -21 L 27.171875 -21 L 27.21875 -16.75 L 21.609375 -16.75 Z M 16.4375 -10.453125 L 17.265625 -16.75 L 11.546875 -16.75 L 10.734375 -10.453125 Z M 16.4375 -10.453125 "/></g></g></g><g fill="#d4cba3" fill-opacity="1"><g transform="translate(876.830217, 431.824984)"><g><path d="M 3.234375 -27.21875 L 15.59375 -27.21875 C 18.539062 -27.21875 21.148438 -26.648438 23.421875 -25.515625 C 25.691406 -24.390625 27.453125 -22.800781 28.703125 -20.75 C 29.960938 -18.707031 30.59375 -16.328125 30.59375 -13.609375 C 30.59375 -10.890625 29.960938 -8.503906 28.703125 -6.453125 C 27.453125 -4.398438 25.691406 -2.8125 23.421875 -1.6875 C 21.148438 -0.5625 18.539062 0 15.59375 0 L 3.234375 0 Z M 15.28125 -5.171875 C 18 -5.171875 20.164062 -5.925781 21.78125 -7.4375 C 23.40625 -8.957031 24.21875 -11.015625 24.21875 -13.609375 C 24.21875 -16.203125 23.40625 -18.253906 21.78125 -19.765625 C 20.164062 -21.285156 18 -22.046875 15.28125 -22.046875 L 9.53125 -22.046875 L 9.53125 -5.171875 Z M 15.28125 -5.171875 "/></g></g></g><g fill="#d4cba3" fill-opacity="1"><g transform="translate(916.639952, 431.824984)"><g><path d="M 16.40625 0.46875 C 13.582031 0.46875 11.035156 -0.140625 8.765625 -1.359375 C 6.492188 -2.578125 4.71875 -4.253906 3.4375 -6.390625 C 2.15625 -8.535156 1.515625 -10.941406 1.515625 -13.609375 C 1.515625 -16.273438 2.15625 -18.675781 3.4375 -20.8125 C 4.71875 -22.957031 6.492188 -24.632812 8.765625 -25.84375 C 11.035156 -27.0625 13.582031 -27.671875 16.40625 -27.671875 C 19.226562 -27.671875 21.765625 -27.0625 24.015625 -25.84375 C 26.273438 -24.632812 28.050781 -22.957031 29.34375 -20.8125 C 30.644531 -18.675781 31.296875 -16.273438 31.296875 -13.609375 C 31.296875 -10.941406 30.644531 -8.535156 29.34375 -6.390625 C 28.050781 -4.253906 26.273438 -2.578125 24.015625 -1.359375 C 21.765625 -0.140625 19.226562 0.46875 16.40625 0.46875 Z M 16.40625 -4.890625 C 18.007812 -4.890625 19.457031 -5.257812 20.75 -6 C 22.050781 -6.738281 23.070312 -7.769531 23.8125 -9.09375 C 24.550781 -10.414062 24.921875 -11.921875 24.921875 -13.609375 C 24.921875 -15.296875 24.550781 -16.796875 23.8125 -18.109375 C 23.070312 -19.429688 22.050781 -20.460938 20.75 -21.203125 C 19.457031 -21.941406 18.007812 -22.3125 16.40625 -22.3125 C 14.800781 -22.3125 13.347656 -21.941406 12.046875 -21.203125 C 10.753906 -20.460938 9.738281 -19.429688 9 -18.109375 C 8.257812 -16.796875 7.890625 -15.296875 7.890625 -13.609375 C 7.890625 -11.921875 8.257812 -10.414062 9 -9.09375 C 9.738281 -7.769531 10.753906 -6.738281 12.046875 -6 C 13.347656 -5.257812 14.800781 -4.890625 16.40625 -4.890625 Z M 16.40625 -4.890625 "/></g></g></g><g fill="#d4cba3" fill-opacity="1"><g transform="translate(957.149454, 431.824984)"><g><path d="M 16.40625 0.46875 C 13.582031 0.46875 11.035156 -0.140625 8.765625 -1.359375 C 6.492188 -2.578125 4.71875 -4.253906 3.4375 -6.390625 C 2.15625 -8.535156 1.515625 -10.941406 1.515625 -13.609375 C 1.515625 -16.273438 2.15625 -18.675781 3.4375 -20.8125 C 4.71875 -22.957031 6.492188 -24.632812 8.765625 -25.84375 C 11.035156 -27.0625 13.582031 -27.671875 16.40625 -27.671875 C 19.226562 -27.671875 21.765625 -27.0625 24.015625 -25.84375 C 26.273438 -24.632812 28.050781 -22.957031 29.34375 -20.8125 C 30.644531 -18.675781 31.296875 -16.273438 31.296875 -13.609375 C 31.296875 -10.941406 30.644531 -8.535156 29.34375 -6.390625 C 28.050781 -4.253906 26.273438 -2.578125 24.015625 -1.359375 C 21.765625 -0.140625 19.226562 0.46875 16.40625 0.46875 Z M 16.40625 -4.890625 C 18.007812 -4.890625 19.457031 -5.257812 20.75 -6 C 22.050781 -6.738281 23.070312 -7.769531 23.8125 -9.09375 C 24.550781 -10.414062 24.921875 -11.921875 24.921875 -13.609375 C 24.921875 -15.296875 24.550781 -16.796875 23.8125 -18.109375 C 23.070312 -19.429688 22.050781 -20.460938 20.75 -21.203125 C 19.457031 -21.941406 18.007812 -22.3125 16.40625 -22.3125 C 14.800781 -22.3125 13.347656 -21.941406 12.046875 -21.203125 C 10.753906 -20.460938 9.738281 -19.429688 9 -18.109375 C 8.257812 -16.796875 7.890625 -15.296875 7.890625 -13.609375 C 7.890625 -11.921875 8.257812 -10.414062 9 -9.09375 C 9.738281 -7.769531 10.753906 -6.738281 12.046875 -6 C 13.347656 -5.257812 14.800781 -4.890625 16.40625 -4.890625 Z M 16.40625 -4.890625 "/></g></g></g></svg>