<svg version="1.2" xmlns="http://www.w3.org/2000/svg" viewBox="0 0 1024 512" width="1024" height="512">
    <title>festappicon</title>
    <path id="festapp" class="s0" aria-label="festapp" fill="#BDBDBD" d="m117.4 300.7q0 31-31.5 36.3 2.7-29.3 2.7-57.1v-59.9q-11 0-24.3 2.6 0-24 24.3-24v-16q0-43.2 46.6-43.2h24q0 21.4-17.8 21.4-24.6 0-24.6 23.2v14.6h42.4q0 21.4-18.4 21.4h-23.4zm120.5 23.7q-64.6 0-64.6-63.7 0-31.5 16.6-48.3 16.8-17 48-17 50.6 0 50.6 38.6 0 35.2-45 35.2h-41.1q1.3 17.1 10.4 25.1 9.1 8 26.9 8 8.8 0 18.4-2.7 9.6-2.7 12-2.7 13.1 0 15.2 19.5-23.2 8-47.4 8zm-35.5-73.9h30.4q28.5 0 28.5-17.6-0.2-17.3-24.5-17.3-32.8 0-34.4 34.9zm105.6 66.4q1.6-21.8 15.4-21.8 3 0 12.8 3.4 10.2 3.5 20.8 3.5 24.8 0 24.8-15.2 0-13.3-35.2-20.8-35.2-7.5-35.2-34.1 0-17.4 13.4-27 13.3-9.5 37.3-9.5 25.6 0 43.7 5.3-1.3 21.8-14.9 21.8-2.4 0-11.2-2.4-8.8-2.4-16.5-2.4-24.8 0-24.8 12.8 0 12.3 35.4 20.3 35.8 7.7 35.8 36.5 0 18.2-13.9 27.8-13.6 9.3-40.3 9.3-28.8 0-47.4-7.5zm189.3 5.9q-44.6 0-44.6-41.1v-61.8q-9.3 0-23.9 2.6 0-19.7 13.8-23.2 12.5-3.1 12.5-18.3v-25.4q26.4 0 26.4 21.4v21.5h42.4q0 21.4-19.4 21.4h-23v59.4q0 20.3 22.7 20.3 18.1 0 18.1 20.8-9.6 2.4-25 2.4zm81.3 1.1q-19.2 0-29.6-9.4-10.1-9.6-10.1-26.6 0-31.5 57.3-40.8l25.6-4.3q0-22.9-30.4-22.9-6.2 0-15.2 2.1-9.1 1.9-13.6 1.9-11.2 0-13.3-19.5 22.4-7.2 44.5-7.2 56.8 0 56.8 45.6v39.2q0 19.5 4.2 39.7-29.3 0-31.4-18.4-14.4 20.6-44.8 20.6zm10.9-20.8q20 0 32.3-12.8v-29.6l-23.5 4.2q-30.4 6.2-30.4 21.9 0 16.3 21.6 16.3zm94.7 71.1q2.6-21.6 2.6-43.4v-89.1q0-21.6-2.6-43.2 29.6 0 29.6 18.4 14.3-21.5 44.2-21.5 23.7 0 36.5 16.7 12.8 16.6 12.8 47.8 0 31.2-12.8 47.7-12.5 16.5-36.5 16.5-26.7 0-41.8-17.6v44q0 23.7-32 23.7zm63.7-71.9q14.9 0 21.8-10.4 7.2-10.4 7.2-32 0-22.2-7.2-32.3-6.9-10.1-21.8-10.1-17.4 0-31.7 11.7v61.1q14.3 12 31.7 12zm88 71.9q2.6-21.6 2.6-43.4v-89.1q0-21.6-2.6-43.2 29.5 0 29.5 18.4 14.4-21.5 44.3-21.5 23.7 0 36.5 16.7 12.8 16.6 12.8 47.8 0 31.2-12.8 47.7-12.5 16.5-36.5 16.5-26.7 0-41.9-17.6v44q0 23.7-31.9 23.7zm63.7-71.9q14.9 0 21.8-10.4 7.2-10.4 7.2-32 0-22.2-7.2-32.3-6.9-10.1-21.8-10.1-17.4 0-31.8 11.7v61.1q14.4 12 31.8 12z"/>
</svg>
