<svg id="Vrstva_1" data-name="Vrstva 1" xmlns="http://www.w3.org/2000/svg" xmlns:xlink="http://www.w3.org/1999/xlink" viewBox="0 0 200 200">
  <defs>
    <linearGradient id="Nepojmenovaný_přechod_16" data-name="Nepojmenovaný přechod 16" x1=".98" y1="201.13" x2="2.61" y2="201.13" gradientTransform="matrix(650.36 0 0 -650.36 -713.8 130915.58)" gradientUnits="userSpaceOnUse">
      <stop offset="0" stop-color="#2ba29e"/>
      <stop offset="0" stop-color="#2ba29e"/>
      <stop offset=".12" stop-color="#5bab77"/>
      <stop offset=".39" stop-color="#d5c318"/>
      <stop offset=".46" stop-color="#f5ca00"/>
      <stop offset=".51" stop-color="#f2c300"/>
      <stop offset=".6" stop-color="#eaaf01"/>
      <stop offset=".7" stop-color="#dc9002"/>
      <stop offset=".82" stop-color="#ca6404"/>
      <stop offset=".94" stop-color="#b32c06"/>
      <stop offset="1" stop-color="#a70f08"/>
      <stop offset="1" stop-color="#a70f08"/>
    </linearGradient>
    <linearGradient id="Nepojmenovaný_přechod_16-2" data-name="Nepojmenovaný přechod 16" x1=".98" y1="201.23" x2="2.61" y2="201.23" gradientTransform="matrix(650.36 0 0 -650.36 -724.47 130914.65)" xlink:href="#Nepojmenovaný_přechod_16"/>
    <linearGradient id="Nepojmenovaný_přechod_16-3" data-name="Nepojmenovaný přechod 16" x1=".98" y1="201.21" x2="2.61" y2="201.21" gradientTransform="matrix(650.36 0 0 -650.36 -723.72 130905.54)" xlink:href="#Nepojmenovaný_přechod_16"/>
    <linearGradient id="Nepojmenovaný_přechod_16-4" data-name="Nepojmenovaný přechod 16" x1=".98" y1="201.24" x2="2.61" y2="201.24" gradientTransform="matrix(650.36 0 0 -650.36 -725.21 130923.77)" xlink:href="#Nepojmenovaný_přechod_16"/>
    <linearGradient id="Nepojmenovaný_přechod_16-5" data-name="Nepojmenovaný přechod 16" x1=".98" y1="201.09" x2="2.61" y2="201.09" gradientTransform="matrix(650.36 0 0 -650.36 -708.46 130918.84)" xlink:href="#Nepojmenovaný_přechod_16"/>
    <linearGradient id="Nepojmenovaný_přechod_16-6" data-name="Nepojmenovaný přechod 16" x1=".98" y1="201.08" x2="2.61" y2="201.08" gradientTransform="matrix(650.36 0 0 -650.36 -707.94 130913.7)" xlink:href="#Nepojmenovaný_přechod_16"/>
    <linearGradient id="Nepojmenovaný_přechod_16-7" data-name="Nepojmenovaný přechod 16" x1=".98" y1="201.12" x2="2.61" y2="201.12" gradientTransform="matrix(650.36 0 0 -650.36 -712.13 130918.51)" xlink:href="#Nepojmenovaný_přechod_16"/>
    <linearGradient id="Nepojmenovaný_přechod_16-8" data-name="Nepojmenovaný přechod 16" x1=".98" y1="201.11" x2="2.61" y2="201.11" gradientTransform="matrix(650.36 0 0 -650.36 -711.7 130913.38)" xlink:href="#Nepojmenovaný_přechod_16"/>
    <linearGradient id="Nepojmenovaný_přechod_16-9" data-name="Nepojmenovaný přechod 16" x1=".98" y1="201.13" x2="2.61" y2="201.13" gradientTransform="matrix(650.36 0 0 -650.36 -712.58 130923.63)" xlink:href="#Nepojmenovaný_přechod_16"/>
    <linearGradient id="Nepojmenovaný_přechod_16-10" data-name="Nepojmenovaný přechod 16" x1=".98" y1="201.1" x2="2.61" y2="201.1" gradientTransform="matrix(650.36 0 0 -650.36 -711.27 130908.25)" xlink:href="#Nepojmenovaný_přechod_16"/>
    <linearGradient id="Nepojmenovaný_přechod_16-11" data-name="Nepojmenovaný přechod 16" x1=".98" y1="201.1" x2="2.61" y2="201.1" gradientTransform="matrix(650.36 0 0 -650.36 -708.82 130923.97)" xlink:href="#Nepojmenovaný_přechod_16"/>
    <linearGradient id="Nepojmenovaný_přechod_16-12" data-name="Nepojmenovaný přechod 16" x1=".98" y1="201.07" x2="2.61" y2="201.07" gradientTransform="matrix(650.36 0 0 -650.36 -707.5 130908.57)" xlink:href="#Nepojmenovaný_přechod_16"/>
    <linearGradient id="Nepojmenovaný_přechod_16-13" data-name="Nepojmenovaný přechod 16" x1=".98" y1="201.15" x2="2.61" y2="201.15" gradientTransform="matrix(650.36 0 0 -650.36 -715.9 130918.2)" xlink:href="#Nepojmenovaný_přechod_16"/>
    <linearGradient id="Nepojmenovaný_přechod_16-14" data-name="Nepojmenovaný přechod 16" x1=".98" y1="201.15" x2="2.61" y2="201.15" gradientTransform="matrix(650.36 0 0 -650.36 -715.44 130913.05)" xlink:href="#Nepojmenovaný_přechod_16"/>
    <linearGradient id="Nepojmenovaný_přechod_16-15" data-name="Nepojmenovaný přechod 16" x1=".98" y1="201.16" x2="2.61" y2="201.16" gradientTransform="matrix(650.36 0 0 -650.36 -716.32 130923.32)" xlink:href="#Nepojmenovaný_přechod_16"/>
    <linearGradient id="Nepojmenovaný_přechod_16-16" data-name="Nepojmenovaný přechod 16" x1=".98" y1="201.14" x2="2.61" y2="201.14" gradientTransform="matrix(650.36 0 0 -650.36 -715.06 130907.95)" xlink:href="#Nepojmenovaný_přechod_16"/>
    <clipPath id="clippath">
      <path class="cls-2" d="M37.45 154.45c-7.48 0-10.62-3.1-10.63-10.54-.03-20.41-.01-40.81 0-61.22 0-1.06.1-2.13.16-3.51H173c.07 1.38.18 2.56.18 3.74 0 20.27.02 40.54 0 60.81 0 7.73-3.05 10.72-10.86 10.72H37.45M22.29 43.23c-6.85.05-9.93 3.08-9.94 9.86-.02 35.55-.01 71.1 0 106.65 0 6.92 3.21 10.1 10.2 10.11 51.64.01 103.27.01 154.91 0 6.97 0 10.18-3.2 10.19-10.13 0-5.73 0-11.46.01-17.2V70.59c0-5.98 0-11.96-.01-17.93 0-5.03-2.53-8.83-6.73-9.2-4.78-.41-9.62-.1-14.68-.1 0 3.66.05 6.89 0 10.12-.16 8.64-5.39 14.27-13.21 14.25-7.78-.01-13.08-5.78-13.16-14.33-.03-3.32 0-6.64 0-9.98h-26.81c0 3.93.06 7.68-.01 11.43-.14 7.32-5.65 12.82-12.82 12.88-7.45.07-13.07-5.37-13.23-12.89-.08-3.75-.01-7.5-.01-11.36h-26.8c0 3.49.03 6.71 0 9.93-.09 8.54-5.41 14.3-13.19 14.31-7.81 0-13.05-5.63-13.2-14.27-.06-3.23-.01-6.46-.01-10.24h-7.35c-1.39 0-2.75 0-4.11.01"/>
    </clipPath>
    <clipPath id="clippath-1">
      <path class="cls-2" d="M92.77 34.68c-.11 6.6-.12 13.21 0 19.81.09 4.42 3.34 7.55 7.38 7.45 3.89-.09 6.91-3.12 7.09-7.35.14-3.23.03-6.47.03-9.7 0-3.37.08-6.74-.02-10.11-.13-4.46-3.18-7.62-7.2-7.66h-.07c-3.99 0-7.14 3.15-7.22 7.55"/>
    </clipPath>
    <clipPath id="clippath-2">
      <path class="cls-2" d="M152.93 27.13c-3.59.04-6.74 2.58-6.89 6.4-.29 7.39-.28 14.8.04 22.19.16 3.85 3.48 6.32 7.16 6.23 3.83-.1 6.74-2.93 6.89-6.98.14-3.5.03-7 .03-10.5h.01c0-3.37.09-6.73-.02-10.1-.13-4.12-2.86-6.99-6.67-7.22-.13 0-.25-.01-.38-.01h-.17Z"/>
    </clipPath>
    <clipPath id="clippath-3">
      <path class="cls-2" d="M46.88 27.13c-3.97.03-6.95 2.97-7.03 7.28-.11 6.73-.11 13.46 0 20.19.07 4.35 2.97 7.28 6.95 7.35 3.97.07 7.01-2.73 7.27-7.07.21-3.35.04-6.73.04-10.09 0-3.5.16-7.01-.04-10.5-.24-4.33-3.21-7.15-7.15-7.15h-.06"/>
    </clipPath>
    <clipPath id="clippath-4">
      <path class="cls-2" d="M76.17 134.69h15.37v9.02H76.17z"/>
    </clipPath>
    <clipPath id="clippath-5">
      <path class="cls-2" d="M105.99 134.64h15.58v8.96h-15.58z"/>
    </clipPath>
    <clipPath id="clippath-6">
      <path class="cls-2" d="M76.11 112.87H91.7v8.92H76.11z"/>
    </clipPath>
    <clipPath id="clippath-7">
      <path class="cls-2" d="M106 112.76h15.41v8.99H106z"/>
    </clipPath>
    <clipPath id="clippath-8">
      <path class="cls-2" d="M46.47 112.83h15.28v8.99H46.47z"/>
    </clipPath>
    <clipPath id="clippath-9">
      <path class="cls-2" d="M135.95 113.07h15.25v8.69h-15.25z"/>
    </clipPath>
    <clipPath id="clippath-10">
      <path class="cls-2" d="M46.45 134.61h15.2v9.08h-15.2z"/>
    </clipPath>
    <clipPath id="clippath-11">
      <path class="cls-2" d="M135.95 134.57h15.26v9.07h-15.26z"/>
    </clipPath>
    <clipPath id="clippath-12">
      <path class="cls-2" d="M76.01 91.22h15.58v8.59H76.01z"/>
    </clipPath>
    <clipPath id="clippath-13">
      <path class="cls-2" d="M106.04 91.08h15.41v8.75h-15.41z"/>
    </clipPath>
    <clipPath id="clippath-14">
      <path class="cls-2" d="M46.35 91.23h15.37v8.63H46.35z"/>
    </clipPath>
    <clipPath id="clippath-15">
      <path class="cls-2" d="M135.74 91.25h15.36v8.59h-15.36z"/>
    </clipPath>
    <style>
      .cls-2{fill:none;stroke-width:0}
    </style>
  </defs>
  <g clip-path="url(#clippath)">
    <path transform="rotate(-9.9 100.01281026 106.43490897)" fill="url(#Nepojmenovaný_přechod_16)" stroke-width="0" d="M2.74 28.92h194.52v155.06H2.74z"/>
  </g>
  <g clip-path="url(#clippath-1)">
    <path transform="rotate(-9.9 100.01660763 44.60742638)" fill="url(#Nepojmenovaný_přechod_16-2)" stroke-width="0" d="M89.75 26.12h20.52v36.92H89.75z"/>
  </g>
  <g clip-path="url(#clippath-2)">
    <path transform="rotate(-9.9 153.00405979 44.60171977)" fill="url(#Nepojmenovaný_přechod_16-3)" stroke-width="0" d="M142.86 26.14h20.3v36.88h-20.3z"/>
  </g>
  <g clip-path="url(#clippath-3)">
    <path transform="rotate(-9.9 47.03415547 44.55540253)" fill="url(#Nepojmenovaný_přechod_16-4)" stroke-width="0" d="M36.85 26.14h20.32v36.87H36.85z"/>
  </g>
  <g clip-path="url(#clippath-4)">
    <path transform="rotate(-9.9 83.85753414 139.17769099)" fill="url(#Nepojmenovaný_přechod_16-5)" stroke-width="0" d="M75.51 133.44H92.2v11.52H75.51z"/>
  </g>
  <g clip-path="url(#clippath-5)">
    <path transform="rotate(-9.9 113.76099233 139.09208967)" fill="url(#Nepojmenovaný_přechod_16-6)" stroke-width="0" d="M105.33 133.37h16.89v11.51h-16.89z"/>
  </g>
  <g clip-path="url(#clippath-6)">
    <path transform="rotate(-9.9 83.89015931 117.31103675)" fill="url(#Nepojmenovaný_přechod_16-7)" stroke-width="0" d="M75.46 111.59h16.89v11.47H75.46z"/>
  </g>
  <g clip-path="url(#clippath-7)">
    <path transform="rotate(-9.9 113.73088704 117.2781659)" fill="url(#Nepojmenovaný_přechod_16-8)" stroke-width="0" d="M105.34 111.51h16.72v11.5h-16.72z"/>
  </g>
  <g clip-path="url(#clippath-8)">
    <path transform="rotate(-9.9 54.10716206 117.3489076)" fill="url(#Nepojmenovaný_přechod_16-9)" stroke-width="0" d="M45.81 111.58h16.6v11.48h-16.6z"/>
  </g>
  <g clip-path="url(#clippath-9)">
    <path transform="rotate(-9.9 143.55661476 117.41848643)" fill="url(#Nepojmenovaný_přechod_16-10)" stroke-width="0" d="M135.31 111.83h16.51v11.18h-16.51z"/>
  </g>
  <g clip-path="url(#clippath-10)">
    <path transform="rotate(-9.9 54.02180642 139.15283138)" fill="url(#Nepojmenovaný_přechod_16-11)" stroke-width="0" d="M45.78 133.37h16.54v11.56H45.78z"/>
  </g>
  <g clip-path="url(#clippath-11)">
    <path transform="rotate(-9.9 143.59672005 139.11694928)" fill="url(#Nepojmenovaný_přechod_16-12)" stroke-width="0" d="M135.29 133.32h16.6v11.56h-16.6z"/>
  </g>
  <g clip-path="url(#clippath-12)">
    <path transform="rotate(-9.9 83.80232356 95.49211298)" fill="url(#Nepojmenovaný_přechod_16-13)" stroke-width="0" d="M75.39 89.95h16.82v11.14H75.39z"/>
  </g>
  <g clip-path="url(#clippath-13)">
    <path transform="rotate(-9.9 113.75851221 95.46924212)" fill="url(#Nepojmenovaný_přechod_16-14)" stroke-width="0" d="M105.41 89.82h16.68v11.27h-16.68z"/>
  </g>
  <g clip-path="url(#clippath-14)">
    <path transform="rotate(-9.9 54.0193263 95.52998383)" fill="url(#Nepojmenovaný_přechod_16-15)" stroke-width="0" d="M45.72 89.97h16.62v11.14H45.72z"/>
  </g>
  <g clip-path="url(#clippath-15)">
    <path transform="rotate(-9.9 143.41604854 95.5368322)" fill="url(#Nepojmenovaný_přechod_16-16)" stroke-width="0" d="M135.12 89.99h16.61v11.11h-16.61z"/>
  </g>
</svg>
