<svg id="Vrstva_1" data-name="Vrstva 1" xmlns="http://www.w3.org/2000/svg" xmlns:xlink="http://www.w3.org/1999/xlink" viewBox="0 0 200 200">
  <defs>
    <linearGradient id="Nepojmenovaný_přechod_16" data-name="Nepojmenovaný přechod 16" x1="-658.54" y1="200.83" x2="-656.84" y2="200.83" gradientTransform="matrix(650.36 0 0 -650.36 427395.89 130716.59)" gradientUnits="userSpaceOnUse">
      <stop offset="0" stop-color="#2ba29e"/>
      <stop offset="0" stop-color="#2ba29e"/>
      <stop offset=".12" stop-color="#5bab77"/>
      <stop offset=".39" stop-color="#d5c318"/>
      <stop offset=".46" stop-color="#f5ca00"/>
      <stop offset=".51" stop-color="#f2c300"/>
      <stop offset=".6" stop-color="#eaaf01"/>
      <stop offset=".7" stop-color="#dc9002"/>
      <stop offset=".82" stop-color="#ca6404"/>
      <stop offset=".94" stop-color="#b32c06"/>
      <stop offset="1" stop-color="#a70f08"/>
      <stop offset="1" stop-color="#a70f08"/>
    </linearGradient>
    <linearGradient id="Nepojmenovaný_přechod_16-2" data-name="Nepojmenovaný přechod 16" x1="-653.68" y1="199.39" x2="-651.9" y2="199.39" gradientTransform="matrix(152.84 0 0 -152.84 100020.59 30575.8)" xlink:href="#Nepojmenovaný_přechod_16"/>
    <clipPath id="clippath">
      <circle class="cls-2" cx="97.01" cy="104.89" r="78.33"/>
    </clipPath>
    <clipPath id="clippath-1">
      <path class="cls-2" d="M283.67 27.13c-10.99 0-21.93 4.39-30.44 13.14-8.81 9.05-13.25 20.83-13.27 32.69v.16c.01 11.46 4.15 22.98 12.46 32.15 6.33 6.99 12.74 13.89 19.33 20.6 17.06 17.38 34.24 34.64 52.76 53.35 23.18-24.82 47.98-50.2 71.42-76.89 6.82-7.77 10.09-17.58 10.14-27.54v-.52c-.07-12.21-4.94-24.62-13.96-33.76-16.08-16.3-41.86-17.1-58.79-1.73-3.43 3.12-6.64 6.51-11.31 11.11-2.38-3.17-4.3-6.35-6.79-8.94-8.86-9.21-20.21-13.82-31.49-13.82h-.05Z"/>
    </clipPath>
    <style>
      .cls-2{fill:none;stroke-width:0}
    </style>
  </defs>
  <g clip-path="url(#clippath)">
    <path transform="rotate(-9.9 97.00536524 104.89483878)" fill="url(#Nepojmenovaný_přechod_16)" stroke-width="0" d="M6.38 14.26h181.26v181.26H6.38z"/>
  </g>
  <path d="M107.22 82.07H86.74v75.06h20.48V82.07Zm-10.21-9.34c3.71 0 6.5-.88 8.36-2.65 1.86-1.77 2.79-4.24 2.79-7.42 0-6.67-3.72-10-11.15-10s-11.15 3.33-11.15 10 3.71 10.07 11.15 10.07" fill="#fff" stroke-width="0"/>
  <g clip-path="url(#clippath-1)">
    <path transform="rotate(-18.1 323.0265408 101.31033138)" fill="url(#Nepojmenovaný_přechod_16-2)" stroke-width="0" d="M219.87 1.46h206.29v199.7H219.87z"/>
  </g>
</svg>
