<svg data-name="Vrstva 1" xmlns="http://www.w3.org/2000/svg" viewBox="0 0 200 200">
  <defs>
    <linearGradient id="b" data-name="Nepojmenovaný přechod 16" x1="-873.68" y1="199.39" x2="-871.9" y2="199.39" gradientTransform="matrix(152.84 0 0 -152.84 133425.92 30575.8)" gradientUnits="userSpaceOnUse">
      <stop offset="0" stop-color="#2ba29e"/>
      <stop offset="0" stop-color="#2ba29e"/>
      <stop offset=".12" stop-color="#5bab77"/>
      <stop offset=".39" stop-color="#d5c318"/>
      <stop offset=".46" stop-color="#f5ca00"/>
      <stop offset=".51" stop-color="#f2c300"/>
      <stop offset=".6" stop-color="#eaaf01"/>
      <stop offset=".7" stop-color="#dc9002"/>
      <stop offset=".82" stop-color="#ca6404"/>
      <stop offset=".94" stop-color="#b32c06"/>
      <stop offset="1" stop-color="#a70f08"/>
      <stop offset="1" stop-color="#a70f08"/>
    </linearGradient>
    <clipPath id="a">
      <path d="M63.67 27.13c-10.99 0-21.93 4.39-30.44 13.14-8.81 9.05-13.25 20.83-13.27 32.69v.16c.01 11.46 4.15 22.98 12.46 32.15 6.33 6.99 12.74 13.89 19.33 20.6 17.06 17.38 34.24 34.64 52.76 53.35 23.18-24.82 47.98-50.2 71.42-76.89 6.82-7.77 10.09-17.58 10.14-27.54v-.52c-.07-12.21-4.94-24.62-13.96-33.76-16.08-16.3-41.86-17.1-58.79-1.73-3.43 3.12-6.64 6.51-11.31 11.11-2.38-3.17-4.3-6.35-6.79-8.94-8.86-9.21-20.21-13.82-31.49-13.82h-.05Z" stroke-width="0" fill="none"/>
    </clipPath>
  </defs>
  <g clip-path="url(#a)">
    <path transform="rotate(-18.1 103.02108893 101.32060308)" fill="url(#b)" d="M-.13 1.46h206.29v199.7H-.13z"/>
  </g>
</svg>
