<?xml version="1.0" standalone="no"?>
<!DOCTYPE svg PUBLIC "-//W3C//DTD SVG 20010904//EN"
 "http://www.w3.org/TR/2001/REC-SVG-20010904/DTD/svg10.dtd">
<svg version="1.0" xmlns="http://www.w3.org/2000/svg"
 width="512.000000pt" height="512.000000pt" viewBox="0 0 512.000000 512.000000"
 preserveAspectRatio="xMidYMid meet">
<metadata>
Created by potrace 1.14, written by Peter Selinger 2001-2017
</metadata>
<g transform="translate(0.000000,512.000000) scale(0.100000,-0.100000)"
fill="#000000" stroke="none">
<path d="M0 2560 l0 -2560 2560 0 2560 0 0 2560 0 2560 -2560 0 -2560 0 0
-2560z m1008 1070 c66 -11 161 -49 180 -73 11 -13 -7 -48 -53 -105 -2 -2 -19
8 -39 22 -80 54 -251 62 -320 16 -64 -44 -65 -121 -2 -160 18 -11 92 -40 165
-65 178 -61 232 -97 266 -177 20 -50 19 -134 -4 -183 -26 -59 -90 -111 -158
-131 -74 -22 -202 -21 -284 2 -65 18 -159 70 -159 89 0 5 15 28 33 49 l33 39
30 -21 c80 -59 238 -80 319 -43 59 27 80 55 80 108 0 68 -41 99 -213 158 -75
26 -158 61 -184 78 -136 89 -125 282 19 360 83 45 172 56 291 37z m472 -375
l0 -365 220 0 220 0 0 -60 0 -60 -277 2 -278 3 0 422 0 423 58 0 57 0 0 -365z
m642 73 l3 -293 29 -53 c43 -76 98 -107 191 -107 100 1 150 31 198 120 21 38
22 55 25 333 l4 292 59 0 60 0 -3 -308 -3 -307 -33 -67 c-61 -124 -159 -183
-307 -183 -148 0 -246 59 -307 183 l-33 66 -5 308 -5 308 62 0 62 0 3 -292z
m934 194 c302 -377 420 -521 424 -521 3 -1 4 138 2 309 l-3 310 67 0 c56 0 65
-2 60 -16 -3 -9 -6 -199 -6 -422 l0 -407 -39 -3 -40 -2 -253 309 -253 309 -3
-309 -2 -309 -65 0 -65 0 0 425 0 425 49 0 48 0 79 -98z m979 41 c14 -31 24
-57 23 -57 -2 -1 -20 -11 -41 -21 -22 -11 -55 -37 -74 -59 -92 -101 -114 -248
-57 -365 17 -33 25 -56 19 -51 -6 5 -20 27 -30 48 l-19 38 -26 -50 c-25 -50
-25 -52 -9 -87 10 -19 25 -41 34 -49 9 -7 21 -23 27 -34 6 -12 -6 -3 -25 19
-124 139 -153 354 -70 519 33 64 116 152 173 182 25 13 46 23 48 24 1 0 14
-25 27 -57z m-90 -593 c10 -11 16 -20 13 -20 -3 0 -13 9 -23 20 -10 11 -16 20
-13 20 3 0 13 -9 23 -20z m-2278 -555 c46 -110 91 -216 98 -235 7 -19 30 -73
50 -120 20 -47 39 -93 42 -102 6 -21 23 -24 23 -5 0 7 40 107 89 222 49 116
111 262 137 325 l49 115 67 3 67 3 -38 -88 c-22 -48 -62 -142 -89 -208 -28
-66 -78 -185 -112 -265 -33 -80 -75 -180 -93 -222 l-32 -77 -56 -1 -56 0 -38
93 c-41 98 -60 143 -150 357 -32 74 -67 160 -80 190 -12 30 -39 92 -58 138
l-36 83 66 -3 65 -3 85 -200z m1239 177 c104 -47 157 -136 158 -263 0 -121
-46 -197 -160 -265 -17 -10 -14 -17 36 -80 110 -138 140 -181 140 -202 0 -20
-5 -22 -59 -22 l-59 0 -84 107 c-45 58 -96 122 -112 140 l-29 34 -111 -3 -111
-3 -3 -137 -3 -138 -59 0 -60 0 0 431 0 430 233 -3 c218 -3 235 -4 283 -26z
m768 -38 c35 -86 29 -93 -8 -8 -16 36 -32 62 -37 57 -4 -4 -34 -66 -67 -138
-33 -71 -83 -179 -112 -240 -29 -60 -65 -137 -80 -170 -15 -33 -49 -105 -74
-159 -48 -102 -51 -126 -18 -126 14 0 27 21 52 83 40 98 46 107 74 106 20 -1
20 -1 -2 -8 -18 -5 -32 -27 -61 -96 l-37 -90 -62 -3 -62 -3 26 58 c14 32 32
74 39 93 7 19 61 148 120 285 58 138 123 289 142 338 l36 87 52 0 51 0 28 -66z
m-84 -111 c-5 -10 -22 -49 -38 -88 -77 -186 -125 -295 -128 -292 -3 3 15 50
85 217 18 41 39 93 48 115 16 39 31 65 39 65 2 0 0 -8 -6 -17z m50 -68 c0 -5
-5 -3 -10 5 -5 8 -10 20 -10 25 0 6 5 3 10 -5 5 -8 10 -19 10 -25z m-157 -322
c-7 -2 -21 -2 -30 0 -10 3 -4 5 12 5 17 0 24 -2 18 -5z"/>
<path d="M2513 2495 c-2 -6 -2 -85 -1 -175 l3 -165 150 0 c140 1 153 2 192 25
82 46 109 171 54 249 -43 60 -87 73 -249 75 -92 1 -146 -3 -149 -9z"/>
</g>
</svg>
