<?xml version="1.0" standalone="no"?>
<!DOCTYPE svg PUBLIC "-//W3C//DTD SVG 20010904//EN"
 "http://www.w3.org/TR/2001/REC-SVG-20010904/DTD/svg10.dtd">
<svg version="1.0" xmlns="http://www.w3.org/2000/svg"
 width="1024.000000pt" height="1024.000000pt" viewBox="0 0 1024.000000 1024.000000"
 preserveAspectRatio="xMidYMid meet">
<metadata>
Created by potrace 1.14, written by Peter Selinger 2001-2017
</metadata>
<g transform="translate(0.000000,1024.000000) scale(0.100000,-0.100000)"
fill="#000000" stroke="none">
<path d="M0 5120 l0 -5120 5120 0 5120 0 0 5120 0 5120 -5120 0 -5120 0 0
-5120z m4640 2881 c0 -5 -5 -55 -11 -112 -27 -267 -144 -431 -344 -484 -33 -8
-130 -20 -215 -25 -95 -5 -185 -17 -233 -29 -221 -58 -363 -201 -417 -422 -18
-71 -22 -128 -27 -366 l-6 -283 621 0 c359 0 623 -4 626 -9 12 -19 -16 -219
-40 -291 -30 -90 -70 -155 -129 -209 -55 -51 -108 -77 -202 -102 -69 -17 -113
-19 -464 -19 l-388 0 -4 -1287 c-4 -1401 0 -1314 -59 -1493 -88 -271 -284
-466 -577 -577 -59 -22 -251 -73 -276 -73 -7 0 -5 71 6 213 49 609 52 697 56
1985 l5 1232 -22 0 c-122 0 -559 -50 -669 -77 l-24 -6 7 84 c34 396 230 588
639 625 l67 6 0 236 c0 457 32 670 131 879 72 151 198 297 340 394 160 108
421 189 684 212 93 8 925 6 925 -2z m2145 -1691 c193 -11 313 -26 465 -60 410
-91 716 -305 869 -607 38 -75 78 -182 92 -243 42 -178 41 -169 49 -1040 8
-882 12 -969 60 -1305 10 -77 30 -196 43 -264 l24 -124 -146 6 c-383 16 -630
140 -735 367 -14 30 -28 74 -32 98 -3 23 -10 44 -14 47 -5 3 -24 -16 -43 -43
-57 -76 -215 -223 -308 -285 -270 -179 -647 -272 -1031 -253 -446 22 -745 160
-923 427 -113 169 -165 362 -166 614 -1 270 73 449 265 641 159 159 359 278
639 378 265 96 454 139 1037 236 234 38 437 73 453 76 25 5 27 9 27 57 0 71
-24 178 -55 245 -72 157 -228 272 -441 327 -228 58 -475 55 -784 -9 -440 -90
-560 -84 -671 34 -25 27 -60 78 -78 114 -34 69 -74 213 -85 307 l-7 56 108 31
c332 97 714 163 1008 175 158 7 198 6 380 -3z"/>
<path d="M7040 4386 c-422 -79 -466 -89 -625 -141 -383 -125 -575 -312 -575
-560 0 -71 22 -170 49 -224 61 -119 192 -198 381 -231 92 -16 328 -14 440 4
263 42 490 149 658 309 l42 41 0 433 c0 406 -1 433 -17 432 -10 -1 -169 -29
-353 -63z"/>
</g>
</svg>
