<?xml version="1.0" standalone="no"?>
<!DOCTYPE svg PUBLIC "-//W3C//DTD SVG 20010904//EN"
 "http://www.w3.org/TR/2001/REC-SVG-20010904/DTD/svg10.dtd">
<svg version="1.0" xmlns="http://www.w3.org/2000/svg"
 width="1024.000000pt" height="1024.000000pt" viewBox="0 0 1024.000000 1024.000000"
 preserveAspectRatio="xMidYMid meet">
<metadata>
Created by potrace 1.14, written by Peter Selinger 2001-2017
</metadata>
<g transform="translate(0.000000,1024.000000) scale(0.100000,-0.100000)"
fill="#000000" stroke="none">
<path d="M6718 9289 c-8 -4 -23 -6 -34 -5 -10 2 -23 1 -29 -3 -10 -5 -21 -8
-60 -15 -11 -2 -32 -8 -46 -14 -15 -6 -35 -12 -45 -14 -22 -4 -174 -79 -200
-99 -10 -8 -47 -43 -83 -79 -79 -79 -129 -165 -133 -227 -1 -7 -4 -13 -8 -13
-3 0 -5 -48 -5 -107 1 -60 3 -108 4 -108 2 0 5 -13 7 -29 3 -16 10 -38 15 -48
5 -10 7 -23 4 -28 -3 -6 -2 -10 3 -10 5 0 14 -17 20 -37 10 -32 61 -124 115
-207 58 -91 157 -177 258 -224 151 -72 336 -84 547 -36 72 17 189 59 209 75 7
6 13 8 13 4 0 -5 9 0 20 10 11 10 20 15 20 11 0 -4 14 2 30 14 17 12 30 19 30
15 0 -3 10 3 22 15 12 11 26 20 31 20 8 0 51 30 106 75 53 42 158 152 188 195
41 61 79 138 88 180 4 19 10 39 13 44 8 15 8 136 0 136 -5 0 -8 9 -8 20 0 45
-50 129 -119 200 -39 40 -71 70 -71 66 0 -4 -12 4 -27 18 -15 14 -30 23 -35
20 -4 -3 -8 -1 -8 4 0 19 -287 141 -340 145 -11 1 -20 4 -20 7 0 4 -6 7 -12 8
-29 2 -83 10 -83 12 0 12 -357 20 -377 9z"/>
<path d="M2595 8383 c-73 -4 -238 -24 -249 -31 -6 -3 -19 -7 -30 -8 -58 -6
-101 -16 -111 -24 -7 -6 -15 -7 -18 -4 -3 3 -12 2 -19 -2 -7 -5 -17 -9 -23 -9
-22 -2 -71 -18 -82 -28 -7 -5 -13 -7 -13 -4 0 7 -159 -61 -245 -104 -36 -19
-65 -37 -65 -42 0 -4 -4 -5 -10 -2 -5 3 -10 1 -10 -4 0 -6 -5 -11 -11 -11 -6
0 -50 -28 -97 -62 -115 -83 -301 -271 -381 -384 -57 -81 -76 -113 -139 -229
-9 -16 -23 -38 -31 -47 -8 -10 -11 -18 -6 -18 4 0 1 -10 -7 -22 -8 -13 -23
-45 -33 -73 -10 -27 -22 -54 -26 -60 -4 -5 -23 -62 -44 -125 -37 -116 -39
-123 -56 -195 -5 -22 -12 -51 -15 -65 -4 -14 -6 -33 -6 -42 0 -10 -3 -20 -7
-23 -5 -2 -7 -16 -6 -30 2 -14 0 -25 -4 -25 -4 0 -8 -15 -8 -32 -1 -18 -5 -51
-8 -73 -4 -22 -8 -94 -9 -161 -1 -66 -6 -126 -10 -132 -4 -7 -3 -12 2 -12 5 0
9 -7 9 -15 0 -8 -4 -15 -8 -15 -5 0 -4 -12 1 -26 13 -32 12 -37 0 -29 -6 4 -7
-2 -2 -17 4 -13 7 -66 6 -118 0 -52 1 -99 4 -105 3 -5 7 -25 8 -45 3 -41 10
-101 19 -150 8 -43 16 -88 19 -115 2 -11 5 -27 8 -35 12 -33 28 -122 23 -130
-3 -5 -2 -10 2 -12 5 -1 21 -55 37 -118 16 -63 33 -126 39 -140 12 -29 18 -50
19 -67 1 -7 5 -13 10 -13 5 0 6 -5 3 -10 -4 -6 -1 -17 5 -25 7 -8 9 -15 5 -15
-4 0 -2 -7 5 -15 7 -8 9 -15 5 -15 -4 0 -2 -6 4 -13 6 -8 8 -17 4 -20 -3 -4 0
-7 7 -7 7 0 11 -3 8 -6 -4 -3 5 -30 18 -60 13 -30 24 -55 23 -57 -1 -6 86
-218 107 -259 8 -15 15 -31 15 -35 2 -15 186 -367 233 -446 25 -43 46 -82 46
-86 0 -5 3 -11 8 -13 4 -1 16 -19 26 -38 11 -19 50 -82 88 -139 37 -57 68
-107 68 -112 0 -5 4 -9 8 -9 5 0 15 -12 23 -27 8 -16 16 -30 20 -33 3 -3 25
-34 50 -70 55 -82 60 -88 81 -108 10 -9 18 -20 18 -25 0 -5 10 -21 23 -36 12
-15 33 -43 47 -61 186 -251 554 -647 845 -911 33 -30 62 -56 65 -59 3 -3 59
-49 125 -103 66 -54 127 -104 136 -112 9 -8 21 -15 27 -15 7 0 12 -4 12 -9 0
-4 19 -21 43 -37 23 -16 44 -31 47 -34 3 -3 28 -21 55 -40 28 -19 55 -38 60
-43 9 -8 205 -136 343 -225 28 -18 59 -35 69 -39 10 -3 25 -11 33 -18 14 -11
68 -42 200 -113 102 -55 389 -196 401 -197 3 0 25 -10 50 -21 160 -78 513
-209 769 -284 58 -18 110 -33 117 -34 7 -1 15 -5 19 -8 3 -4 12 -4 20 -1 8 3
14 0 14 -6 0 -6 6 -8 14 -5 8 3 17 1 20 -5 4 -6 13 -8 21 -5 8 3 20 2 27 -2
14 -9 35 -15 58 -16 8 0 20 -4 25 -8 6 -4 18 -6 28 -5 9 2 17 0 17 -5 0 -5 8
-7 18 -5 9 1 22 -1 27 -5 6 -4 17 -8 25 -8 8 -1 27 -3 43 -6 15 -4 39 -8 55
-12 15 -3 41 -7 57 -8 17 -2 37 -6 45 -10 23 -9 282 -44 420 -56 186 -17 668
-15 825 5 136 16 299 42 325 52 8 3 25 7 37 9 13 1 32 5 42 9 11 3 29 8 40 10
12 3 29 7 39 9 117 27 475 172 494 200 4 6 8 7 8 3 0 -5 12 0 28 10 15 10 44
28 65 38 20 11 37 23 37 27 0 5 5 8 11 8 12 0 136 84 154 104 6 6 28 24 50 40
100 73 395 406 395 445 0 6 3 11 8 11 4 0 12 8 17 19 35 65 59 107 64 111 14
11 115 240 112 254 -1 4 4 14 10 22 6 8 8 14 3 14 -5 0 -4 4 3 8 6 4 14 19 17
32 3 14 8 36 11 50 4 14 8 34 10 45 2 11 4 20 5 20 3 0 13 51 14 75 0 14 5 28
11 32 11 8 13 409 3 483 -4 28 -12 73 -18 100 -6 28 -11 56 -12 63 -1 6 -5 12
-10 12 -5 0 -6 5 -3 10 4 6 1 27 -6 48 -7 20 -14 40 -15 45 -1 4 -3 9 -4 12
-1 3 -4 10 -5 15 -1 6 -4 12 -5 15 -1 3 -3 8 -5 13 -1 4 -5 16 -9 27 -4 11
-17 45 -29 75 -28 75 -125 262 -140 272 -6 4 -9 8 -4 8 10 0 -96 157 -173 255
-58 74 -160 180 -221 231 -29 24 -127 82 -174 103 -111 50 -250 61 -288 22
-17 -17 -18 -22 -7 -35 7 -9 9 -16 6 -16 -6 0 38 -65 54 -80 26 -25 201 -305
190 -305 -2 0 5 -10 15 -23 11 -12 20 -26 21 -30 0 -4 15 -36 31 -72 17 -36
45 -108 63 -160 18 -52 35 -102 38 -110 3 -8 6 -19 7 -25 1 -5 3 -12 4 -15 3
-5 8 -38 14 -82 1 -13 5 -27 8 -33 3 -5 5 -23 4 -40 -2 -16 0 -34 4 -40 8 -13
9 -265 1 -265 -4 0 -6 -17 -5 -37 1 -21 -2 -43 -6 -49 -5 -6 -7 -20 -4 -32 2
-12 0 -22 -5 -22 -4 0 -7 -8 -5 -17 1 -10 -2 -23 -7 -29 -5 -7 -8 -16 -7 -20
1 -5 0 -16 -4 -24 -7 -19 -28 -88 -31 -103 -2 -7 -8 -25 -15 -42 -6 -16 -17
-43 -23 -60 -41 -106 -189 -355 -255 -430 -7 -7 -13 -16 -13 -20 0 -19 -207
-226 -285 -285 -33 -25 -61 -48 -63 -52 -2 -5 -9 -8 -16 -8 -7 0 -21 -8 -32
-17 -24 -23 -78 -54 -174 -101 -41 -20 -78 -41 -82 -47 -4 -5 -8 -7 -8 -2 0 4
-18 -2 -40 -13 -21 -11 -45 -20 -52 -20 -7 0 -26 -7 -42 -15 -16 -9 -37 -17
-45 -18 -9 -1 -20 -5 -26 -9 -16 -10 -295 -78 -320 -78 -13 0 -27 -5 -30 -10
-4 -6 -10 -8 -15 -5 -4 3 -37 0 -72 -5 -120 -19 -305 -31 -458 -31 -173 1
-303 10 -510 36 -104 13 -391 68 -480 92 -114 31 -126 34 -150 39 -13 3 -29 9
-36 15 -6 5 -14 6 -17 2 -4 -3 -13 0 -22 7 -8 7 -15 10 -15 7 0 -3 -16 1 -35
9 -19 8 -37 14 -40 14 -3 0 -10 2 -17 5 -7 2 -40 13 -73 24 -68 23 -127 44
-170 62 -16 7 -34 13 -40 14 -5 2 -53 21 -105 44 -52 22 -101 41 -107 41 -7 0
-13 5 -13 10 0 6 -5 10 -11 10 -13 0 -295 138 -346 170 -18 11 -33 17 -33 13
0 -3 -8 1 -17 9 -10 8 -58 38 -108 67 -49 29 -124 75 -165 102 -41 27 -83 52
-92 55 -10 4 -18 10 -18 15 0 5 -6 9 -14 9 -8 0 -16 3 -18 8 -1 4 -32 27 -68
52 -36 24 -66 48 -68 52 -2 4 -10 8 -17 8 -7 0 -15 3 -17 8 -1 4 -47 40 -102
81 -153 115 -344 287 -536 480 -166 167 -307 319 -339 364 -8 12 -22 28 -30
38 -9 9 -25 28 -36 43 -11 14 -32 41 -48 58 -15 18 -39 51 -55 73 -15 22 -30
42 -34 43 -5 2 -8 8 -8 13 0 6 -5 15 -10 22 -63 75 -210 310 -267 427 -15 30
-30 57 -33 60 -11 10 -166 351 -174 385 -2 6 -8 21 -13 35 -23 54 -72 210 -98
306 -14 54 -29 106 -32 114 -5 14 -9 30 -17 85 -2 11 -4 20 -6 20 -1 0 -3 9
-5 20 -4 29 -16 96 -21 125 -3 14 -6 39 -8 55 -2 17 -5 32 -6 35 -2 3 -4 19
-5 35 -2 17 -4 32 -5 35 -1 3 -3 28 -4 56 -2 28 -5 55 -8 60 -9 16 2 589 12
589 1 0 4 16 6 35 2 19 6 50 9 68 3 17 7 44 10 60 2 15 9 47 16 72 6 25 13 54
14 65 2 11 4 20 5 20 1 0 3 7 5 16 5 28 87 263 98 284 6 11 12 26 13 34 2 8 9
18 16 22 7 5 9 9 5 9 -5 0 1 16 13 35 12 19 19 35 15 35 -3 0 1 7 9 16 9 8 16
21 16 29 0 7 3 15 8 17 4 2 25 32 46 68 22 36 42 67 45 70 3 3 26 32 51 64 55
72 247 266 264 266 5 0 30 19 60 45 24 22 155 96 236 134 88 41 200 83 200 75
0 -2 13 2 29 10 16 9 31 13 34 10 3 -3 12 -2 19 2 15 10 32 14 68 17 14 1 30
5 35 9 6 3 39 9 75 13 35 3 67 8 71 11 14 8 316 11 399 3 174 -16 206 -19 230
-25 50 -12 65 -15 95 -19 32 -5 68 -12 73 -15 1 -2 10 -3 20 -4 9 -1 23 -5 30
-9 6 -5 12 -6 12 -3 0 2 15 0 33 -6 17 -5 41 -11 52 -13 11 -2 20 -4 20 -5 0
-1 7 -3 15 -5 62 -14 413 -134 450 -154 23 -12 80 -4 99 13 10 9 17 26 16 39
-3 40 -17 97 -24 97 -3 0 -12 13 -19 28 -15 34 -137 157 -211 213 -98 73 -327
198 -466 253 -145 58 -389 141 -397 135 -2 -1 -13 3 -24 9 -12 6 -34 14 -50
16 -16 3 -44 10 -63 16 -19 5 -37 7 -42 5 -4 -3 -10 -1 -13 4 -3 5 -29 12 -58
16 -29 4 -62 9 -73 11 -135 27 -445 45 -630 37z"/>
<path d="M5699 8106 c-2 -2 -17 -6 -34 -8 -75 -10 -142 -66 -220 -188 -61 -94
-156 -291 -170 -350 -2 -8 -4 -16 -5 -17 -2 -2 -3 -6 -5 -10 -1 -5 -5 -15 -8
-23 -12 -28 -38 -105 -42 -125 -3 -11 -9 -31 -15 -45 -9 -24 -48 -174 -56
-215 -2 -11 -6 -54 -9 -95 -3 -41 -10 -77 -15 -78 -7 -3 -7 -9 1 -18 10 -12 9
-13 -5 -8 -12 5 -15 2 -10 -10 3 -9 1 -23 -6 -31 -9 -11 -9 -15 -1 -15 8 0 9
-6 3 -17 -9 -18 -22 -76 -28 -123 -18 -142 -23 -208 -30 -350 -9 -174 -11
-374 -5 -385 3 -5 6 -59 8 -120 3 -116 8 -204 18 -320 4 -38 8 -88 9 -110 2
-22 6 -47 9 -55 3 -8 8 -44 11 -80 3 -36 7 -72 10 -80 3 -8 8 -40 11 -70 6
-63 8 -74 41 -270 30 -173 53 -289 61 -310 3 -8 7 -26 9 -40 2 -14 6 -36 10
-50 13 -46 15 -55 16 -77 0 -13 5 -23 10 -23 6 0 8 -6 5 -14 -3 -8 -3 -17 1
-20 3 -4 7 -12 8 -19 19 -91 127 -465 155 -533 7 -16 14 -38 16 -49 2 -10 8
-22 15 -26 6 -4 7 -12 4 -18 -4 -6 -2 -11 4 -11 6 0 8 -5 5 -10 -4 -6 -3 -16
3 -23 5 -7 19 -39 32 -72 68 -175 176 -365 206 -365 8 0 14 -4 14 -10 0 -32
47 9 56 48 3 15 8 34 11 42 7 21 11 110 17 385 7 368 19 570 41 730 3 22 7 54
8 70 1 17 6 35 10 41 4 7 7 23 6 35 0 13 2 38 6 54 10 45 16 77 20 105 1 14 5
32 8 40 3 8 18 67 33 130 15 63 31 121 37 128 5 6 6 12 2 12 -4 0 -2 7 5 15 7
8 10 15 7 15 -3 0 7 36 23 79 15 44 26 82 22 85 -3 3 0 6 6 6 7 0 11 3 10 8
-3 7 23 82 42 127 5 11 21 49 36 85 104 256 320 629 470 813 8 9 14 21 14 26
0 5 3 11 8 13 4 2 23 23 42 48 45 58 60 75 90 109 14 15 57 63 95 107 39 43
141 149 228 235 86 87 157 162 157 167 0 5 7 13 16 16 8 3 12 10 9 16 -3 5 1
10 9 10 9 0 16 7 16 16 0 8 4 13 9 9 5 -3 12 4 16 15 3 11 12 19 18 17 7 -1
11 3 10 10 -2 6 6 15 17 18 11 4 20 10 20 15 0 5 19 29 43 54 63 68 100 117
98 131 -3 16 12 54 20 49 8 -5 13 9 10 29 0 4 3 7 9 7 6 0 9 3 8 8 -1 4 4 19
10 34 15 37 -2 92 -36 116 -43 30 -81 41 -164 47 -31 2 -61 5 -65 7 -4 3 -91
5 -192 6 -112 2 -191 7 -204 14 -12 6 -48 12 -82 14 -72 4 -147 10 -235 19
-36 4 -81 9 -100 10 -63 5 -167 30 -230 55 -28 11 -56 18 -61 15 -5 -4 -12 1
-15 9 -7 17 -71 39 -88 29 -6 -3 -8 -3 -4 2 4 4 -17 25 -48 46 -76 54 -75 53
-172 152 -77 79 -162 141 -162 120 0 -5 -4 -2 -8 5 -5 7 -10 10 -13 8z"/>
<path d="M3495 7024 c-156 -40 -305 -144 -391 -271 -21 -32 -42 -59 -46 -61
-5 -2 -8 -7 -8 -12 0 -5 -4 -19 -9 -32 -5 -13 -9 -27 -9 -32 0 -5 -4 -12 -9
-15 -12 -9 -35 -80 -29 -90 4 -5 1 -11 -4 -13 -19 -6 -17 -243 2 -254 4 -3 6
-10 3 -15 -6 -9 52 -135 76 -163 62 -76 133 -133 214 -173 60 -30 164 -65 174
-59 5 4 11 1 13 -5 3 -8 40 -12 113 -13 120 0 167 6 211 29 16 8 35 15 42 15
6 0 12 5 12 10 0 6 7 10 15 10 20 0 48 23 132 108 40 40 85 97 101 126 34 64
82 189 82 217 0 10 3 19 8 19 4 0 6 15 6 32 -1 18 1 37 4 43 9 14 4 154 -7
205 -47 218 -183 361 -387 405 -71 16 -229 10 -309 -11z"/>
<path d="M8550 6975 c-68 -16 -123 -37 -132 -50 -4 -5 -8 -6 -8 -2 0 9 -105
-62 -136 -92 -64 -61 -123 -157 -140 -227 -4 -16 -9 -33 -12 -38 -13 -24 -19
-203 -9 -271 22 -138 84 -235 199 -309 31 -20 59 -36 61 -36 3 0 22 -7 43 -17
22 -9 46 -17 54 -19 8 -1 26 -5 40 -9 90 -22 266 -23 390 0 82 15 271 91 317
128 102 81 177 176 189 237 4 16 9 30 13 30 12 0 2 150 -14 207 -36 126 -138
262 -260 348 -64 45 -145 89 -145 79 0 -4 -6 -1 -14 5 -7 6 -48 20 -91 31 -91
23 -257 26 -345 5z"/>
<path d="M7472 6395 c-47 -15 -152 -75 -152 -87 0 -4 -6 -8 -13 -8 -15 0 -138
-110 -225 -201 -78 -82 -222 -260 -222 -276 0 -6 -3 -13 -7 -15 -5 -1 -26 -30
-48 -63 -55 -83 -63 -96 -76 -127 -6 -16 -15 -28 -19 -28 -4 0 -11 -11 -14
-25 -4 -14 -11 -25 -17 -25 -6 0 -7 -4 -4 -10 3 -5 1 -10 -4 -10 -6 0 -11 -5
-11 -10 0 -6 -22 -57 -49 -113 -27 -56 -57 -126 -67 -154 -10 -29 -22 -53 -27
-53 -4 0 -6 -4 -3 -9 4 -5 -3 -30 -14 -55 -10 -25 -17 -46 -13 -46 3 0 0 -6
-6 -13 -6 -8 -8 -17 -4 -20 3 -4 0 -7 -7 -7 -7 0 -11 -3 -7 -6 3 -4 0 -23 -8
-43 -28 -73 -125 -440 -139 -526 -3 -17 -16 -82 -22 -107 -1 -5 -3 -9 -4 -10
-1 -2 -3 -16 -5 -33 -2 -16 -6 -41 -9 -55 -7 -28 -20 -103 -31 -180 -3 -19 -8
-53 -11 -75 -3 -22 -7 -54 -9 -71 -1 -17 -5 -36 -9 -43 -4 -6 -6 -26 -5 -44 2
-18 0 -38 -5 -45 -4 -7 -7 -29 -5 -50 1 -20 -1 -44 -4 -52 -24 -61 -37 -739
-17 -881 12 -85 28 -149 41 -165 5 -6 7 -13 4 -16 -3 -3 3 -13 14 -22 41 -38
74 14 157 251 24 71 46 134 49 141 2 7 4 14 5 17 0 3 6 18 14 34 9 16 12 31 9
35 -4 3 0 6 7 6 7 0 11 3 7 6 -3 3 5 30 18 60 13 30 24 57 25 59 3 20 93 234
118 282 9 17 32 62 51 100 56 114 184 326 218 361 7 7 13 17 13 21 0 4 8 17
18 28 9 11 28 35 42 53 25 33 61 77 110 134 48 55 175 182 235 233 82 69 163
133 170 133 6 0 73 47 85 60 3 3 19 12 35 20 17 8 32 18 35 21 10 13 197 107
285 144 50 20 99 41 110 47 12 5 30 11 40 13 11 2 21 4 23 5 1 2 5 3 10 5 4 1
15 5 24 9 9 4 22 9 30 10 7 2 38 10 68 19 30 9 114 32 185 51 161 43 223 61
255 74 14 5 30 11 35 12 40 11 152 105 156 132 3 14 6 28 9 31 8 8 5 96 -4
117 -12 28 -125 140 -133 132 -2 -1 -38 15 -81 36 -42 22 -131 63 -197 93 -66
29 -122 56 -125 59 -3 3 -10 6 -17 7 -7 2 -34 16 -61 33 -27 16 -52 30 -56 30
-10 0 -176 114 -211 145 -64 57 -82 73 -126 122 -62 69 -133 176 -185 283 -61
126 -108 151 -222 115z"/>
<path d="M4378 6019 c-77 -21 -142 -78 -440 -390 -29 -30 -82 -79 -118 -107
-36 -29 -70 -57 -77 -62 -7 -6 -14 -10 -17 -10 -3 0 -27 -13 -53 -28 -59 -35
-160 -71 -216 -77 -55 -7 -212 -15 -258 -15 -73 1 -153 -51 -167 -108 -12 -47
-4 -154 16 -232 17 -69 104 -248 184 -380 21 -36 44 -74 51 -85 7 -11 14 -22
17 -25 3 -3 14 -18 24 -35 32 -50 127 -175 202 -265 115 -137 287 -306 500
-490 123 -108 134 -117 219 -185 28 -22 55 -44 61 -50 6 -5 23 -19 39 -30 15
-11 35 -28 44 -37 8 -10 19 -18 24 -18 5 0 14 -6 21 -12 7 -7 27 -24 45 -38
18 -14 38 -30 44 -36 7 -5 20 -13 30 -17 9 -3 17 -11 17 -17 0 -5 7 -10 15
-10 7 0 18 -6 22 -12 8 -13 34 -32 208 -148 182 -122 417 -252 475 -264 3 -1
11 -5 18 -9 6 -5 16 -6 21 -3 5 4 11 1 13 -5 2 -6 27 -12 55 -12 70 -3 93 18
88 81 -1 26 -3 47 -5 47 -1 0 -3 10 -6 23 -5 28 -203 425 -216 433 -6 3 -9 9
-8 13 0 3 -22 55 -51 114 -93 193 -113 237 -111 245 1 4 -2 7 -8 7 -5 0 -10 6
-10 13 0 7 -11 37 -25 65 -14 29 -25 58 -25 65 0 7 -4 17 -10 23 -10 10 -78
187 -116 304 -14 41 -28 82 -31 90 -3 8 -8 23 -9 32 -2 10 -5 23 -6 30 -2 7
-6 15 -9 18 -16 15 -110 452 -125 580 -2 25 -7 58 -10 74 -6 28 -12 76 -18
156 -2 19 -4 38 -6 43 -1 4 -4 30 -5 57 -1 28 -3 51 -4 53 -2 1 -4 31 -7 67
-2 36 -6 90 -9 120 -3 30 -7 82 -10 115 -3 33 -7 78 -9 101 -10 114 -50 213
-95 235 -30 14 -123 19 -163 8z"/>
</g>
</svg>
