<?xml version="1.0" standalone="no"?>
<!DOCTYPE svg PUBLIC "-//W3C//DTD SVG 20010904//EN"
 "http://www.w3.org/TR/2001/REC-SVG-20010904/DTD/svg10.dtd">
<svg version="1.0" xmlns="http://www.w3.org/2000/svg"
 width="1024.000000pt" height="1024.000000pt" viewBox="0 0 1024.000000 1024.000000"
 preserveAspectRatio="xMidYMid meet">
<metadata>
Created by potrace 1.14, written by Peter Selinger 2001-2017
</metadata>
<g transform="translate(0.000000,1024.000000) scale(0.100000,-0.100000)"
fill="#000000" stroke="none">
<path d="M0 5120 l0 -5120 795 0 795 0 3 2767 3 2768 22 154 c114 786 450
1472 992 2021 596 604 1403 977 2250 1040 1752 130 3333 -1051 3710 -2771 16
-75 40 -206 52 -290 l22 -154 3 -2767 3 -2768 795 0 795 0 0 5120 0 5120
-5120 0 -5120 0 0 -5120z"/>
<path d="M3390 6263 c-91 -56 -433 -264 -627 -382 -79 -47 -143 -89 -143 -92
0 -12 732 -256 736 -245 3 10 20 115 74 466 10 69 25 164 33 213 8 48 11 87 8
87 -3 0 -40 -21 -81 -47z"/>
<path d="M3546 5927 c-120 -765 -176 -1116 -195 -1237 -11 -69 -48 -298 -81
-510 -33 -212 -64 -408 -69 -437 -5 -37 -5 -50 3 -46 11 7 692 569 712 588 6
5 30 26 54 45 25 19 60 49 80 66 19 17 195 163 390 324 195 161 357 295 359
296 11 10 -28 56 -179 215 -91 95 -199 209 -240 253 -77 82 -170 181 -321 341
-200 212 -269 284 -349 368 -47 49 -86 93 -88 98 -2 5 -7 9 -10 9 -4 0 -33
-168 -66 -373z"/>
<path d="M6085 5808 c3 -13 48 -272 99 -576 51 -304 96 -555 99 -558 4 -4 231
56 847 226 102 28 217 60 255 70 39 10 162 44 275 76 113 31 227 62 254 70 26
7 50 14 52 16 3 3 -1840 689 -1873 696 -10 3 -12 -3 -8 -20z"/>
<path d="M5810 5693 c-69 -58 -332 -277 -585 -486 -253 -210 -462 -384 -465
-387 -3 -3 -176 -147 -385 -320 -639 -528 -1135 -942 -1135 -949 0 -9 3305
-1230 3308 -1222 2 6 -79 494 -103 619 -3 15 -64 369 -135 787 -71 418 -179
1050 -240 1405 -60 355 -110 648 -110 653 0 20 -36 -4 -150 -100z"/>
<path d="M6588 2893 c-5 -8 90 -565 98 -572 4 -4 133 54 669 300 165 75 335
153 379 172 l79 35 -79 6 c-70 5 -185 12 -534 31 -52 3 -129 7 -170 10 -41 2
-122 7 -180 10 -58 3 -139 8 -181 11 -43 3 -79 2 -81 -3z"/>
</g>
</svg>
